<?xml version="1.0" encoding="UTF-8"?>
<svg version="1.1" xmlns="http://www.w3.org/2000/svg" width="512" height="512">
<path d="M0 0 C0.81533203 -0.020625 1.63066406 -0.04125 2.47070312 -0.0625 C3.25509766 -0.06765625 4.03949219 -0.0728125 4.84765625 -0.078125 C5.56058838 -0.0874707 6.27352051 -0.09681641 7.00805664 -0.10644531 C9.52787947 0.35906669 10.37330003 1.25479033 11.9375 3.25 C12.2675 4.24 12.5975 5.23 12.9375 6.25 C15.9075 6.58 18.8775 6.91 21.9375 7.25 C22.22625 6.46625 22.515 5.6825 22.8125 4.875 C23.9375 2.25 23.9375 2.25 25.9375 0.25 C28.87029171 -0.00726891 28.87029171 -0.00726891 32.70970154 -0.01742554 C33.41418727 -0.02195665 34.11867301 -0.02648776 34.8445068 -0.03115618 C37.21728575 -0.0438679 39.58983714 -0.04217544 41.96264648 -0.04052734 C43.65936073 -0.04650878 45.35607225 -0.05331344 47.05278015 -0.06088257 C51.67310212 -0.07859888 56.29335008 -0.08324059 60.91370273 -0.08451414 C64.77248897 -0.08641143 68.63125791 -0.09376784 72.4900375 -0.10085833 C81.60168427 -0.11716477 90.7132915 -0.12202561 99.82495117 -0.12060547 C109.21111767 -0.11940658 118.59705327 -0.14045268 127.98316139 -0.1720928 C136.0461629 -0.19830027 144.10908928 -0.20897074 152.17213303 -0.20769465 C156.98534085 -0.2071859 161.79834404 -0.21281955 166.61150932 -0.23405075 C171.14648442 -0.25350593 175.68106144 -0.25350811 180.2160511 -0.23901749 C181.87398489 -0.23693659 183.53194403 -0.24158711 185.18983459 -0.2537384 C199.68399602 -0.35302311 210.15771 2.16992761 220.99609375 12.14453125 C231.22115899 22.56288695 234.83275091 38.39809286 239.23632812 51.921875 C242.36817282 61.28277573 245.41631342 69.62280131 253.9375 75.25 C263.29677021 79.46371826 273.66987506 78.69315543 283.70336914 78.68579102 C298.28796774 78.70887035 309.26326487 80.81450529 320.06640625 91.3203125 C326.7779942 98.41506661 331.05094543 106.23214805 331.07172108 116.13118076 C331.07617892 117.11816222 331.08063676 118.10514367 331.08522969 119.12203366 C331.08495315 120.74500918 331.08495315 120.74500918 331.08467102 122.40077209 C331.08834771 123.55207389 331.0920244 124.70337568 331.0958125 125.88956541 C331.1049301 129.0859431 331.10954702 132.28229061 331.11220181 135.47867906 C331.11610912 138.92603054 331.12568722 142.37336722 331.13441467 145.82070923 C331.15416803 154.14693538 331.1642443 162.47316272 331.17314246 170.79940644 C331.1775276 174.72250282 331.18289386 178.64559785 331.18813133 182.56869316 C331.20514322 195.6139412 331.21963641 208.65918841 331.22688007 221.70444584 C331.2287899 225.08901534 331.23071024 228.47358483 331.23266602 231.8581543 C331.23314976 232.69935086 331.2336335 233.54054742 331.2341319 234.40723478 C331.24242854 248.02779587 331.26775945 261.64826903 331.30024669 275.26879174 C331.33334456 289.25965679 331.35133134 303.25047719 331.35452431 317.24138159 C331.35668699 325.09390461 331.36539997 332.94629945 331.39098549 340.79878426 C331.41272988 347.48776169 331.42072464 354.17657979 331.41101871 360.86558855 C331.40648462 364.27562739 331.40830745 367.68533775 331.42778015 371.09533119 C331.44549699 374.8006104 331.43839258 378.50506223 331.42524719 382.21034241 C331.44170106 383.80989536 331.44170106 383.80989536 331.45848733 385.44176251 C331.35497172 397.56842416 327.19164234 406.70775898 318.90234375 415.37890625 C313.74010303 420.32263942 308.71895781 423.08336095 301.9375 425.25 C300.9475 425.58 299.9575 425.91 298.9375 426.25 C296.48303496 426.34779901 294.05704994 426.38936664 291.60250092 426.38422108 C290.84594353 426.38657331 290.08938615 426.38892554 289.30990279 426.39134905 C286.75423575 426.39804886 284.19861943 426.39758053 281.64294434 426.39717102 C279.80028344 426.40046905 277.95762326 426.40419448 276.11496401 426.4083125 C271.03507266 426.41834782 265.95519312 426.42205176 260.87529325 426.42470181 C255.40268671 426.42860039 249.93008957 426.43817912 244.45748901 426.44691467 C231.23202362 426.46669295 218.00655745 426.47674757 204.78108096 426.48564246 C198.55527112 426.49002362 192.32946212 426.49539092 186.10365295 426.50063133 C165.41083709 426.51764589 144.71802169 426.53216493 124.02519989 426.53938007 C122.68669757 426.53985483 121.34819525 426.54033072 120.00969294 426.54080774 C119.34591563 426.54104411 118.68213833 426.54128049 117.99824656 426.54152403 C114.63522426 426.54272522 111.27220197 426.54394067 107.90917969 426.54516602 C106.90807591 426.54552624 106.90807591 426.54552624 105.88674781 426.54589374 C84.25484764 426.55378418 62.62300233 426.57720969 40.99112611 426.60972196 C18.11982732 426.64403426 -4.75144754 426.66373145 -27.62277365 426.66702431 C-40.08968121 426.66919023 -52.55650814 426.67795077 -65.02339172 426.70348549 C-75.64115163 426.72518231 -86.25881134 426.73324792 -96.87659091 426.72351871 C-102.29361562 426.71897094 -107.71043355 426.72088813 -113.12742996 426.74028015 C-118.08960459 426.75789043 -123.05142126 426.75693125 -128.01359957 426.74138286 C-129.80575732 426.73900355 -131.59793972 426.74334709 -133.39005977 426.75521151 C-148.1718899 426.84698548 -159.3128856 424.75879933 -170.19140625 414.1796875 C-176.9029942 407.08493339 -181.17594543 399.26785195 -181.19672108 389.36881924 C-181.20117892 388.38183778 -181.20563676 387.39485633 -181.21022969 386.37796634 C-181.21004533 385.29598266 -181.20986097 384.21399897 -181.20967102 383.09922791 C-181.21334771 381.94792611 -181.2170244 380.79662432 -181.2208125 379.61043459 C-181.2299301 376.4140569 -181.23454702 373.21770939 -181.23720181 370.02132094 C-181.24110912 366.57396946 -181.25068722 363.12663278 -181.25941467 359.67929077 C-181.27916803 351.35306462 -181.2892443 343.02683728 -181.29814246 334.70059356 C-181.3025276 330.77749718 -181.30789386 326.85440215 -181.31313133 322.93130684 C-181.33014322 309.8860588 -181.34463641 296.84081159 -181.35188007 283.79555416 C-181.3537899 280.41098466 -181.35571024 277.02641517 -181.35766602 273.6418457 C-181.35814976 272.80064914 -181.3586335 271.95945258 -181.3591319 271.09276522 C-181.36742854 257.47220413 -181.39275945 243.85173097 -181.42524669 230.23120826 C-181.45834456 216.24034321 -181.47633134 202.24952281 -181.47952431 188.25861841 C-181.48168699 180.40609539 -181.49039997 172.55370055 -181.51598549 164.70121574 C-181.53772988 158.01223831 -181.54572464 151.32342021 -181.53601871 144.63441145 C-181.53148462 141.22437261 -181.53330745 137.81466225 -181.55278015 134.40466881 C-181.57049699 130.6993896 -181.56339258 126.99493777 -181.55024719 123.28965759 C-181.56121644 122.22328896 -181.57218568 121.15692033 -181.58348733 120.05823749 C-181.48196155 108.16467998 -177.5038021 98.77148429 -169.1796875 90.34375 C-161.15459341 82.9166041 -152.22377804 78.84695424 -141.1875 79.125 C-140.49914062 79.13402344 -139.81078125 79.14304687 -139.1015625 79.15234375 C-137.42172162 79.17567487 -135.74206254 79.21153674 -134.0625 79.25 C-134.36901707 76.31081954 -134.36901707 76.31081954 -135.0625 73.25 C-137.47108714 71.3875562 -137.47108714 71.3875562 -140.0625 70.25 C-141.7211352 68.5913648 -141.21527374 66.61684088 -141.23950195 64.3347168 C-141.25875481 62.76254646 -141.25875481 62.76254646 -141.27839661 61.15861511 C-141.28578354 60.01701431 -141.29317047 58.87541351 -141.30078125 57.69921875 C-141.308853 56.53373001 -141.31692474 55.36824127 -141.32524109 54.16743469 C-141.3391019 51.69505307 -141.34981507 49.22265215 -141.35766602 46.75024414 C-141.37487958 42.96398739 -141.41874951 39.17860323 -141.46289062 35.39257812 C-141.4730168 32.99479811 -141.48153314 30.59701065 -141.48828125 28.19921875 C-141.50578934 27.06369064 -141.52329742 25.92816254 -141.54133606 24.75822449 C-141.53841049 23.70065445 -141.53548492 22.64308441 -141.5324707 21.5534668 C-141.53833694 20.62382614 -141.54420319 19.69418549 -141.55024719 18.7363739 C-140.89079659 15.3747128 -139.83278986 14.23870635 -137.0625 12.25 C-134.14074707 11.74879456 -134.14074707 11.74879456 -130.70507812 11.74829102 C-129.41694214 11.73891006 -128.12880615 11.72952911 -126.80163574 11.71986389 C-125.3990004 11.73034222 -123.99637147 11.74171123 -122.59375 11.75390625 C-121.15173266 11.75375123 -119.70971489 11.75226176 -118.2677002 11.74949646 C-115.24810324 11.74811303 -112.2289816 11.76066022 -109.20947266 11.78344727 C-105.34227795 11.8118324 -101.47587282 11.80909416 -97.60861969 11.79635715 C-94.63170651 11.78939635 -91.65497527 11.79719371 -88.67808533 11.80961418 C-87.25236204 11.81412483 -85.8266192 11.81446885 -84.40089417 11.81054878 C-82.40720395 11.80763299 -80.41351757 11.82631649 -78.41992188 11.84594727 C-77.28615112 11.85135025 -76.15238037 11.85675323 -74.98425293 11.86231995 C-71.7346643 12.2934997 -70.36552059 12.95101024 -68.0625 15.25 C-67.0962052 18.14888441 -66.93073125 20.00968308 -66.91723633 23.02514648 C-66.91085648 23.99302597 -66.90447662 24.96090546 -66.89790344 25.95811462 C-66.89679062 27.00189774 -66.8956778 28.04568085 -66.89453125 29.12109375 C-66.88953865 30.73190575 -66.88953865 30.73190575 -66.88444519 32.3752594 C-66.87938046 34.64738537 -66.87703672 36.91951878 -66.87719727 39.19165039 C-66.87501087 42.67020906 -66.8568504 46.14845059 -66.83789062 49.62695312 C-66.83495662 51.83333225 -66.83297187 54.03971288 -66.83203125 56.24609375 C-66.82484573 57.28785263 -66.81766022 58.32961151 -66.81025696 59.40293884 C-66.81333359 60.37397049 -66.81641022 61.34500214 -66.81958008 62.34545898 C-66.81815506 63.19800766 -66.81673004 64.05055634 -66.81526184 64.92893982 C-67.09038283 67.51176273 -67.62391816 69.09042529 -69.0625 71.25 C-72.1875 72.5 -72.1875 72.5 -75.0625 73.25 C-75.0625 75.23 -75.0625 77.21 -75.0625 79.25 C-63.28747887 75.9864625 -63.28747887 75.9864625 -54.99958801 67.48103333 C-52.63273861 62.67666908 -50.74956809 57.84506456 -49.07421875 52.76171875 C-48.5272037 51.15151903 -47.97966095 49.54149849 -47.43164062 47.93164062 C-46.58992179 45.43924344 -45.75268387 42.94559767 -44.92504883 40.44848633 C-40.21727514 26.29438636 -35.18545067 12.18224035 -21.25 4.75 C-13.86374933 1.29260607 -8.08552954 0.05137747 0 0 Z " fill="#52BBE8" transform="translate(181.0625,42.75)"/>
<path d="M0 0 C3.3 0 6.6 0 10 0 C10.45375 0.969375 10.9075 1.93875 11.375 2.9375 C12.65786221 6.07079582 12.65786221 6.07079582 15 7 C17.19906176 7.10006876 19.40123689 7.1334713 21.60256958 7.13803101 C22.28875425 7.14085229 22.97493892 7.14367357 23.68191707 7.14658034 C25.99254585 7.15494588 28.30312683 7.15626628 30.61376953 7.15771484 C32.26608923 7.16238177 33.91840764 7.16752513 35.57072449 7.17311096 C39.1354981 7.1844047 42.70026328 7.19283285 46.26504898 7.19923019 C51.90466688 7.20990028 57.54422456 7.23014377 63.18380737 7.25234985 C79.22309604 7.31430326 95.2623818 7.36825205 111.30175781 7.40136719 C120.15525096 7.4197267 129.00864385 7.44868194 137.86206329 7.4893719 C142.54712739 7.51042452 147.23206522 7.52589665 151.91717911 7.52817917 C156.32819408 7.53033054 160.73894643 7.54624974 165.14988136 7.57256889 C166.76551553 7.57974551 168.38118156 7.58187082 169.99682808 7.57846642 C180.98728152 7.55901403 189.78039642 7.86738083 198.06176758 15.87475586 C205.88130573 24.44876765 208.6002519 38.09661686 212.11694336 48.91137695 C216.75869064 63.11887769 221.92059846 75.73321211 236 83 C244.30899871 87.05768972 253.41515229 86.4569607 262.4375 86.5 C287.22199981 86.61849984 287.22199981 86.61849984 296 94 C301.0074185 99.72964232 304.26289305 104.82076133 304.22705078 112.61645508 C304.22689972 113.71721878 304.22674866 114.81798248 304.22659302 115.95210266 C304.21627045 117.1293541 304.20594788 118.30660553 304.1953125 119.51953125 C304.19106766 121.34009285 304.19106766 121.34009285 304.18673706 123.19743347 C304.17555308 127.06922311 304.1504513 130.94078041 304.125 134.8125 C304.11496792 137.43944978 304.10584246 140.06640319 304.09765625 142.69335938 C304.07561954 149.12898536 304.04215941 155.56447608 304 162 C302.07440498 162.00879936 302.07440498 162.00879936 300.10990906 162.01777649 C288.02876376 162.07491876 275.94779995 162.14763566 263.86683941 162.23571491 C257.65546139 162.28049686 251.44415017 162.3197357 245.23266602 162.34643555 C239.2414322 162.37239045 233.25045433 162.41273728 227.25937843 162.46318626 C224.97040801 162.47990796 222.68139326 162.49138908 220.39237022 162.49761391 C217.1931901 162.50719735 213.99467267 162.53518768 210.7956543 162.56762695 C209.36714394 162.56547432 209.36714394 162.56547432 207.90977478 162.5632782 C207.03899292 162.57581635 206.16821106 162.58835449 205.27104187 162.60127258 C204.13585381 162.60818603 204.13585381 162.60818603 202.97773266 162.61523914 C200.45689572 163.10565901 199.57556802 164.00984259 198 166 C197.28552357 168.10332891 197.28552357 168.10332891 197 170 C193.72547355 170.90572008 191.25724756 171.04112936 188 170 C184.86703292 166.56176946 182.53243194 162.68721699 180.10742188 158.73974609 C161.3769433 129.3143955 128.10211323 110.36064803 95 102 C55.02214157 94.27983459 16.852975 100.89900973 -17.375 123 C-34.51016297 134.86639177 -49.39629447 149.38205372 -60.01171875 167.41796875 C-62 170 -62 170 -64.359375 170.5859375 C-65.14828125 170.51632813 -65.9371875 170.44671875 -66.75 170.375 C-67.54921875 170.32085937 -68.3484375 170.26671875 -69.171875 170.2109375 C-70.07679687 170.10652344 -70.07679687 170.10652344 -71 170 C-71.28875 169.21625 -71.5775 168.4325 -71.875 167.625 C-72.84912254 164.90328368 -72.84912254 164.90328368 -75 163 C-76.92145652 162.68709368 -76.92145652 162.68709368 -79.15078735 162.7215271 C-80.02019455 162.71036362 -80.88960175 162.69920013 -81.78535461 162.68769836 C-82.74129013 162.68553818 -83.69722565 162.68337799 -84.68212891 162.68115234 C-85.68703873 162.67110672 -86.69194855 162.6610611 -87.72731018 162.65071106 C-91.06038828 162.6197347 -94.39338554 162.60280382 -97.7265625 162.5859375 C-100.03299665 162.56723748 -102.33942388 162.54766496 -104.64584351 162.5272522 C-110.72525969 162.47580185 -116.80469808 162.43624529 -122.88421631 162.39910889 C-129.08432569 162.35914995 -135.28434164 162.30802072 -141.484375 162.2578125 C-153.65618449 162.16090051 -165.82804658 162.07654477 -178 162 C-178.12736747 154.35044242 -178.21458927 146.70116097 -178.2746582 139.05078125 C-178.29971449 136.45139344 -178.33376892 133.85207547 -178.37719727 131.25292969 C-178.43823684 127.50438141 -178.46630035 123.75676922 -178.48828125 120.0078125 C-178.51408768 118.85636749 -178.5398941 117.70492249 -178.56648254 116.51858521 C-178.56932476 108.23713056 -176.96794348 101.58095874 -171.44233704 95.20169067 C-162.7914454 87.14196033 -153.46516789 86.43287296 -142.15512657 86.5141449 C-139.6513669 86.53158328 -137.1487442 86.52380405 -134.64497375 86.5098877 C-128.42780278 86.48041362 -122.21085705 86.49337415 -115.99365234 86.50506592 C-110.7309425 86.51332106 -105.46873402 86.5051224 -100.20609474 86.47593689 C-97.75992304 86.46892403 -95.31467472 86.48541592 -92.86857605 86.50305176 C-80.40843359 86.50088307 -69.42665946 84.73141776 -60 76 C-59.39542969 75.45988281 -58.79085937 74.91976562 -58.16796875 74.36328125 C-50.56124102 66.72340873 -47.94903763 55.85744541 -44.61328125 45.89453125 C-44.17886408 44.60633973 -43.74437433 43.31817268 -43.30981445 42.0300293 C-42.4476643 39.47275969 -41.60786946 36.91131485 -40.77807617 34.34301758 C-37.77363391 25.3272771 -34.65232245 16.21457197 -25.8125 11.5 C-24.55373047 10.80390625 -24.55373047 10.80390625 -23.26953125 10.09375 C-18.01786967 7.56282875 -12.99232074 7.7038627 -7.25 7.4765625 C-4.07591339 7.25513172 -4.07591339 7.25513172 -2.125 5.7109375 C-0.70522861 3.75690731 -0.70522861 3.75690731 0 0 Z " fill="#FAB55E" transform="translate(193,50)"/>
<path d="M0 0 C0.71684967 -0.00885223 1.43369934 -0.01770447 2.17227173 -0.02682495 C12.66234041 -0.11459854 21.74530212 1.34215252 31.75 4.5625 C32.90677246 4.93145386 32.90677246 4.93145386 34.08691406 5.30786133 C49.57864415 10.58767126 62.19163867 19.14112666 73.75 30.5625 C74.46542969 31.20574219 75.18085938 31.84898437 75.91796875 32.51171875 C86.35860162 42.11876815 93.69451195 55.43182458 98.75 68.5625 C99.0068457 69.20977051 99.26369141 69.85704102 99.52832031 70.52392578 C103.75694788 81.70346168 104.24461676 92.99006442 104.3125 104.8125 C104.32135223 105.52934967 104.33020447 106.24619934 104.33932495 106.98477173 C104.54720644 131.82927514 94.76143915 154.78926239 78.75 173.5625 C77.986875 174.573125 77.22375 175.58375 76.4375 176.625 C57.51261658 197.31033769 30.05639873 208.33515212 2.4765625 209.81640625 C-24.18604504 210.78110414 -49.10733643 200.74190393 -69.25 183.5625 C-70.260625 182.799375 -71.27125 182.03625 -72.3125 181.25 C-92.87161513 162.44059679 -104.07159868 135.03810283 -105.44921875 107.59375 C-106.37471376 79.18232111 -95.45475986 53.22671781 -76.3828125 32.41015625 C-65.04083501 20.35698316 -51.6944015 11.50880396 -36.25 5.5625 C-35.60272949 5.3056543 -34.95545898 5.04880859 -34.28857422 4.78417969 C-23.10903832 0.55555212 -11.82243558 0.06788324 0 0 Z " fill="#556267" transform="translate(256.25,188.4375)"/>
<path d="M0 0 C0.81533203 -0.020625 1.63066406 -0.04125 2.47070312 -0.0625 C3.25509766 -0.06765625 4.03949219 -0.0728125 4.84765625 -0.078125 C5.56058838 -0.0874707 6.27352051 -0.09681641 7.00805664 -0.10644531 C9.5017394 0.35423757 10.3616436 1.30728541 11.9375 3.25 C13.08344467 5.89448769 13.00504982 7.0192048 12.1875 9.8125 C10.90959187 12.30442085 10.16626014 13.58199401 7.9375 15.25 C4.93359375 15.5859375 4.93359375 15.5859375 1.375 15.625 C-5.59462383 15.95688685 -10.12386869 17.79649338 -16.0625 21.25 C-17.0525 21.58 -18.0425 21.91 -19.0625 22.25 C-20.18765456 24.09612587 -20.18765456 24.09612587 -21.0625 26.25 C-21.53968979 27.16066978 -21.53968979 27.16066978 -22.02651978 28.08973694 C-24.50835302 32.87804424 -26.39296171 37.69419445 -28.0859375 42.80859375 C-28.63759982 44.42787787 -29.18969659 46.04701403 -29.7421875 47.66601562 C-30.59196749 50.1763951 -31.43765545 52.68796658 -32.27539062 55.20239258 C-36.99651172 69.3256761 -42.08635644 82.79914055 -56.0625 90.0625 C-62.50133347 93.16542468 -68.65162553 94.54857447 -75.78271484 94.50537109 C-76.52030533 94.50899155 -77.25789581 94.512612 -78.01783752 94.51634216 C-79.60774888 94.52319608 -81.19768355 94.52574917 -82.7876091 94.52439499 C-85.31117166 94.52342297 -87.83431615 94.53645139 -90.3578186 94.55337524 C-97.52855221 94.59944288 -104.69924048 94.62424224 -111.87011719 94.63085938 C-116.26799449 94.63589441 -120.66543201 94.66024125 -125.06315994 94.69618607 C-126.73034644 94.7059346 -128.39759379 94.70834322 -130.06480026 94.70301437 C-140.62039836 94.67085405 -148.3189924 95.49462965 -157.3125 101.375 C-164.62515348 109.02004682 -165.80456033 117.00160332 -165.76953125 127.2578125 C-165.78465256 128.4644455 -165.79977386 129.67107849 -165.81535339 130.91427612 C-165.85803661 134.73471041 -165.86705035 138.55435159 -165.875 142.375 C-165.89815913 144.97918747 -165.92352738 147.58335628 -165.95117188 150.1875 C-166.01383321 156.54167436 -166.04892066 162.89554121 -166.0625 169.25 C-164.7809906 169.24111755 -163.4994812 169.23223511 -162.17913818 169.2230835 C-150.11319434 169.1420628 -138.04730554 169.0820658 -125.98115158 169.04275131 C-119.77752105 169.02185997 -113.57410979 168.99351357 -107.37060547 168.94824219 C-101.38596689 168.90484042 -95.40153947 168.88087455 -89.41675568 168.87049103 C-87.13133672 168.86308952 -84.84592956 168.84863646 -82.56060028 168.82707977 C-79.36403764 168.79812184 -76.16835199 168.7940409 -72.97167969 168.79589844 C-72.02293472 168.78151733 -71.07418976 168.76713623 -70.09669495 168.75231934 C-63.71673981 168.79254283 -63.71673981 168.79254283 -60.47442627 171.05963135 C-58.39232444 174.28966585 -58.52599683 176.49447779 -59.0625 180.25 C-60.47442627 182.44036865 -60.47442627 182.44036865 -63.0625 184.25 C-66.36440803 184.83291938 -69.62686796 184.75480232 -72.97167969 184.70410156 C-74.4794825 184.70497772 -74.4794825 184.70497772 -76.01774597 184.70587158 C-79.34030691 184.70308485 -82.66197078 184.67196404 -85.984375 184.640625 C-88.28793854 184.63316473 -90.59150842 184.62747079 -92.89508057 184.62347412 C-98.95824707 184.60820107 -105.02103033 184.56890433 -111.08404541 184.5246582 C-117.27082128 184.48374185 -123.45765908 184.46547084 -129.64453125 184.4453125 C-141.78402255 184.40241213 -153.92322941 184.33414017 -166.0625 184.25 C-166.00193846 210.67565869 -165.92441928 237.10122074 -165.82678509 263.52676964 C-165.78184465 275.7969718 -165.74242587 288.06714504 -165.71606445 300.33740234 C-165.69307027 311.03378707 -165.65965622 321.73008016 -165.61379844 332.4263922 C-165.58988554 338.08851896 -165.57114404 343.75055508 -165.56488609 349.41273117 C-165.55882659 354.74626961 -165.53879513 360.0795762 -165.50822449 365.41302872 C-165.4994582 367.36645649 -165.49571875 369.31991457 -165.49749184 371.27336121 C-165.91781368 388.82202394 -165.91781368 388.82202394 -157.80078125 403.78125 C-150.90291311 409.60956106 -143.3656267 410.37390999 -134.57141399 410.37863445 C-133.46594268 410.38126401 -133.46594268 410.38126401 -132.33813861 410.38394669 C-129.86714578 410.38860081 -127.39621195 410.3861427 -124.92521667 410.38371277 C-123.13628873 410.38558103 -121.3473612 410.3878818 -119.55843431 410.39057809 C-114.64107824 410.39670054 -109.72373916 410.39656197 -104.80638015 410.39538372 C-99.50360277 410.39517982 -94.20083087 410.40069737 -88.89805603 410.40544128 C-78.50846043 410.41375078 -68.1188705 410.41649626 -57.72927185 410.41705366 C-49.28507784 410.41752867 -40.8408857 410.41958266 -32.39669228 410.42275429 C-8.46124386 410.43156159 15.47420007 410.43617353 39.40965012 410.43542381 C41.34554885 410.43536388 41.34554885 410.43536388 43.32055664 410.43530273 C44.61272965 410.43526185 45.90490266 410.43522097 47.23623242 410.43517885 C68.18132433 410.43477234 89.12639826 410.4443431 110.07148496 410.4584411 C131.5724656 410.47279921 153.07343746 410.4797116 174.57442302 410.47884732 C186.64771991 410.47851516 198.72099796 410.48127059 210.79429054 410.49202538 C221.07312079 410.50112292 231.35192365 410.50331176 241.63075618 410.49651595 C246.87534711 410.49324701 252.11988548 410.49320758 257.36447144 410.5018692 C262.16658267 410.50971852 266.96859952 410.50831879 271.7707084 410.49958507 C273.50688269 410.49804663 275.24306397 410.49987917 276.97923002 410.50544515 C294.34623625 410.76288871 294.34623625 410.76288871 308.9375 402.25 C314.51215273 395.50173617 315.23710432 387.95829809 315.2159729 379.54333496 C315.2246615 378.28351484 315.2246615 378.28351484 315.23352563 376.99824381 C315.25043499 374.20386761 315.25339428 371.40965747 315.25634766 368.61523438 C315.26565209 366.60422363 315.27582153 364.59321672 315.28678894 362.58221436 C315.31404483 357.13658892 315.32922531 351.69098929 315.34221697 346.24531364 C315.35786678 340.5491325 315.38465112 334.85300391 315.4102478 329.15686035 C315.45700279 318.37652612 315.4937628 307.59618197 315.52692068 296.81579828 C315.56516522 284.5401185 315.61456929 272.26449154 315.66490483 259.98885632 C315.76817592 234.74261004 315.85745203 209.49632983 315.9375 184.25 C314.6559906 184.25888245 313.3744812 184.26776489 312.05413818 184.2769165 C299.98819434 184.3579372 287.92230554 184.4179342 275.85615158 184.45724869 C269.65252105 184.47814003 263.44910979 184.50648643 257.24560547 184.55175781 C251.26096689 184.59515958 245.27653947 184.61912545 239.29175568 184.62950897 C237.00633672 184.63691048 234.72092956 184.65136354 232.43560028 184.67292023 C229.23903764 184.70187816 226.04335199 184.7059591 222.84667969 184.70410156 C221.89793472 184.71848267 220.94918976 184.73286377 219.97169495 184.74768066 C213.59173981 184.70745717 213.59173981 184.70745717 210.34942627 182.44036865 C208.26732444 179.21033415 208.40099683 177.00552221 208.9375 173.25 C210.34942627 171.05963135 210.34942627 171.05963135 212.9375 169.25 C216.23940803 168.66708062 219.50186796 168.74519768 222.84667969 168.79589844 C224.3544825 168.79502228 224.3544825 168.79502228 225.89274597 168.79412842 C229.21530691 168.79691515 232.53697078 168.82803596 235.859375 168.859375 C238.16293854 168.86683527 240.46650842 168.87252921 242.77008057 168.87652588 C248.83324707 168.89179893 254.89603033 168.93109567 260.95904541 168.9753418 C267.14582128 169.01625815 273.33265908 169.03452916 279.51953125 169.0546875 C291.65902255 169.09758787 303.79822941 169.16585983 315.9375 169.25 C315.92115169 161.5998019 315.86611897 153.95056363 315.78491211 146.30078125 C315.76179715 143.70156071 315.74735178 141.10224738 315.74194336 138.50292969 C315.73260688 134.75397338 315.69150867 131.00646376 315.64453125 127.2578125 C315.65043022 125.53064499 315.65043022 125.53064499 315.65644836 123.76858521 C315.51220082 115.6879863 313.96752914 108.87039609 308.53059387 102.63699341 C301.48087048 96.27683324 293.2148289 95.12753741 284.14453125 95.07421875 C282.61131458 95.05100811 281.07811143 95.02689027 279.54492188 95.00195312 C277.15347377 94.96700401 274.76252086 94.93757067 272.37084961 94.92407227 C257.96083428 94.82706025 246.77144093 92.44117284 235.84375 82.30859375 C228.83632786 74.56000197 226.19708025 64.95564109 222.9375 55.25 C221.81630278 51.95717822 220.68516282 48.66848661 219.53686523 45.38500977 C218.78015152 43.22108522 218.03676414 41.05243957 217.30883789 38.87866211 C214.61419252 31.15376442 211.2323164 23.53308382 203.8125 19.3125 C203.17054688 18.93222656 202.52859375 18.55195312 201.8671875 18.16015625 C197.62571501 16.15962368 193.72894372 16.12343451 189.06750488 16.11869812 C188.3767891 16.11658241 187.68607331 16.11446669 186.97442675 16.11228687 C184.66066958 16.1062968 182.3469671 16.1072863 180.03320312 16.1081543 C178.37409879 16.10512222 176.71499529 16.10160063 175.05589294 16.09762573 C171.48350431 16.08974141 167.91112564 16.08459364 164.33872986 16.08133507 C158.69164981 16.07542442 153.04463276 16.05888463 147.39758301 16.03999329 C145.46446995 16.03365615 143.53135685 16.02733053 141.59824371 16.02101612 C140.6302374 16.01785031 139.66223108 16.0146845 138.66489124 16.01142275 C125.5179789 15.96933274 112.37109636 15.93635436 99.22412109 15.92407227 C90.35524988 15.91570172 81.48653504 15.893251 72.61774206 15.8547166 C67.92385492 15.83492671 63.23020168 15.82256116 58.53627014 15.82755089 C54.12353594 15.83218483 49.71124579 15.81846111 45.29860115 15.79053879 C43.6780601 15.78360659 42.05747333 15.78352219 40.43693352 15.79073906 C38.22658849 15.79958959 36.01771994 15.78399836 33.80749512 15.76225281 C32.57011345 15.75986445 31.33273178 15.7574761 30.0578537 15.75501537 C26.34027614 15.15334197 25.18715285 14.21382859 22.9375 11.25 C21.9375 8.3125 21.9375 8.3125 21.9375 5.25 C23.49920559 2.59785557 23.49920559 2.59785557 25.9375 0.25 C29.11638737 -0.37641239 29.11638737 -0.37641239 32.95021057 -0.37818909 C33.65640516 -0.38528347 34.36259974 -0.39237786 35.09019417 -0.39968723 C37.45724847 -0.41729304 39.82266611 -0.39915083 42.18969727 -0.38110352 C43.8867111 -0.38624172 45.58371961 -0.39352226 47.28071594 -0.40278625 C51.89284103 -0.42133106 56.50438937 -0.40833845 61.1164906 -0.38869596 C65.94802352 -0.37231477 70.77951973 -0.38112248 75.61106873 -0.38621521 C83.73274947 -0.3907398 91.85420021 -0.37485124 99.97583008 -0.34692383 C109.34730202 -0.31494573 118.71835737 -0.31485718 128.08985859 -0.3321386 C137.11660358 -0.3480475 146.1431968 -0.34123723 155.16993523 -0.32420158 C159.00421153 -0.3173531 162.83836537 -0.31834109 166.67263985 -0.32574654 C171.19948875 -0.33345214 175.72586871 -0.32114475 180.25263786 -0.29389763 C181.90732813 -0.28705442 183.56206253 -0.28687179 185.2167511 -0.29411316 C199.68947433 -0.35011264 210.17387295 2.18480243 220.99609375 12.14453125 C231.22115899 22.56288695 234.83275091 38.39809286 239.23632812 51.921875 C242.36817282 61.28277573 245.41631342 69.62280131 253.9375 75.25 C263.29677021 79.46371826 273.66987506 78.69315543 283.70336914 78.68579102 C298.28796774 78.70887035 309.26326487 80.81450529 320.06640625 91.3203125 C326.7779942 98.41506661 331.05094543 106.23214805 331.07172108 116.13118076 C331.07617892 117.11816222 331.08063676 118.10514367 331.08522969 119.12203366 C331.08495315 120.74500918 331.08495315 120.74500918 331.08467102 122.40077209 C331.08834771 123.55207389 331.0920244 124.70337568 331.0958125 125.88956541 C331.1049301 129.0859431 331.10954702 132.28229061 331.11220181 135.47867906 C331.11610912 138.92603054 331.12568722 142.37336722 331.13441467 145.82070923 C331.15416803 154.14693538 331.1642443 162.47316272 331.17314246 170.79940644 C331.1775276 174.72250282 331.18289386 178.64559785 331.18813133 182.56869316 C331.20514322 195.6139412 331.21963641 208.65918841 331.22688007 221.70444584 C331.2287899 225.08901534 331.23071024 228.47358483 331.23266602 231.8581543 C331.23314976 232.69935086 331.2336335 233.54054742 331.2341319 234.40723478 C331.24242854 248.02779587 331.26775945 261.64826903 331.30024669 275.26879174 C331.33334456 289.25965679 331.35133134 303.25047719 331.35452431 317.24138159 C331.35668699 325.09390461 331.36539997 332.94629945 331.39098549 340.79878426 C331.41272988 347.48776169 331.42072464 354.17657979 331.41101871 360.86558855 C331.40648462 364.27562739 331.40830745 367.68533775 331.42778015 371.09533119 C331.44549699 374.8006104 331.43839258 378.50506223 331.42524719 382.21034241 C331.44170106 383.80989536 331.44170106 383.80989536 331.45848733 385.44176251 C331.35497172 397.56842416 327.19164234 406.70775898 318.90234375 415.37890625 C313.74010303 420.32263942 308.71895781 423.08336095 301.9375 425.25 C300.9475 425.58 299.9575 425.91 298.9375 426.25 C296.48303496 426.34779901 294.05704994 426.38936664 291.60250092 426.38422108 C290.84594353 426.38657331 290.08938615 426.38892554 289.30990279 426.39134905 C286.75423575 426.39804886 284.19861943 426.39758053 281.64294434 426.39717102 C279.80028344 426.40046905 277.95762326 426.40419448 276.11496401 426.4083125 C271.03507266 426.41834782 265.95519312 426.42205176 260.87529325 426.42470181 C255.40268671 426.42860039 249.93008957 426.43817912 244.45748901 426.44691467 C231.23202362 426.46669295 218.00655745 426.47674757 204.78108096 426.48564246 C198.55527112 426.49002362 192.32946212 426.49539092 186.10365295 426.50063133 C165.41083709 426.51764589 144.71802169 426.53216493 124.02519989 426.53938007 C122.68669757 426.53985483 121.34819525 426.54033072 120.00969294 426.54080774 C119.34591563 426.54104411 118.68213833 426.54128049 117.99824656 426.54152403 C114.63522426 426.54272522 111.27220197 426.54394067 107.90917969 426.54516602 C106.90807591 426.54552624 106.90807591 426.54552624 105.88674781 426.54589374 C84.25484764 426.55378418 62.62300233 426.57720969 40.99112611 426.60972196 C18.11982732 426.64403426 -4.75144754 426.66373145 -27.62277365 426.66702431 C-40.08968121 426.66919023 -52.55650814 426.67795077 -65.02339172 426.70348549 C-75.64115163 426.72518231 -86.25881134 426.73324792 -96.87659091 426.72351871 C-102.29361562 426.71897094 -107.71043355 426.72088813 -113.12742996 426.74028015 C-118.08960459 426.75789043 -123.05142126 426.75693125 -128.01359957 426.74138286 C-129.80575732 426.73900355 -131.59793972 426.74334709 -133.39005977 426.75521151 C-148.1718899 426.84698548 -159.3128856 424.75879933 -170.19140625 414.1796875 C-176.9029942 407.08493339 -181.17594543 399.26785195 -181.19672108 389.36881924 C-181.20117892 388.38183778 -181.20563676 387.39485633 -181.21022969 386.37796634 C-181.21004533 385.29598266 -181.20986097 384.21399897 -181.20967102 383.09922791 C-181.21334771 381.94792611 -181.2170244 380.79662432 -181.2208125 379.61043459 C-181.2299301 376.4140569 -181.23454702 373.21770939 -181.23720181 370.02132094 C-181.24110912 366.57396946 -181.25068722 363.12663278 -181.25941467 359.67929077 C-181.27916803 351.35306462 -181.2892443 343.02683728 -181.29814246 334.70059356 C-181.3025276 330.77749718 -181.30789386 326.85440215 -181.31313133 322.93130684 C-181.33014322 309.8860588 -181.34463641 296.84081159 -181.35188007 283.79555416 C-181.3537899 280.41098466 -181.35571024 277.02641517 -181.35766602 273.6418457 C-181.35814976 272.80064914 -181.3586335 271.95945258 -181.3591319 271.09276522 C-181.36742854 257.47220413 -181.39275945 243.85173097 -181.42524669 230.23120826 C-181.45834456 216.24034321 -181.47633134 202.24952281 -181.47952431 188.25861841 C-181.48168699 180.40609539 -181.49039997 172.55370055 -181.51598549 164.70121574 C-181.53772988 158.01223831 -181.54572464 151.32342021 -181.53601871 144.63441145 C-181.53148462 141.22437261 -181.53330745 137.81466225 -181.55278015 134.40466881 C-181.57049699 130.6993896 -181.56339258 126.99493777 -181.55024719 123.28965759 C-181.56121644 122.22328896 -181.57218568 121.15692033 -181.58348733 120.05823749 C-181.48196155 108.16467998 -177.5038021 98.77148429 -169.1796875 90.34375 C-161.15459341 82.9166041 -152.22377804 78.84695424 -141.1875 79.125 C-140.49914062 79.13402344 -139.81078125 79.14304687 -139.1015625 79.15234375 C-137.42172162 79.17567487 -135.74206254 79.21153674 -134.0625 79.25 C-134.36901707 76.31081954 -134.36901707 76.31081954 -135.0625 73.25 C-137.47108714 71.3875562 -137.47108714 71.3875562 -140.0625 70.25 C-141.7211352 68.5913648 -141.21527374 66.61684088 -141.23950195 64.3347168 C-141.25875481 62.76254646 -141.25875481 62.76254646 -141.27839661 61.15861511 C-141.28578354 60.01701431 -141.29317047 58.87541351 -141.30078125 57.69921875 C-141.308853 56.53373001 -141.31692474 55.36824127 -141.32524109 54.16743469 C-141.3391019 51.69505307 -141.34981507 49.22265215 -141.35766602 46.75024414 C-141.37487958 42.96398739 -141.41874951 39.17860323 -141.46289062 35.39257812 C-141.4730168 32.99479811 -141.48153314 30.59701065 -141.48828125 28.19921875 C-141.50578934 27.06369064 -141.52329742 25.92816254 -141.54133606 24.75822449 C-141.53841049 23.70065445 -141.53548492 22.64308441 -141.5324707 21.5534668 C-141.53833694 20.62382614 -141.54420319 19.69418549 -141.55024719 18.7363739 C-140.89079659 15.3747128 -139.83278986 14.23870635 -137.0625 12.25 C-134.14074707 11.74879456 -134.14074707 11.74879456 -130.70507812 11.74829102 C-129.41694214 11.73891006 -128.12880615 11.72952911 -126.80163574 11.71986389 C-125.3990004 11.73034222 -123.99637147 11.74171123 -122.59375 11.75390625 C-121.15173266 11.75375123 -119.70971489 11.75226176 -118.2677002 11.74949646 C-115.24810324 11.74811303 -112.2289816 11.76066022 -109.20947266 11.78344727 C-105.34227795 11.8118324 -101.47587282 11.80909416 -97.60861969 11.79635715 C-94.63170651 11.78939635 -91.65497527 11.79719371 -88.67808533 11.80961418 C-87.25236204 11.81412483 -85.8266192 11.81446885 -84.40089417 11.81054878 C-82.40720395 11.80763299 -80.41351757 11.82631649 -78.41992188 11.84594727 C-77.28615112 11.85135025 -76.15238037 11.85675323 -74.98425293 11.86231995 C-71.7346643 12.2934997 -70.36552059 12.95101024 -68.0625 15.25 C-67.0962052 18.14888441 -66.93073125 20.00968308 -66.91723633 23.02514648 C-66.91085648 23.99302597 -66.90447662 24.96090546 -66.89790344 25.95811462 C-66.89679062 27.00189774 -66.8956778 28.04568085 -66.89453125 29.12109375 C-66.88953865 30.73190575 -66.88953865 30.73190575 -66.88444519 32.3752594 C-66.87938046 34.64738537 -66.87703672 36.91951878 -66.87719727 39.19165039 C-66.87501087 42.67020906 -66.8568504 46.14845059 -66.83789062 49.62695312 C-66.83495662 51.83333225 -66.83297187 54.03971288 -66.83203125 56.24609375 C-66.82484573 57.28785263 -66.81766022 58.32961151 -66.81025696 59.40293884 C-66.81333359 60.37397049 -66.81641022 61.34500214 -66.81958008 62.34545898 C-66.81815506 63.19800766 -66.81673004 64.05055634 -66.81526184 64.92893982 C-67.09038283 67.51176273 -67.62391816 69.09042529 -69.0625 71.25 C-72.1875 72.5 -72.1875 72.5 -75.0625 73.25 C-75.0625 75.23 -75.0625 77.21 -75.0625 79.25 C-63.28747887 75.9864625 -63.28747887 75.9864625 -54.99958801 67.48103333 C-52.63273861 62.67666908 -50.74956809 57.84506456 -49.07421875 52.76171875 C-48.5272037 51.15151903 -47.97966095 49.54149849 -47.43164062 47.93164062 C-46.58992179 45.43924344 -45.75268387 42.94559767 -44.92504883 40.44848633 C-40.21727514 26.29438636 -35.18545067 12.18224035 -21.25 4.75 C-13.86374933 1.29260607 -8.08552954 0.05137747 0 0 Z " fill="#000000" transform="translate(181.0625,42.75)"/>
<path d="M0 0 C0.97453125 0.83144531 1.9490625 1.66289062 2.953125 2.51953125 C26.98715867 23.3364108 43.42054519 55.20282051 45.87109375 87.0078125 C47.21417319 118.18353524 40.83119908 148.38299943 22.375 174.1875 C20.33833735 177.08582762 19.98554412 177.61691912 20.125 181.3125 C20.558125 182.6428125 20.558125 182.6428125 21 184 C21 188 21 188 19.5625 190.25 C16.64748292 192.24074337 16.20138731 192.07969503 12.875 191.75 C7.33075714 191.51560924 4.81847456 194.05959629 0.78125 197.5859375 C-25.84737736 220.69898765 -60.2034345 231.05779416 -95.12451172 228.86669922 C-121.85336116 226.76806954 -147.85312034 215.58039818 -168 198 C-168.95390625 197.19046875 -169.9078125 196.3809375 -170.890625 195.546875 C-194.8804514 174.75311257 -210.60767606 143.69319536 -213.6875 112.125 C-215.95282067 76.58778198 -206.68872203 42.14692963 -183 15 C-182.19046875 14.04609375 -181.3809375 13.0921875 -180.546875 12.109375 C-159.57651122 -12.08419691 -127.72738904 -28.365744 -95.734375 -30.875 C-61.15177255 -32.45591897 -26.2404886 -23.48446095 0 0 Z M-136 8 C-137.01835937 8.57878906 -138.03671875 9.15757812 -139.0859375 9.75390625 C-145.76195909 13.78382964 -151.38088903 18.61883184 -157 24 C-157.75023437 24.67546875 -158.50046875 25.3509375 -159.2734375 26.046875 C-176.11881899 41.76923106 -187.82917636 66.85804017 -189.10644531 89.92211914 C-189.95629128 119.05632285 -182.02740566 145.69057459 -163 168 C-162.236875 169.010625 -161.47375 170.02125 -160.6875 171.0625 C-144.61614261 188.62886738 -122.93458646 198.42783164 -100 203 C-98.77990234 203.29197266 -98.77990234 203.29197266 -97.53515625 203.58984375 C-71.45391122 207.80945966 -44.35436474 199.15363997 -23 184.4375 C-1.13387792 168.63034032 13.91321191 145.28556754 19.58764648 118.81591797 C20.51728897 112.46748904 20.44097423 106.02922247 20.4375 99.625 C20.43810425 98.48916473 20.43810425 98.48916473 20.4387207 97.3303833 C20.38094171 78.49194149 16.3732064 63.37670457 7 47 C6.42121094 45.98164063 5.84242188 44.96328125 5.24609375 43.9140625 C1.21617036 37.23804091 -3.61883184 31.61911097 -9 26 C-9.67546875 25.24976563 -10.3509375 24.49953125 -11.046875 23.7265625 C-26.03136458 7.67175224 -50.5502497 -4.46719495 -72.58705139 -5.31730652 C-76.18335172 -5.41114388 -79.77756218 -5.43945158 -83.375 -5.4375 C-84.13222351 -5.43790283 -84.88944702 -5.43830566 -85.6696167 -5.4387207 C-104.50805851 -5.38094171 -119.62329543 -1.3732064 -136 8 Z " fill="#E2E6E7" transform="translate(340,194)"/>
<path d="M0 0 C27.69522163 -0.62548807 50.01388145 7.66570356 70.1875 26.875 C80.57142926 37.65430933 88.70264278 52.3478337 92 67 C92.20238281 67.75152344 92.40476562 68.50304687 92.61328125 69.27734375 C97.96751137 92.33331425 93.04405244 117.17316385 80.8828125 137.15234375 C67.20903781 157.83321874 47.2480332 171.73386273 23 177 C-1.26363213 181.34528989 -25.89059265 176.76353528 -46.3515625 163 C-66.38716372 147.86987047 -79.1699086 128.28094535 -83.625 103.52734375 C-84.0517663 99.51307323 -84.11045395 95.59432035 -84.0625 91.5625 C-84.05798828 90.83095703 -84.05347656 90.09941406 -84.04882812 89.34570312 C-84.03718148 87.56376581 -84.01925191 85.78187137 -84 84 C-66.11947977 84.28629654 -51.62091772 89.60584137 -36 98 C-35.25492188 98.28617187 -34.50984375 98.57234375 -33.7421875 98.8671875 C-31.03244665 100.62912662 -30.25589766 103.03702514 -28.9375 105.9375 C-27.26846336 109.58104683 -25.90153959 112.25343879 -23 115 C-23 115.66 -23 116.32 -23 117 C-22.43539062 117.268125 -21.87078125 117.53625 -21.2890625 117.8125 C-18.87038235 119.06724192 -16.65745333 120.51305972 -14.375 122 C-4.96503974 127.61031159 4.30779168 127.69211554 15 126 C21.48914784 124.23816147 26.04774943 121.45702551 31 117 C31.66 117 32.32 117 33 117 C33.2784375 116.42121094 33.556875 115.84242188 33.84375 115.24609375 C35.30776388 112.40214787 37.03551686 109.77480189 38.78125 107.09765625 C43.73867636 98.56516281 44.1716172 86.85119795 41.87109375 77.34765625 C40.51298694 73.68746705 38.5630623 70.48930062 36.4375 67.2265625 C35 65 35 65 34.0625 62.8359375 C32.7063068 60.49251543 31.46101235 60.05148226 29 59 C27.01320308 57.76763293 25.05598855 56.49575396 23.09765625 55.21875 C21.01227782 53.89485053 21.01227782 53.89485053 18.49609375 53.26953125 C14.9346914 51.45817638 13.70176584 48.63688636 12 45.1875 C11.65751221 44.51388428 11.31502441 43.84026855 10.9621582 43.14624023 C4.08622921 29.37332522 -0.32721258 15.51676486 0 0 Z " fill="#556267" transform="translate(251,204)"/>
<path d="M0 0 C23.57728019 20.00601569 40.05611362 44.61403505 48.75 74.375 C49.11967896 75.63219849 49.11967896 75.63219849 49.49682617 76.91479492 C59.48576325 112.64777447 53.12435889 151.48962529 35.51171875 183.74755859 C27.49177337 197.81798442 27.49177337 197.81798442 21.5 201.8125 C17.62398253 201.73003154 15.96891972 201.23332539 13.0625 198.625 C11.06000485 195.02050872 11.45438821 193.75622301 12.5 189.8125 C13.81186932 187.563179 15.13477157 185.49487664 16.625 183.375 C35.00872037 155.85250926 41.85017942 121.29102184 35.5 88.8125 C30.75805149 66.4450032 21.57118783 46.15429993 6.5 28.8125 C5.76394531 27.93207031 5.02789062 27.05164063 4.26953125 26.14453125 C-16.1195848 2.56233992 -47.37273776 -12.86464476 -78.3125 -15.875 C-113.93742207 -18.12499508 -148.25211457 -8.86774086 -175.5 14.8125 C-176.38042969 15.54855469 -177.26085937 16.28460938 -178.16796875 17.04296875 C-202.02661491 37.67110711 -217.90923699 69.63964665 -220.375 101.078125 C-221.95278861 135.5922509 -213.09822156 170.68735316 -189.5 196.8125 C-188.74332031 197.71097656 -187.98664063 198.60945312 -187.20703125 199.53515625 C-166.36206609 223.71259545 -134.35472562 239.19263179 -102.60693359 241.67480469 C-68.92874211 243.87578962 -34.23251854 234.34006587 -8.5 211.8125 C-0.69419525 205.00511214 -0.69419525 205.00511214 4.375 204.1875 C7.5 204.8125 7.5 204.8125 9.4375 205.8125 C11.24181291 209.20885371 11.47277875 212.17115252 10.5 215.8125 C-0.37590981 232.2606352 -25.54106766 243.49498572 -43.5 249.8125 C-44.13905273 250.03921387 -44.77810547 250.26592773 -45.43652344 250.49951172 C-70.23432971 259.14603402 -97.88651412 261.37397941 -123.5 254.8125 C-124.18771484 254.64089355 -124.87542969 254.46928711 -125.58398438 254.29248047 C-164.12142516 244.5006103 -196.4947372 220.08766067 -217.05224609 186.13623047 C-229.94441551 164.00605923 -236.92558627 138.5954137 -236.8125 113.0625 C-236.80758545 111.74354736 -236.8026709 110.42459473 -236.79760742 109.06567383 C-236.68032455 99.29029672 -235.92803285 90.29060415 -233.5 80.8125 C-233.32839355 80.12478516 -233.15678711 79.43707031 -232.97998047 78.72851562 C-223.41263647 41.07473282 -199.79154615 8.52070991 -166.48828125 -11.65625 C-113.53655342 -42.77313578 -48.31775258 -38.08990714 0 0 Z " fill="#020303" transform="translate(347.5,180.1875)"/>
<path d="M0 0 C0.71684967 -0.00885223 1.43369934 -0.01770447 2.17227173 -0.02682495 C12.66234041 -0.11459854 21.74530212 1.34215252 31.75 4.5625 C32.90677246 4.93145386 32.90677246 4.93145386 34.08691406 5.30786133 C49.57864415 10.58767126 62.19163867 19.14112666 73.75 30.5625 C74.46542969 31.20574219 75.18085938 31.84898437 75.91796875 32.51171875 C86.35860162 42.11876815 93.69451195 55.43182458 98.75 68.5625 C99.0068457 69.20977051 99.26369141 69.85704102 99.52832031 70.52392578 C103.75694788 81.70346168 104.24461676 92.99006442 104.3125 104.8125 C104.32135223 105.52934967 104.33020447 106.24619934 104.33932495 106.98477173 C104.54720644 131.82927514 94.76143915 154.78926239 78.75 173.5625 C77.986875 174.573125 77.22375 175.58375 76.4375 176.625 C57.51261658 197.31033769 30.05639873 208.33515212 2.4765625 209.81640625 C-24.18604504 210.78110414 -49.10733643 200.74190393 -69.25 183.5625 C-70.260625 182.799375 -71.27125 182.03625 -72.3125 181.25 C-92.87161513 162.44059679 -104.07159868 135.03810283 -105.44921875 107.59375 C-106.37471376 79.18232111 -95.45475986 53.22671781 -76.3828125 32.41015625 C-65.04083501 20.35698316 -51.6944015 11.50880396 -36.25 5.5625 C-35.60272949 5.3056543 -34.95545898 5.04880859 -34.28857422 4.78417969 C-23.10903832 0.55555212 -11.82243558 0.06788324 0 0 Z M-68.7265625 46.1875 C-86.08254163 66.22739343 -90.57028661 89.71043636 -89.25 115.5625 C-87.08202159 138.06194482 -74.99710253 158.71423251 -58.25 173.5625 C-48.07097946 181.88577853 -35.11334151 188.66770403 -22.25 191.5625 C-21.49847656 191.76488281 -20.74695313 191.96726562 -19.97265625 192.17578125 C3.08331425 197.53001137 27.92316385 192.60655244 47.90234375 180.4453125 C68.58321874 166.77153781 82.48386273 146.8105332 87.75 122.5625 C92.09528989 98.29886787 87.51353528 73.67190735 73.75 53.2109375 C59.08721422 33.79420164 39.28818523 19.92485149 15.00390625 15.94921875 C-18.25167726 12.33474421 -45.73986399 21.82304985 -68.7265625 46.1875 Z " fill="#030303" transform="translate(256.25,188.4375)"/>
<path d="M0 0 C1.42335642 -0.00643871 2.84671156 -0.01316784 4.27006531 -0.02017212 C7.24639958 -0.03210736 10.22261812 -0.03585686 13.19897461 -0.03466797 C16.98820889 -0.03446505 20.77669089 -0.06175468 24.56574726 -0.09621239 C27.50426045 -0.11859501 30.44259587 -0.12250206 33.38118553 -0.12144852 C34.77686337 -0.1237879 36.17254738 -0.1325163 37.56814003 -0.14811325 C46.92616145 -0.24290638 55.35615885 0.23047415 62.88671875 6.30078125 C63.40234375 6.95175781 63.91796875 7.60273437 64.44921875 8.2734375 C64.98546875 8.92183594 65.52171875 9.57023437 66.07421875 10.23828125 C70.22369161 16.56858501 69.81608885 22.81932973 69.82421875 30.1484375 C69.84871094 31.29892578 69.87320313 32.44941406 69.8984375 33.63476562 C69.92653447 41.80630243 68.86133817 47.29767658 63.5546875 53.578125 C62.92175781 54.11695313 62.28882813 54.65578125 61.63671875 55.2109375 C61.01152344 55.76523438 60.38632812 56.31953125 59.7421875 56.890625 C54.78042598 60.01814078 49.41831789 60.58883036 43.6628418 60.64233398 C42.35425705 60.65832138 41.0456723 60.67430878 39.69743347 60.69078064 C38.28527216 60.69715879 36.87310611 60.70255108 35.4609375 60.70703125 C33.99274106 60.71601353 32.52454546 60.72513563 31.05635071 60.73439026 C27.9858682 60.75082642 24.91549402 60.75857048 21.8449707 60.76147461 C17.93453558 60.7668525 14.0251363 60.80452959 10.1149931 60.85021877 C7.08383071 60.88014435 4.05291316 60.88720149 1.02161598 60.88820076 C-0.41874116 60.89237254 -1.85910112 60.90468286 -3.29931068 60.92571831 C-12.00144993 61.0427099 -19.36744231 60.67734675 -26.55078125 55.3359375 C-33.2775025 48.00866193 -33.76257375 42.92984867 -33.79101562 33.12451172 C-33.80067881 31.10732109 -33.83168155 29.09116834 -33.86328125 27.07421875 C-33.8684375 25.79417969 -33.87359375 24.51414062 -33.87890625 23.1953125 C-33.88825195 22.02452148 -33.89759766 20.85373047 -33.90722656 19.64746094 C-33.11855367 12.32036562 -28.91923415 8.36754511 -23.67578125 3.6484375 C-16.49898112 -0.78429199 -8.13467118 0.00867377 0 0 Z " fill="#060403" transform="translate(317.55078125,69.6640625)"/>
<path d="M0 0 C27.69522163 -0.62548807 50.01388145 7.66570356 70.1875 26.875 C80.55454104 37.63677807 88.73770782 52.35647796 92 67 C92.20238281 67.82113281 92.40476562 68.64226562 92.61328125 69.48828125 C94.38684217 77.63218345 94.18710411 85.71544598 94 94 C77.67537193 93.5427275 63.61433399 89.13646599 49 82 C48.36852051 81.70424072 47.73704102 81.40848145 47.08642578 81.10375977 C42.53671507 78.79060113 40.74903685 76.57319752 38.75 71.9375 C37.14909592 68.29949044 35.88151012 65.72048456 33 63 C33 62.34 33 61.68 33 61 C32.42121094 60.7215625 31.84242188 60.443125 31.24609375 60.15625 C28.40214787 58.69223612 25.77480189 56.96448314 23.09765625 55.21875 C21.01227782 53.89485053 21.01227782 53.89485053 18.49609375 53.26953125 C14.9346914 51.45817638 13.70176584 48.63688636 12 45.1875 C11.48626831 44.17707642 11.48626831 44.17707642 10.9621582 43.14624023 C4.08622921 29.37332522 -0.32721258 15.51676486 0 0 Z " fill="#6E7A7E" transform="translate(251,204)"/>
<path d="M0 0 C17.88052023 0.28629654 32.37908228 5.60584137 48 14 C48.74507812 14.28617187 49.49015625 14.57234375 50.2578125 14.8671875 C52.96755335 16.62912662 53.74410234 19.03702514 55.0625 21.9375 C56.73153664 25.58104683 58.09846041 28.25343879 61 31 C61 31.66 61 32.32 61 33 C61.55558594 33.26683594 62.11117187 33.53367187 62.68359375 33.80859375 C66.12054737 35.57633549 69.36947485 37.63626348 72.66015625 39.66015625 C75.03104625 41.11979157 75.03104625 41.11979157 78 42 C79.44311624 44.29654021 80.71026256 46.52947839 81.9375 48.9375 C82.29158936 49.62118652 82.64567871 50.30487305 83.01049805 51.00927734 C90.12961071 64.9326283 93.31886483 78.3338912 94 94 C69.25209182 94.88855521 47.58201818 88.61930103 28.875 71.75 C12.82279435 56.72415021 0.74543968 36.48614871 -0.07446289 13.95361328 C-0.09759405 11.82213801 -0.08785088 9.69392428 -0.0625 7.5625 C-0.05798828 6.83095703 -0.05347656 6.09941406 -0.04882812 5.34570312 C-0.03718148 3.56376581 -0.01925191 1.78187137 0 0 Z " fill="#6E7A7E" transform="translate(167,288)"/>
<path d="M0 0 C9.6407542 9.6407542 13.29743595 19.83017132 13.3125 33.3125 C12.61320002 42.35254154 8.77145381 51.85354619 2.3125 58.3125 C-8.63371914 67.03435375 -18.32926821 70.04838544 -32.4609375 69.1328125 C-43.30005247 67.45736571 -51.20509698 60.8176209 -57.8125 52.4375 C-64.58656313 43.01650218 -65.90824465 32.50010832 -64.125 21 C-61.32059307 9.63078273 -53.15505879 1.59403518 -43.6875 -4.6875 C-28.61893139 -12.35396473 -13.59189267 -8.53444424 0 0 Z " fill="#010101" transform="translate(281.6875,262.6875)"/>
<path d="M0 0 C5.94 0 11.88 0 18 0 C18.00364563 2.52685959 18.00729126 5.05371918 18.01104736 7.65715027 C18.04730752 31.47862003 18.10553953 55.29996411 18.18390274 79.12133312 C18.22366329 91.36791889 18.25607098 103.61444068 18.27099609 115.86108398 C18.28402803 126.53883835 18.31103219 137.21645175 18.35461307 147.89412671 C18.37719302 153.54463965 18.39291275 159.19497895 18.39188385 164.845541 C18.3911352 170.17175675 18.40916837 175.49758916 18.44116783 180.82370567 C18.44963692 182.77103424 18.45143726 184.71840595 18.44580269 186.66574478 C18.34032341 202.25770585 18.34032341 202.25770585 23 217 C23.29269921 217.69257758 23.58539842 218.38515517 23.8869673 219.09871995 C25.33750695 221.76299141 26.52260436 223.22170507 29 225 C34.65214859 226.22841059 40.24716447 226.07007688 46.00802612 226 C47.78276173 226.00761946 49.55748515 226.01874883 51.33217919 226.03308773 C56.2103399 226.06233138 61.08721883 226.04172203 65.96533632 226.01306796 C71.22506069 225.99087194 76.48459746 226.0147694 81.74430847 226.03309631 C90.85747886 226.05852862 99.9702612 226.0546942 109.08343124 226.03103638 C122.25949779 225.99687348 135.43524081 226.00676377 148.61132194 226.02743971 C169.98800389 226.05978619 191.36452577 226.05645715 212.74121094 226.03076172 C233.5078437 226.00587583 254.27437136 225.99774896 275.04101562 226.01220703 C276.32086039 226.01309224 277.60070515 226.01397745 278.91933309 226.01488948 C285.33987607 226.0194338 291.76041876 226.0243081 298.18096137 226.02934647 C351.45402311 226.07072423 404.72695571 226.05423324 458 226 C458 226.33 458 226.66 458 227 C402.86416533 227.04576651 347.72833258 227.08101366 292.59248266 227.10213066 C286.08484843 227.10463211 279.57721425 227.10722075 273.06958008 227.10986328 C271.77401406 227.1103879 270.47844804 227.11091252 269.14362245 227.11145304 C248.15935185 227.12015831 227.1750922 227.13592897 206.19082809 227.15430559 C184.66291908 227.17300123 163.1350158 227.18411602 141.607099 227.18817699 C128.32066147 227.19092274 115.03425487 227.19959856 101.74782687 227.21583293 C92.63982213 227.22639565 83.53183342 227.22960224 74.42382301 227.22700275 C69.16712013 227.22572036 63.91047136 227.22770185 58.65377808 227.23841095 C53.84032837 227.2481455 49.02696915 227.24863352 44.21351527 227.24179779 C42.47312258 227.24095296 40.73272423 227.24348826 38.99234266 227.24976636 C15.769028 227.32866197 15.769028 227.32866197 7 219 C0.68826804 212.15962043 -0.30850018 204.28521318 -0.24050903 195.29333496 C-0.24307231 194.03351484 -0.24307231 194.03351484 -0.24568737 192.74824381 C-0.24896308 189.95381857 -0.23801038 187.15963723 -0.22705078 184.36523438 C-0.22648625 182.35422776 -0.22680404 180.34322073 -0.22793579 178.33221436 C-0.22850868 172.88654447 -0.2167647 167.44096302 -0.20278788 161.99531364 C-0.19026986 156.29916713 -0.18910917 150.6030185 -0.18673706 144.90686035 C-0.18052545 134.12648682 -0.16411892 123.34615393 -0.14403808 112.56579828 C-0.12166918 100.29015672 -0.11068315 88.01451319 -0.10064721 75.73885632 C-0.07975243 50.49254759 -0.04417888 25.24627779 0 0 Z " fill="#35A0C7" transform="translate(15,227)"/>
<path d="M0 0 C7.71985604 5.4844301 15.14160784 13.4490829 17 23 C18.18754513 34.54557762 16.51628406 44.44994444 9.375 53.8125 C2.92125713 60.63502818 -4.59705857 64.66909696 -13.890625 65.23828125 C-22.01712333 65.44439146 -28.97429007 65.60255691 -36 61 C-36.69351563 60.57589844 -37.38703125 60.15179688 -38.1015625 59.71484375 C-45.50235669 54.73940346 -51.10626359 46.78439074 -53 38 C-53.95182002 27.9681192 -52.86061413 18.42599148 -46.82421875 10.16796875 C-35.26164926 -3.57341469 -16.4139264 -10.00777167 0 0 Z " fill="#010203" transform="translate(120,375)"/>
<path d="M0 0 C1.28813599 -0.00938095 2.57627197 -0.0187619 3.90344238 -0.02842712 C5.30607773 -0.0179488 6.70870666 -0.00657978 8.11132812 0.00561523 C9.55334547 0.00546021 10.99536323 0.00397074 12.43737793 0.00120544 C15.45697488 -0.00017798 18.47609652 0.0123692 21.49560547 0.03515625 C25.36280017 0.06354138 29.2292053 0.06080314 33.09645844 0.04806614 C36.07337162 0.04110533 39.05010285 0.0489027 42.0269928 0.06132317 C43.45271608 0.06583381 44.87845893 0.06617783 46.30418396 0.06225777 C48.29787418 0.05934198 50.29156055 0.07802547 52.28515625 0.09765625 C53.418927 0.10305923 54.55269775 0.10846222 55.7208252 0.11402893 C58.97041383 0.54520868 60.33955753 1.20271922 62.64257812 3.50170898 C63.60887293 6.40059339 63.77434688 8.26139207 63.7878418 11.27685547 C63.79422165 12.24473495 63.8006015 13.21261444 63.80717468 14.20982361 C63.80828751 15.25360672 63.80940033 16.29738983 63.81054688 17.37280273 C63.81553947 18.98361473 63.81553947 18.98361473 63.82063293 20.62696838 C63.82569767 22.89909435 63.8280414 25.17122777 63.82788086 27.44335938 C63.83006726 30.92191804 63.84822773 34.40015958 63.8671875 37.87866211 C63.8701215 40.08504123 63.87210625 42.29142186 63.87304688 44.49780273 C63.88023239 45.53956161 63.88741791 46.5813205 63.89482117 47.65464783 C63.89174454 48.62567947 63.88866791 49.59671112 63.88549805 50.59716797 C63.88692307 51.44971664 63.88834808 52.30226532 63.88981628 53.1806488 C63.6155138 55.75578759 63.05473753 57.33661821 61.64257812 59.50170898 C58.40166253 61.08615661 56.50970028 61.68319967 52.95507812 60.93920898 C49.96755262 59.08209853 49.12474171 57.71020989 47.64257812 54.50170898 C47.24337318 51.48950055 47.29257892 48.51616815 47.34960938 45.48217773 C47.35263062 44.72054321 47.35565186 43.95890869 47.35876465 43.17419434 C47.37438843 40.34572683 47.41627233 37.51745343 47.45507812 34.68920898 C47.51695313 28.35733398 47.57882813 22.02545898 47.64257812 15.50170898 C33.45257813 15.50170898 19.26257813 15.50170898 4.64257812 15.50170898 C4.80074078 28.81502364 4.80074078 28.81502364 5.00292969 42.12768555 C5.01461436 43.79922465 5.02480671 45.47077513 5.03320312 47.14233398 C5.05366699 48.00713379 5.07413086 48.87193359 5.09521484 49.76293945 C5.09877274 55.88607233 5.09877274 55.88607233 2.77050781 59.02807617 C0.24016418 60.78038849 -1.26992859 61.42640427 -4.35742188 61.50170898 C-6.64060567 60.36011709 -8.5475487 59.31158216 -10.35742188 57.50170898 C-10.47174477 55.86621004 -10.51701914 54.22582311 -10.53442383 52.58642578 C-10.54725906 51.53831223 -10.5600943 50.49019867 -10.57331848 49.4103241 C-10.58070541 48.2687233 -10.58809235 47.1271225 -10.59570312 45.95092773 C-10.60377487 44.785439 -10.61184662 43.61995026 -10.62016296 42.41914368 C-10.63402377 39.94676205 -10.64473694 37.47436114 -10.65258789 35.00195312 C-10.66980145 31.21569638 -10.71367139 27.43031221 -10.7578125 23.64428711 C-10.76793867 21.2465071 -10.77645501 18.84871963 -10.78320312 16.45092773 C-10.80946526 14.74763557 -10.80946526 14.74763557 -10.83625793 13.00993347 C-10.83333237 11.95236343 -10.8304068 10.8947934 -10.82739258 9.80517578 C-10.83619194 8.4107148 -10.83619194 8.4107148 -10.84516907 6.98808289 C-9.64468975 0.86843629 -5.63056711 0.00082523 0 0 Z " fill="#000000" transform="translate(50.357421875,54.498291015625)"/>
<path d="M0 0 C14.19 0 28.38 0 43 0 C43.3125 19.1875 43.3125 19.1875 43.38793945 25.21948242 C43.42024057 26.80650161 43.45361587 28.39349945 43.48828125 29.98046875 C43.49452515 30.79696899 43.50076904 31.61346924 43.50720215 32.45471191 C43.62397578 37.08814816 43.97219876 40.25083306 47 44 C49.08533633 44.87822312 49.08533633 44.87822312 51 45 C51 47.31 51 49.62 51 52 C31.53 52 12.06 52 -8 52 C-8 49.69 -8 47.38 -8 45 C-7.21625 44.71125 -6.4325 44.4225 -5.625 44.125 C-2.90328368 43.15087746 -2.90328368 43.15087746 -1 41 C-0.67110612 39.14463576 -0.67110612 39.14463576 -0.68115234 37.00927734 C-0.66109131 36.17710693 -0.64103027 35.34493652 -0.62036133 34.48754883 C-0.60900146 33.61251709 -0.5976416 32.73748535 -0.5859375 31.8359375 C-0.56829346 31.03196533 -0.55064941 30.22799316 -0.5324707 29.3996582 C-0.4693259 26.39164359 -0.42319296 23.38329131 -0.375 20.375 C-0.189375 10.289375 -0.189375 10.289375 0 0 Z " fill="#E4E8E9" transform="translate(55,70)"/>
<path d="M0 0 C1.30823227 -0.01268417 2.61646454 -0.02536835 3.96434021 -0.03843689 C5.39427854 -0.03638538 6.82421579 -0.0333973 8.25415039 -0.02954102 C9.72001895 -0.03410174 11.18588536 -0.03940699 12.65174866 -0.04542542 C15.72430099 -0.05436212 18.79659349 -0.05192751 21.86914062 -0.04199219 C25.80484005 -0.0305054 29.73964187 -0.05070546 33.67522335 -0.07990932 C36.70274037 -0.09826523 39.73004208 -0.09798011 42.75760078 -0.0922718 C44.20846376 -0.09211849 45.65934123 -0.09817118 47.11015129 -0.11056328 C49.13979037 -0.12545575 51.16957697 -0.11217523 53.19921875 -0.09765625 C54.3537706 -0.09749008 55.50832245 -0.09732391 56.69786072 -0.09715271 C60.28863697 0.50953848 61.46215246 1.56074101 63.66430664 4.40405273 C64.16601562 6.52294922 64.16601562 6.52294922 64.16040039 8.77514648 C64.16104492 9.59692383 64.16168945 10.41870117 64.16235352 11.26538086 C64.14237305 12.11551758 64.12239258 12.9656543 64.10180664 13.84155273 C64.10889648 14.68782227 64.11598633 15.5340918 64.12329102 16.40600586 C64.07491755 21.15776818 63.8600752 24.62176665 60.66430664 28.40405273 C57.42081036 29.48521816 55.01718935 29.55052195 51.60400391 29.58105469 C50.35583389 29.59388992 49.10766388 29.60672516 47.82167053 29.61994934 C46.45802202 29.62811549 45.09436902 29.63555946 43.73071289 29.64233398 C43.04340528 29.64640951 42.35609768 29.65048504 41.64796257 29.65468407 C38.01238177 29.6755192 34.37683847 29.6898338 30.74121094 29.69921875 C26.98718607 29.71029827 23.23375149 29.74472215 19.47993565 29.78439045 C16.59143469 29.81052869 13.7030753 29.81890786 10.81446648 29.82250023 C9.43056168 29.82737087 8.0466634 29.83899866 6.66287422 29.85753822 C4.72672924 29.88187275 2.79029652 29.87855045 0.85400391 29.87402344 C-0.24725327 29.87988968 -1.34851044 29.88575592 -2.48313904 29.89179993 C-6.00429066 29.28973188 -7.17398878 28.19376565 -9.33569336 25.40405273 C-9.83740234 22.97802734 -9.83740234 22.97802734 -9.83178711 20.30639648 C-9.83243164 19.34024414 -9.83307617 18.3740918 -9.83374023 17.37866211 C-9.81375977 16.37641602 -9.7937793 15.37416992 -9.77319336 14.34155273 C-9.78382813 12.83238281 -9.78382813 12.83238281 -9.79467773 11.29272461 C-9.73109279 3.97067367 -9.73109279 3.97067367 -8.2064209 1.7857666 C-5.47873307 -0.22889562 -3.36734363 0.01576911 0 0 Z " fill="#E0E4E5" transform="translate(308.335693359375,85.595947265625)"/>
<path d="M0 0 C6.98242443 3.89130404 11.40269347 9.24355081 13.75 16.9375 C14.91809656 24.6209796 13.1185495 30.56624015 8.75 36.9375 C4.35966502 41.89096583 -0.92524577 45.28002047 -7.5625 46.2890625 C-15.14499435 46.7392731 -21.41917249 44.33282291 -27.10546875 39.29296875 C-32.36825943 33.53638536 -34.93420542 27.38686796 -34.66015625 19.55859375 C-33.53713241 12.38193662 -29.80685016 6.48482388 -24.05859375 2.12109375 C-16.23197592 -3.00086133 -8.51778418 -3.8810355 0 0 Z " fill="#414E52" transform="translate(266.25,271.0625)"/>
<path d="M0 0 C1.62380777 0.00747262 3.24762464 0.01316072 4.8714447 0.01715088 C9.11800616 0.0323271 13.36400886 0.0715381 17.61035156 0.1159668 C21.95435023 0.15709389 26.29844034 0.1751989 30.64257812 0.1953125 C39.146088 0.23804159 47.64914611 0.30619371 56.15234375 0.390625 C56.15234375 0.720625 56.15234375 1.050625 56.15234375 1.390625 C55.35134247 1.38538818 54.55034119 1.38015137 53.72506714 1.37475586 C46.1623634 1.33240692 38.60106192 1.3284701 31.03837395 1.36727905 C27.15050773 1.38588606 23.26379587 1.38983332 19.37597656 1.35986328 C15.62112276 1.3314645 11.86819326 1.34211604 8.11343765 1.37942505 C6.68378212 1.3868504 5.25398251 1.38039318 3.82445908 1.35958862 C-4.08633386 1.01271797 -4.08633386 1.01271797 -11.03240967 4.10864258 C-12.60329952 6.14942653 -13.75987301 8.0613787 -14.84765625 10.390625 C-15.16735382 11.01670654 -15.48705139 11.64278809 -15.81643677 12.2878418 C-18.21657132 17.38067261 -18.95986537 22.24999961 -19.05297852 27.82348633 C-19.07292374 28.88420853 -19.09286896 29.94493073 -19.11341858 31.03779602 C-19.13848732 32.73805183 -19.13848732 32.73805183 -19.1640625 34.47265625 C-19.1848436 35.64197189 -19.20562469 36.81128754 -19.22703552 38.01603699 C-19.29233039 41.74500753 -19.35132284 45.47404747 -19.41015625 49.203125 C-19.45336054 51.73373109 -19.49697544 54.2643302 -19.54101562 56.79492188 C-19.64799129 62.99341876 -19.74931534 69.19198535 -19.84765625 75.390625 C-25.78765625 75.390625 -31.72765625 75.390625 -37.84765625 75.390625 C-37.97177737 67.74094477 -38.06224495 60.0918581 -38.12231445 52.44140625 C-38.14737074 49.84201844 -38.18142517 47.24270047 -38.22485352 44.64355469 C-38.28589309 40.89500641 -38.3139566 37.14739422 -38.3359375 33.3984375 C-38.36174393 32.24699249 -38.38755035 31.09554749 -38.41413879 29.90921021 C-38.41698101 21.62775556 -36.81559973 14.97158374 -31.28999329 8.59231567 C-22.04959894 -0.01663353 -11.95724303 -0.16247248 0 0 Z " fill="#DA9548" transform="translate(52.84765625,136.609375)"/>
<path d="M0 0 C5.44407395 2.39033808 8.70896559 6.33461503 11.70703125 11.38671875 C13.53215018 16.86207555 13.53420197 22.26383938 11.14453125 27.57421875 C8.31841637 32.62085246 4.21443533 36.55091739 -1.29296875 38.38671875 C-7.85493354 38.93006615 -13.53081477 38.8892045 -19.29296875 35.38671875 C-24.3554022 30.64068739 -27.28442656 26.08584942 -27.66796875 19.07421875 C-27.52012941 14.12981405 -26.29792185 10.33798304 -23.29296875 6.38671875 C-16.21774845 -0.0452997 -9.57656462 -2.56136396 0 0 Z " fill="#546166" transform="translate(109.29296875,386.61328125)"/>
<path d="M0 0 C0.99386719 0.00902344 1.98773438 0.01804688 3.01171875 0.02734375 C4.15060547 0.04474609 4.15060547 0.04474609 5.3125 0.0625 C4.260625 0.990625 4.260625 0.990625 3.1875 1.9375 C-6.26017221 11.62107533 -9.38498715 25.22655175 -13.35668945 37.76757812 C-17.5222026 50.83305991 -21.7218472 62.30955584 -34.6875 69.0625 C-40.1403937 71.36215499 -44.77691758 72.43977122 -50.6875 72.0625 C-49.388125 70.6084375 -49.388125 70.6084375 -48.0625 69.125 C-46.92947814 67.77753801 -45.80463887 66.42315907 -44.6875 65.0625 C-44.22682129 64.51392334 -43.76614258 63.96534668 -43.29150391 63.40014648 C-37.27255101 55.35318411 -34.78505489 45.49028155 -31.6875 36.0625 C-22.6048738 8.41843269 -22.6048738 8.41843269 -13.5 3.5625 C-12.66082031 3.0984375 -11.82164062 2.634375 -10.95703125 2.15625 C-7.11465548 0.30450264 -4.22009848 -0.04964822 0 0 Z " fill="#DE974A" transform="translate(180.6875,57.9375)"/>
<path d="M0 0 C14.19 0 28.38 0 43 0 C43 0.33 43 0.66 43 1 C35.08 1 27.16 1 19 1 C19 17.83 19 34.66 19 52 C10.09 52 1.18 52 -8 52 C-8 49.69 -8 47.38 -8 45 C-7.21625 44.71125 -6.4325 44.4225 -5.625 44.125 C-2.90328368 43.15087746 -2.90328368 43.15087746 -1 41 C-0.67110612 39.14463576 -0.67110612 39.14463576 -0.68115234 37.00927734 C-0.66109131 36.17710693 -0.64103027 35.34493652 -0.62036133 34.48754883 C-0.60900146 33.61251709 -0.5976416 32.73748535 -0.5859375 31.8359375 C-0.56829346 31.03196533 -0.55064941 30.22799316 -0.5324707 29.3996582 C-0.4693259 26.39164359 -0.42319296 23.38329131 -0.375 20.375 C-0.189375 10.289375 -0.189375 10.289375 0 0 Z " fill="#CBCBCB" transform="translate(55,70)"/>
<path d="M0 0 C3.3 0 6.6 0 10 0 C6.55549263 2.29633824 4.06187717 2.54016485 0 3 C0 2.01 0 1.02 0 0 Z " fill="#E39D4E" transform="translate(193,50)"/>
</svg>
