<svg width="224" height="220" viewBox="0 0 224 220" fill="none" xmlns="http://www.w3.org/2000/svg">
<g clip-path="url(#clip0_3_821)">
<path opacity="0.1" d="M217.865 122.943C211.518 142.227 197.839 163.37 177.704 170.25C147.287 180.654 144.558 205.654 89.3671 205.484C81.3076 205.495 73.2707 204.63 65.3972 202.904C61.5479 202.047 57.757 200.944 54.0475 199.603C21.3442 187.78 3.4397 159.663 0.875193 129.617C-2.48925 90.0959 24.3416 70.1611 41.8132 58.4039C59.2848 46.6468 79.2361 3.01369 133.51 2.7543C141.795 2.67986 150.06 3.56448 158.143 5.39059C176.57 9.63505 195.533 19.8548 206.925 35.432C207.777 36.6015 208.595 37.79 209.386 39.0256C224.768 62.9974 226.523 96.6465 217.865 122.943Z" fill="#3382EB"/>
<path opacity="0.1" d="M217.865 122.943C211.518 142.227 197.839 163.37 177.704 170.25C147.287 180.654 144.558 205.654 89.3671 205.484C81.3076 205.495 73.2707 204.63 65.3972 202.904C61.5479 202.047 57.757 200.944 54.0475 199.603C21.3442 187.78 3.4397 159.663 0.875193 129.617C-2.48925 90.0959 24.3416 70.1611 41.8132 58.4039C59.2848 46.6468 79.2361 3.01369 133.51 2.7543C141.795 2.67986 150.06 3.56448 158.143 5.39059C176.57 9.63505 195.533 19.8548 206.925 35.432C207.777 36.6015 208.595 37.79 209.386 39.0256C224.768 62.9974 226.523 96.6465 217.865 122.943Z" fill="#DBFDFF"/>
<path d="M7.38766 6.1074L3.95264 10.1019H65.3502V6.1074" stroke="black" stroke-width="0.471607" stroke-linecap="round" stroke-linejoin="round"/>
<path d="M7.38766 11.8751L3.95264 15.8697H65.3502V11.8751" stroke="black" stroke-width="0.471607" stroke-linecap="round" stroke-linejoin="round"/>
<path d="M7.38766 17.6475L3.95264 21.642H65.3502V17.6475" stroke="black" stroke-width="0.471607" stroke-linecap="round" stroke-linejoin="round"/>
<path d="M7.38766 23.4152L3.95264 27.4098H65.3502V23.4152" stroke="black" stroke-width="0.471607" stroke-linecap="round" stroke-linejoin="round"/>
<path d="M7.38766 29.183L3.95264 33.1775H65.3502V29.183" stroke="black" stroke-width="0.471607" stroke-linecap="round" stroke-linejoin="round"/>
<path d="M7.38766 34.9556L3.95264 38.9501H65.3502V34.9556" stroke="black" stroke-width="0.471607" stroke-linecap="round" stroke-linejoin="round"/>
<path d="M7.38766 40.7233L3.95264 44.7178H65.3502V40.7233" stroke="black" stroke-width="0.471607" stroke-linecap="round" stroke-linejoin="round"/>
<path d="M7.38766 46.4957L3.95264 50.4902H65.3502V46.4957" stroke="black" stroke-width="0.471607" stroke-linecap="round" stroke-linejoin="round"/>
<path d="M7.38766 52.2634L3.95264 56.2579H65.3502V52.2634" stroke="black" stroke-width="0.471607" stroke-linecap="round" stroke-linejoin="round"/>
<path d="M7.38766 58.036L3.95264 62.0305H65.3502V58.036" stroke="black" stroke-width="0.471607" stroke-linecap="round" stroke-linejoin="round"/>
<path d="M7.38766 63.8037L3.95264 67.7983H65.3502V63.8037" stroke="black" stroke-width="0.471607" stroke-linecap="round" stroke-linejoin="round"/>
<path d="M7.38766 69.5715L3.95264 73.566H65.3502V69.5715" stroke="black" stroke-width="0.471607" stroke-linecap="round" stroke-linejoin="round"/>
<path d="M7.38766 75.3438L3.95264 79.3384H65.3502V75.3438" stroke="black" stroke-width="0.471607" stroke-linecap="round" stroke-linejoin="round"/>
<path d="M7.38766 81.1118L3.95264 85.1063H65.3502V81.1118" stroke="black" stroke-width="0.471607" stroke-linecap="round" stroke-linejoin="round"/>
<path d="M7.38766 86.8842L3.95264 90.874H65.3502V86.8842" stroke="black" stroke-width="0.471607" stroke-linecap="round" stroke-linejoin="round"/>
<path d="M7.38766 92.6519L3.95264 96.6464H65.3502V92.6519" stroke="black" stroke-width="0.471607" stroke-linecap="round" stroke-linejoin="round"/>
<path d="M7.38766 98.4197L3.95264 102.414H65.3502V98.4197" stroke="black" stroke-width="0.471607" stroke-linecap="round" stroke-linejoin="round"/>
<path d="M68.2723 0.235804H3.86316V6.16391H68.2723V0.235804Z" stroke="black" stroke-width="0.471607" stroke-linecap="round" stroke-linejoin="round"/>
<path d="M66.8184 6.43739V65.0582" stroke="black" stroke-width="0.471607" stroke-linecap="round" stroke-linejoin="round"/>
<path d="M67.9524 65.2421H65.8538V69.3733H67.9524V65.2421Z" stroke="black" stroke-width="0.471607" stroke-linecap="round" stroke-linejoin="round"/>
<path d="M27.0143 123.806C27.0216 123.798 27.0256 123.787 27.0256 123.776C27.0256 123.764 27.0216 123.754 27.0143 123.745C27.0036 123.742 26.9921 123.742 26.9817 123.746C26.9714 123.751 26.9629 123.759 26.9578 123.769C25.6402 126.929 24.5995 130.199 23.8475 133.54C23.0786 136.882 22.4973 140.264 22.1064 143.67L21.8665 146.231C21.8288 146.66 21.7818 147.085 21.7488 147.514L21.6829 148.797C21.6453 149.655 21.5935 150.509 21.5653 151.367L21.5888 153.937L21.6171 155.225C21.6406 155.654 21.6688 156.083 21.6971 156.508C21.7629 157.366 21.8147 158.22 21.8947 159.073C22.0547 160.776 22.3135 162.473 22.577 164.162C22.577 164.167 22.5781 164.172 22.5802 164.177C22.5824 164.182 22.5856 164.187 22.5896 164.19C22.5936 164.194 22.5984 164.197 22.6035 164.198C22.6086 164.2 22.614 164.2 22.6193 164.2C22.631 164.2 22.6424 164.195 22.6511 164.187C22.6598 164.18 22.6652 164.169 22.6664 164.157C22.6664 163.299 22.6241 162.445 22.6052 161.596C22.5864 160.747 22.5064 159.894 22.5205 159.04C22.5346 158.187 22.5205 157.338 22.4923 156.489L22.4688 155.211V153.937V151.386L22.5393 148.839L22.5629 147.566C22.5629 147.141 22.6099 146.717 22.6335 146.293L22.7887 143.746C23.0806 140.354 23.5613 136.982 24.2286 133.644C24.8721 130.29 25.8042 126.999 27.0143 123.806Z" fill="black"/>
<path d="M27.3908 137.139C27.393 137.127 27.3914 137.116 27.3863 137.105C27.3812 137.095 27.3729 137.087 27.3626 137.082C27.3571 137.08 27.3511 137.079 27.3452 137.079C27.3392 137.079 27.3334 137.081 27.3281 137.083C27.3227 137.086 27.318 137.09 27.3142 137.095C27.3105 137.099 27.3077 137.105 27.3061 137.11C25.8509 141.361 24.8847 145.765 24.4264 150.235C24.2005 152.466 23.9558 154.701 23.9182 156.941C23.8642 159.186 23.9443 161.432 24.1582 163.666C24.159 163.677 24.1631 163.686 24.1699 163.694C24.1767 163.702 24.1858 163.707 24.1958 163.709C24.202 163.71 24.2082 163.709 24.2142 163.707C24.2202 163.705 24.2257 163.702 24.2305 163.699C24.2353 163.695 24.2393 163.69 24.2422 163.684C24.2452 163.679 24.247 163.673 24.2476 163.666C24.5064 161.436 24.6616 159.205 24.8169 156.979C24.9722 154.753 24.9957 152.522 25.1416 150.296C25.2772 148.075 25.538 145.863 25.9227 143.67C26.2919 141.468 26.782 139.287 27.3908 137.139Z" fill="black"/>
<path d="M34.7549 141.826C34.7462 141.818 34.7343 141.813 34.722 141.813C34.7097 141.813 34.6979 141.818 34.6891 141.826C32.8403 143.007 31.1742 144.453 29.7436 146.118C29.0257 146.958 28.3803 147.857 27.8143 148.806L27.419 149.556L27.1085 150.334C27.0042 150.592 26.9132 150.855 26.8356 151.122C26.7556 151.386 26.6709 151.655 26.5956 151.919C26.0333 154.05 25.6926 156.234 25.5792 158.436C25.4676 160.628 25.5495 162.824 25.8239 165.001C25.8247 165.011 25.8288 165.021 25.8356 165.029C25.8424 165.036 25.8515 165.042 25.8615 165.044C25.8738 165.044 25.8857 165.04 25.8952 165.032C25.9046 165.024 25.9111 165.013 25.9133 165.001L26.4732 158.502C26.6285 156.352 26.9034 154.213 27.2967 152.093C27.3532 151.834 27.4285 151.574 27.4943 151.32C27.5547 151.059 27.6301 150.803 27.7202 150.551L28.0025 149.801L28.3413 149.094C28.8526 148.148 29.4446 147.249 30.1106 146.406C31.4235 144.681 32.982 143.159 34.7361 141.888C34.7457 141.881 34.7527 141.871 34.7561 141.86C34.7595 141.849 34.7591 141.837 34.7549 141.826Z" fill="black"/>
<path d="M31.1835 150.174C30.2263 150.876 29.4569 151.804 28.9437 152.876C28.4023 153.926 27.9808 155.033 27.6873 156.177C27.5992 156.46 27.5254 156.746 27.4661 157.036L27.2638 157.899C27.1564 158.479 27.0841 159.064 27.0473 159.653C27.0473 160.243 27.0191 160.832 27.0473 161.417C27.0888 162.006 27.1658 162.592 27.2779 163.171C27.2802 163.18 27.2849 163.189 27.2915 163.195C27.2982 163.202 27.3065 163.207 27.3156 163.209C27.3215 163.21 27.3276 163.21 27.3336 163.209C27.3395 163.208 27.3451 163.206 27.35 163.202C27.3549 163.198 27.359 163.194 27.362 163.189C27.365 163.183 27.3668 163.177 27.3673 163.171C27.5027 162.602 27.6063 162.026 27.6779 161.445C27.7673 160.875 27.8567 160.304 27.9273 159.738C27.9979 159.172 28.0826 158.606 28.1296 158.035C28.1767 157.465 28.2472 156.894 28.3743 156.338C28.5644 155.213 28.8801 154.114 29.3154 153.06C29.7091 151.98 30.3544 151.01 31.1976 150.23C31.2016 150.227 31.2048 150.222 31.207 150.218C31.2092 150.213 31.2104 150.207 31.2104 150.202C31.2104 150.197 31.2092 150.191 31.207 150.187C31.2048 150.182 31.2016 150.177 31.1976 150.174C31.1929 150.173 31.1882 150.173 31.1835 150.174Z" fill="black"/>
<path d="M20.8454 156.682C20.6007 153.801 20.1254 150.943 19.6784 148.089C19.2314 145.236 18.7373 142.388 18.2103 139.544C17.6833 136.7 17.1092 133.885 16.4975 131.055C16.4944 131.045 16.4884 131.037 16.4804 131.031C16.4723 131.026 16.4627 131.022 16.4528 131.022C16.4429 131.022 16.4332 131.026 16.4252 131.031C16.4172 131.037 16.4112 131.045 16.4081 131.055C16.9022 133.885 17.3492 136.752 17.768 139.605C18.1868 142.458 18.6056 145.316 18.9679 148.174C19.3302 151.032 19.5937 153.909 19.9513 156.762L21.0054 165.364C21.0054 165.376 21.0098 165.386 21.0178 165.394C21.0257 165.402 21.0365 165.407 21.0477 165.407C21.0591 165.406 21.07 165.401 21.0785 165.394C21.087 165.386 21.0927 165.376 21.0948 165.364C21.1277 164.638 21.1277 163.917 21.1465 163.19C21.1654 162.464 21.1136 161.742 21.1042 161.021C21.076 159.568 20.9536 158.13 20.8454 156.682Z" fill="black"/>
<path d="M19.1185 156.644C18.9632 155.498 18.7562 154.362 18.535 153.23L18.1351 151.546C17.9986 150.985 17.8763 150.424 17.7116 149.867C17.1378 147.63 16.4018 145.437 15.5094 143.307L15.1565 142.515L14.7706 141.737C14.5306 141.213 14.2342 140.718 13.9519 140.214C13.3897 139.201 12.6915 138.272 11.8767 137.45C11.8728 137.446 11.868 137.443 11.8628 137.44C11.8575 137.438 11.8518 137.437 11.8461 137.437C11.8404 137.437 11.8348 137.438 11.8295 137.44C11.8242 137.443 11.8195 137.446 11.8155 137.45C11.8114 137.454 11.8081 137.459 11.8059 137.464C11.8036 137.469 11.8025 137.475 11.8025 137.481C11.8025 137.486 11.8036 137.492 11.8059 137.497C11.8081 137.503 11.8114 137.507 11.8155 137.511C12.5684 138.364 13.2017 139.316 13.6978 140.341C13.9519 140.85 14.2154 141.355 14.4271 141.888L14.7659 142.671L15.0671 143.472C15.8631 145.611 16.5032 147.805 16.9822 150.037C17.2457 151.145 17.4198 152.277 17.6363 153.395L17.9045 155.088C18.0033 155.649 18.1209 156.206 18.2009 156.772C18.3797 157.899 18.5868 159.026 18.7844 160.153C18.982 161.28 19.1656 162.417 19.4008 163.544C19.403 163.555 19.409 163.564 19.4176 163.571C19.4261 163.578 19.4369 163.582 19.4479 163.582C19.4591 163.582 19.4699 163.577 19.4778 163.569C19.4858 163.561 19.4902 163.551 19.4902 163.539C19.4902 162.385 19.4636 161.233 19.4103 160.082C19.3914 158.936 19.2361 157.79 19.1185 156.644Z" fill="black"/>
<path d="M16.7375 156.791C16.2011 155.277 15.5847 153.796 14.9118 152.343C14.2337 150.893 13.4684 149.485 12.6202 148.127C12.6113 148.121 12.6006 148.117 12.5896 148.117C12.5786 148.117 12.5679 148.121 12.559 148.127C12.5517 148.136 12.5477 148.147 12.5477 148.158C12.5477 148.169 12.5517 148.18 12.559 148.188C13.2974 149.597 13.951 151.049 14.5165 152.537C15.1 154.008 15.627 155.508 16.0646 157.026C16.5022 158.545 16.841 160.097 17.241 161.625C17.641 163.153 18.008 164.69 18.4786 166.232C18.4814 166.241 18.487 166.249 18.4946 166.255C18.5022 166.261 18.5113 166.265 18.5209 166.265C18.5326 166.265 18.5439 166.261 18.5526 166.253C18.5613 166.245 18.5668 166.234 18.568 166.223C18.5864 164.611 18.4366 163.002 18.1209 161.422C17.7834 159.844 17.3208 158.295 16.7375 156.791Z" fill="black"/>
<path d="M16.6387 161.832C16.3447 160.887 15.9168 159.99 15.3682 159.167C14.8589 158.324 14.2384 157.553 13.5237 156.875C13.1533 156.544 12.7549 156.246 12.3332 155.984C11.9221 155.717 11.4732 155.513 11.0015 155.38C10.991 155.378 10.9801 155.38 10.9707 155.385C10.9612 155.39 10.9539 155.399 10.9497 155.409C10.9428 155.416 10.939 155.426 10.939 155.437C10.939 155.447 10.9428 155.457 10.9497 155.465C11.8001 155.872 12.5528 156.457 13.1566 157.182C13.7723 157.887 14.29 158.672 14.6953 159.516C15.133 160.346 15.3588 161.261 15.74 162.115C15.9047 162.553 16.0741 162.992 16.267 163.431C16.4312 163.886 16.6245 164.33 16.8458 164.761C16.8496 164.767 16.8551 164.773 16.8616 164.777C16.8682 164.781 16.8757 164.784 16.8834 164.784C16.8956 164.784 16.9076 164.78 16.917 164.772C16.9265 164.765 16.9329 164.754 16.9352 164.742C16.9493 164.249 16.9305 163.756 16.8787 163.266C16.8552 162.789 16.7517 162.308 16.6387 161.832Z" fill="black"/>
<path d="M16.8128 135.181C15.3757 134.78 14.0754 133.992 13.0528 132.903C12.0302 131.814 11.3241 130.465 11.0109 129.003C9.91924 123.91 13.4296 126.094 10.2863 118.09C7.14299 110.087 7.86763 108.276 8.95461 105.97C10.0416 103.664 10.6486 104.395 11.6132 107.427C12.5779 110.46 16.0976 115.185 17.4198 124.033C18.7421 132.88 16.8128 135.181 16.8128 135.181Z" fill="#3382EB"/>
<path d="M26.1298 126.579C26.1298 126.579 22.9818 125.485 22.8641 119.548C22.7465 113.61 25.1604 114.832 25.5228 107.427C25.8851 100.023 26.3698 94.8212 27.7014 94.6939C29.0331 94.5666 32.5387 98.33 33.748 106.574C34.9573 114.817 32.1764 120.25 29.7577 122.693C27.3391 125.136 26.1298 126.579 26.1298 126.579Z" fill="#3382EB"/>
<path d="M15.1236 142.336C15.1236 142.336 14.3942 137.973 12.9449 135.913C11.4956 133.852 8.34762 132.031 6.29131 128.032C4.23499 124.033 1.9387 122.094 2.05634 127.791C2.17398 133.489 4.71496 136.394 7.86295 138.337C11.0109 140.28 15.1236 142.336 15.1236 142.336Z" fill="#3382EB"/>
<path d="M13.7919 149.848C13.7919 149.848 10.8886 144.274 6.65834 140.152C2.42808 136.03 -0.964596 133.969 0.244721 136.03C1.45404 138.091 2.90804 137.973 4.95024 141.609C6.99243 145.246 6.39954 147.91 9.30284 149.971C12.2061 152.032 13.7919 149.848 13.7919 149.848Z" fill="#3382EB"/>
<path d="M13.4296 157.003C13.3072 156.64 13.1849 153.97 9.07697 151.815C4.96906 149.66 1.0776 150.48 1.57638 151.57C2.07516 152.659 4.60203 154.48 7.1383 155.569C9.67457 156.659 13.4296 157.003 13.4296 157.003Z" fill="#3382EB"/>
<path d="M25.8851 142.576C25.8851 142.576 24.097 140.275 25.0381 135.427C25.9792 130.579 28.1814 131.791 30.6047 129.244C33.028 126.697 32.5387 126.334 34.9573 123.669C37.3759 121.005 39.5499 119.548 40.5192 120.637C41.4886 121.726 40.0487 125.122 38.5853 127.06C37.1218 128.999 34.8208 129.97 33.748 132.394C32.6751 134.818 33.141 138.7 30.36 140.515C27.5791 142.331 25.8851 142.576 25.8851 142.576Z" fill="#3382EB"/>
<path d="M31.9316 143.911C31.9316 143.911 36.2889 138.954 39.4322 135.304C42.5755 131.654 43.7848 128.881 43.9072 131.305C44.0295 133.729 44.9942 135.667 42.4532 138.817C39.9122 141.968 31.9316 143.911 31.9316 143.911Z" fill="#3382EB"/>
<path d="M29.6354 151.909C29.6354 151.909 29.5131 149.971 36.4066 145.486C43.3002 141.001 46.2035 140.152 45.4789 141.973C44.7542 143.793 41.7145 145.609 38.4629 148.882C35.2114 152.155 29.6354 151.909 29.6354 151.909Z" fill="#3382EB"/>
<path d="M17.1045 134.668C17.1045 134.668 15.4858 125.971 13.8106 119.788C12.1355 113.606 11.0297 109.852 11.0297 109.852" stroke="black" stroke-width="0.471607" stroke-linecap="round" stroke-linejoin="round"/>
<path d="M25.8474 126.692C25.8474 126.692 28.8025 117.26 29.7436 111.544C30.6847 105.829 29.6212 101.608 29.1366 99.061" stroke="black" stroke-width="0.471607" stroke-linecap="round" stroke-linejoin="round"/>
<path d="M14.7424 142.152C13.4393 139.909 11.9485 137.78 10.2863 135.79C7.62293 132.64 5.58073 130.942 4.3573 127.909" stroke="black" stroke-width="0.471607" stroke-linecap="round" stroke-linejoin="round"/>
<path d="M25.885 142.576C25.885 142.576 26.8543 136.757 29.1506 133.729C31.4469 130.701 36.0442 125.971 37.8605 122.92" stroke="black" stroke-width="0.471607" stroke-linecap="round" stroke-linejoin="round"/>
<path d="M13.1425 156.875C13.1425 156.875 9.07689 154.22 6.17358 152.763" stroke="black" stroke-width="0.471607" stroke-linecap="round" stroke-linejoin="round"/>
<path d="M36.449 181.3C36.1761 173.948 28.0214 169.038 28.0214 169.038H15.5235C15.5235 169.038 7.36889 173.943 7.09597 181.3C6.82305 188.657 16.3376 215.624 16.3376 215.624H27.2073C27.2073 215.624 36.7172 188.657 36.449 181.3Z" fill="#9FC8FF" stroke="black" stroke-width="0.471607" stroke-linecap="round" stroke-linejoin="round"/>
<path d="M29.6306 161.808H13.6836L15.5235 169.043H27.7907L29.6306 161.808Z" fill="#9FC8FF" stroke="black" stroke-width="0.471607" stroke-linecap="round" stroke-linejoin="round"/>
<path d="M221.032 215.623H2.37158" stroke="black" stroke-width="0.471607" stroke-linecap="round" stroke-linejoin="round"/>
<path d="M137.114 19.8546V181.908C137.114 184.045 136.267 186.093 134.76 187.604C133.253 189.115 131.209 189.963 129.077 189.963H59.2095C57.078 189.963 55.0337 189.115 53.5265 187.604C52.0192 186.093 51.1725 184.045 51.1725 181.908V19.8498C51.1725 17.7148 52.0187 15.6671 53.5251 14.1574C55.0314 12.6477 57.0745 11.7995 59.2048 11.7995H89.193L89.2213 11.8891C89.9742 14.5867 91.687 16.3364 93.5974 16.3364H94.6797C96.5901 16.3364 98.3076 14.582 99.0558 11.8844L99.0887 11.7948H129.077C130.133 11.7948 131.178 12.0033 132.154 12.4084C133.129 12.8135 134.015 13.4072 134.762 14.1557C135.508 14.9042 136.1 15.7927 136.504 16.7706C136.907 17.7484 137.115 18.7963 137.114 19.8546Z" fill="white" stroke="black" stroke-width="0.471607" stroke-miterlimit="10"/>
<path d="M107.337 117.657H82.4124C81.1545 117.657 80.1349 118.678 80.1349 119.939V124.58C80.1349 125.84 81.1545 126.862 82.4124 126.862H107.337C108.595 126.862 109.615 125.84 109.615 124.58V119.939C109.615 118.678 108.595 117.657 107.337 117.657Z" fill="black" stroke="black" stroke-width="0.471607" stroke-linecap="round" stroke-linejoin="round"/>
<path d="M51.1725 139.549V181.908C51.1725 184.045 52.0192 186.093 53.5265 187.604C55.0337 189.115 57.078 189.963 59.2095 189.963H129.077C131.209 189.963 133.253 189.115 134.76 187.604C136.267 186.093 137.114 184.045 137.114 181.908V139.549H51.1725Z" fill="#DBDBDB" stroke="black" stroke-width="0.471607" stroke-linecap="round" stroke-linejoin="round"/>
<path d="M77.3493 144.661H55.9251C55.3352 144.661 54.8569 145.14 54.8569 145.731V151.523C54.8569 152.114 55.3352 152.593 55.9251 152.593H77.3493C77.9392 152.593 78.4174 152.114 78.4174 151.523V145.731C78.4174 145.14 77.9392 144.661 77.3493 144.661Z" fill="white"/>
<path d="M103.714 144.661H82.2901C81.7002 144.661 81.2219 145.14 81.2219 145.731V151.523C81.2219 152.114 81.7002 152.593 82.2901 152.593H103.714C104.304 152.593 104.782 152.114 104.782 151.523V145.731C104.782 145.14 104.304 144.661 103.714 144.661Z" fill="white"/>
<path d="M130.084 144.661H108.66C108.07 144.661 107.592 145.14 107.592 145.731V151.523C107.592 152.114 108.07 152.593 108.66 152.593H130.084C130.674 152.593 131.152 152.114 131.152 151.523V145.731C131.152 145.14 130.674 144.661 130.084 144.661Z" fill="white"/>
<path d="M77.3493 154.8H55.9251C55.3352 154.8 54.8569 155.28 54.8569 155.871V161.662C54.8569 162.254 55.3352 162.733 55.9251 162.733H77.3493C77.9392 162.733 78.4174 162.254 78.4174 161.662V155.871C78.4174 155.28 77.9392 154.8 77.3493 154.8Z" fill="white"/>
<path d="M103.714 154.8H82.2901C81.7002 154.8 81.2219 155.28 81.2219 155.871V161.662C81.2219 162.254 81.7002 162.733 82.2901 162.733H103.714C104.304 162.733 104.782 162.254 104.782 161.662V155.871C104.782 155.28 104.304 154.8 103.714 154.8Z" fill="white"/>
<path d="M130.084 154.8H108.66C108.07 154.8 107.592 155.28 107.592 155.871V161.662C107.592 162.254 108.07 162.733 108.66 162.733H130.084C130.674 162.733 131.152 162.254 131.152 161.662V155.871C131.152 155.28 130.674 154.8 130.084 154.8Z" fill="white"/>
<path d="M77.3493 164.935H55.9251C55.3352 164.935 54.8569 165.414 54.8569 166.006V171.797C54.8569 172.388 55.3352 172.868 55.9251 172.868H77.3493C77.9392 172.868 78.4174 172.388 78.4174 171.797V166.006C78.4174 165.414 77.9392 164.935 77.3493 164.935Z" fill="white"/>
<path d="M103.714 164.935H82.2901C81.7002 164.935 81.2219 165.414 81.2219 166.006V171.797C81.2219 172.388 81.7002 172.868 82.2901 172.868H103.714C104.304 172.868 104.782 172.388 104.782 171.797V166.006C104.782 165.414 104.304 164.935 103.714 164.935Z" fill="white"/>
<path d="M130.084 164.935H108.66C108.07 164.935 107.592 165.414 107.592 166.006V171.797C107.592 172.388 108.07 172.868 108.66 172.868H130.084C130.674 172.868 131.152 172.388 131.152 171.797V166.006C131.152 165.414 130.674 164.935 130.084 164.935Z" fill="white"/>
<path d="M103.714 175.075H82.2901C81.7002 175.075 81.2219 175.554 81.2219 176.145V181.937C81.2219 182.528 81.7002 183.007 82.2901 183.007H103.714C104.304 183.007 104.782 182.528 104.782 181.937V176.145C104.782 175.554 104.304 175.075 103.714 175.075Z" fill="white"/>
<path d="M128.305 183.007H113.61L110.438 179.31L113.61 175.075H128.305V183.007Z" fill="white"/>
<path d="M95.0844 48.5001L94.8726 48.3397L94.6609 48.5001C94.6609 48.5001 83.8382 54.6734 78.9445 57.0173C78.9445 57.0173 81.2972 70.2223 82.9771 76.174C84.657 82.1257 91.2635 85.3279 94.8726 87.4548C98.4865 85.3279 105.069 82.1351 106.768 76.174C108.467 70.2129 110.806 57.0173 110.806 57.0173C105.916 54.6734 95.0844 48.5001 95.0844 48.5001Z" fill="#3382EB"/>
<path d="M93.7621 74.0188L86.5815 67.8502C86.4171 67.7093 86.2821 67.5373 86.184 67.3441C86.086 67.1509 86.0268 66.9402 86.01 66.7241C85.976 66.2876 86.1164 65.8555 86.4004 65.5228C86.6843 65.1901 87.0884 64.9841 87.5239 64.95C87.9594 64.9159 88.3906 65.0567 88.7225 65.3412L93.428 69.3876L101.493 60.196C101.782 59.867 102.188 59.6663 102.624 59.638C103.06 59.6097 103.49 59.7562 103.818 60.0451C104.146 60.334 104.346 60.7418 104.375 61.1787C104.403 61.6156 104.257 62.0459 103.968 62.3748L93.7621 74.0188Z" fill="white"/>
<path d="M66.8371 94.826H57.0685V104.617H66.8371V94.826Z" fill="white" stroke="black" stroke-width="0.471607" stroke-miterlimit="10"/>
<path d="M80.0032 94.826H70.2345V104.617H80.0032V94.826Z" fill="white" stroke="black" stroke-width="0.471607" stroke-miterlimit="10"/>
<path d="M93.1739 94.826H83.4053V104.617H93.1739V94.826Z" fill="white" stroke="black" stroke-width="0.471607" stroke-miterlimit="10"/>
<path d="M106.345 94.826H96.576V104.617H106.345V94.826Z" fill="white" stroke="black" stroke-width="0.471607" stroke-miterlimit="10"/>
<path d="M119.511 94.826H109.742V104.617H119.511V94.826Z" fill="white" stroke="black" stroke-width="0.471607" stroke-miterlimit="10"/>
<path d="M132.681 94.826H122.913V104.617H132.681V94.826Z" fill="white" stroke="black" stroke-width="0.471607" stroke-miterlimit="10"/>
<path d="M137.114 27.3908V19.8451C137.112 17.7104 136.264 15.664 134.757 14.1554C133.25 12.6469 131.207 11.7995 129.077 11.7995H99.0935L99.0652 11.8891C98.317 14.5867 96.5995 16.3364 94.6797 16.3364H93.5974C91.687 16.3364 89.9648 14.582 89.2213 11.8844L89.193 11.7948H59.2048C57.0745 11.7948 55.0314 12.6429 53.5251 14.1527C52.0187 15.6624 51.1725 17.71 51.1725 19.8451V27.3908H137.114Z" fill="#DBDBDB" stroke="black" stroke-width="0.471607" stroke-linecap="round" stroke-linejoin="round"/>
<path d="M142.577 58.5594V42.3738H141.114V21.6514C141.114 19.9739 140.785 18.3127 140.145 16.7627C139.505 15.2127 138.566 13.8042 137.383 12.6178C136.2 11.4314 134.795 10.4903 133.249 9.84816C131.702 9.20606 130.045 8.87557 128.371 8.87557H59.9153C58.2401 8.87371 56.581 9.2028 55.0328 9.84401C53.4846 10.4852 52.0777 11.426 50.8925 12.6125C49.7073 13.7991 48.7671 15.2081 48.1256 16.759C47.4841 18.31 47.1539 19.9725 47.1539 21.6514V186.313C47.1539 187.991 47.4837 189.652 48.1244 191.201C48.765 192.751 49.704 194.159 50.8878 195.345C52.0715 196.531 53.4768 197.472 55.0234 198.113C56.5699 198.755 58.2274 199.085 59.9012 199.084H128.371C130.045 199.085 131.702 198.755 133.248 198.113C134.795 197.472 136.199 196.531 137.383 195.345C138.566 194.159 139.505 192.751 140.145 191.201C140.785 189.651 141.114 187.99 141.114 186.313V72.3539H142.577V62.7897H141.114V58.5452L142.577 58.5594ZM137.114 177.187C137.114 180.576 135.771 183.825 133.38 186.221C130.99 188.617 127.748 189.963 124.367 189.963H63.9197C60.5389 189.963 57.2966 188.617 54.906 186.221C52.5154 183.825 51.1724 180.576 51.1724 177.187V24.5707C51.1737 21.1831 52.5172 17.9347 54.9077 15.5398C57.2981 13.1449 60.5397 11.7995 63.9197 11.7995H89.193L89.2212 11.8891C89.9741 14.5867 91.6869 16.3364 93.5974 16.3364H94.6796C96.5901 16.3364 98.3076 14.582 99.0558 11.8844L99.0887 11.7948H124.357C127.737 11.7948 130.979 13.1402 133.369 15.5351C135.76 17.93 137.103 21.1784 137.105 24.5659L137.114 177.187Z" fill="#3382EB" stroke="black" stroke-width="0.471607" stroke-linecap="round" stroke-linejoin="round"/>
<path d="M127.35 10.6346H60.9364C57.6795 10.6359 54.5562 11.9322 52.2519 14.239C49.9476 16.5458 48.6506 19.6747 48.6456 22.9389V185.007C48.6456 188.274 49.9406 191.407 52.2455 193.717C54.5505 196.027 57.6767 197.325 60.9364 197.325H127.35C130.61 197.325 133.736 196.027 136.041 193.717C138.346 191.407 139.641 188.274 139.641 185.007V22.9389C139.636 19.6747 138.339 16.5458 136.035 14.239C133.73 11.9322 130.607 10.6359 127.35 10.6346ZM137.114 177.626C137.113 180.893 135.817 184.027 133.511 186.337C131.205 188.647 128.079 189.944 124.819 189.944H63.468C60.2078 189.944 57.0812 188.647 54.7754 186.337C52.4697 184.027 51.1737 180.893 51.1725 177.626V24.1132C51.1725 22.4957 51.4904 20.8941 52.1082 19.3999C52.7259 17.9056 53.6313 16.5479 54.7727 15.4044C55.914 14.2609 57.269 13.354 58.7602 12.7355C60.2513 12.1169 61.8495 11.7989 63.4633 11.7995H89.1931L89.2213 11.8891C89.9742 14.5867 91.687 16.3364 93.5974 16.3364H94.6797C96.5901 16.3364 98.3076 14.582 99.0558 11.8844L99.0888 11.7948H124.809C126.425 11.7929 128.025 12.1103 129.518 12.7289C131.011 13.3474 132.368 14.2549 133.511 15.3994C134.654 16.544 135.56 17.9031 136.178 19.3991C136.797 20.8951 137.115 22.4986 137.114 24.1179V177.626Z" fill="black" stroke="black" stroke-width="0.471607" stroke-linecap="round" stroke-linejoin="round"/>
<path d="M95.075 12.4079C95.074 12.1712 95.0031 11.94 94.8713 11.7437C94.7394 11.5473 94.5524 11.3945 94.3339 11.3046C94.1154 11.2146 93.8753 11.1916 93.6437 11.2383C93.4122 11.2851 93.1997 11.3995 93.033 11.5672C92.8663 11.7349 92.7529 11.9484 92.7072 12.1806C92.6615 12.4129 92.6854 12.6535 92.776 12.8721C92.8666 13.0907 93.0198 13.2775 93.2162 13.4089C93.4127 13.5403 93.6436 13.6105 93.8798 13.6105C94.0371 13.6105 94.1929 13.5793 94.3382 13.5188C94.4836 13.4584 94.6155 13.3697 94.7266 13.258C94.8376 13.1462 94.9256 13.0136 94.9853 12.8677C95.0451 12.7219 95.0756 12.5656 95.075 12.4079Z" fill="white"/>
<path d="M58.8142 17.0062C58.8142 18.2182 57.4543 18.6568 57.4449 19.5812V19.6378H58.7672V20.0481H57.0073V19.7038C57.0073 18.4022 58.3672 18.1522 58.3672 17.0156C58.3672 16.6054 58.2261 16.3837 57.8967 16.3837C57.5673 16.3837 57.4261 16.6195 57.4261 16.9779V17.3316H57.0073V17.0062C57.0073 16.3884 57.285 15.9828 57.9061 15.9828C58.5272 15.9828 58.8142 16.3884 58.8142 17.0062Z" fill="black"/>
<path d="M61.0117 16.9967V17.1004C61.0317 17.271 60.9968 17.4434 60.9121 17.5927C60.8275 17.742 60.6975 17.8603 60.5412 17.9305C60.6989 18.0002 60.8299 18.1192 60.9146 18.2696C60.9994 18.42 61.0335 18.5938 61.0117 18.7652V19.0765C61.0117 19.6896 60.7247 20.0904 60.1035 20.0904C59.4824 20.0904 59.2048 19.6896 59.2048 19.0765V18.7982H59.6236V19.1048C59.6236 19.4632 59.7695 19.6848 60.0941 19.6848C60.4188 19.6848 60.5647 19.4726 60.5647 19.0623V18.7511C60.5647 18.3549 60.3953 18.1663 60.0565 18.1568H59.8165V17.7512H60.08C60.1492 17.7523 60.2177 17.738 60.2807 17.7094C60.3437 17.6809 60.3996 17.6388 60.4446 17.5861C60.4895 17.5334 60.5223 17.4715 60.5406 17.4046C60.5589 17.3378 60.5623 17.2678 60.5506 17.1995V17.0155C60.5506 16.6005 60.4047 16.3883 60.08 16.3883C59.7553 16.3883 59.6095 16.6147 59.6095 16.9778V17.1806H59.1907V16.9967C59.1907 16.3836 59.4777 15.9874 60.0894 15.9874C60.7011 15.9874 61.0117 16.3836 61.0117 16.9967Z" fill="black"/>
<path d="M61.8775 17.3032V17.8597H61.4446V17.3032H61.8775ZM61.8775 19.4962V20.0527H61.4446V19.4962H61.8775Z" fill="black"/>
<path d="M62.7857 17.6664C62.8431 17.5603 62.9292 17.4727 63.034 17.4134C63.1389 17.3542 63.2583 17.3258 63.3786 17.3316C63.8962 17.3316 64.1267 17.7136 64.1267 18.2748V19.0623C64.1267 19.6754 63.835 20.0763 63.2186 20.0763C62.6022 20.0763 62.3198 19.6754 62.3198 19.0623V18.7888H62.7386V19.0906C62.7386 19.4491 62.8892 19.6707 63.2092 19.6707C63.5291 19.6707 63.6797 19.4491 63.6797 19.0906V18.3219C63.6797 17.9588 63.5291 17.7418 63.2092 17.7418C63.1496 17.7366 63.0897 17.7438 63.033 17.763C62.9764 17.7822 62.9244 17.8129 62.8801 17.8532C62.8359 17.8935 62.8006 17.9426 62.7762 17.9973C62.7518 18.052 62.739 18.1111 62.7386 18.171V18.2653H62.3245L62.4328 16.0252H64.0138V16.4308H62.8327L62.7857 17.6664Z" fill="black"/>
<path d="M66.3571 16.992V17.0674H65.9383V16.9637C65.9383 16.6005 65.7925 16.3883 65.4678 16.3883C65.1431 16.3883 64.9972 16.61 64.9972 17.0391V17.9399C65.0454 17.8081 65.1345 17.6953 65.2513 17.618C65.3682 17.5408 65.5068 17.5032 65.6466 17.5107C66.1642 17.5107 66.3948 17.8833 66.3948 18.4539V19.067C66.3948 19.6801 66.0889 20.081 65.4537 20.081C64.8184 20.081 64.5126 19.6801 64.5126 19.067V17.0203C64.5126 16.3836 64.7996 15.9874 65.4537 15.9874C66.1077 15.9874 66.3571 16.3789 66.3571 16.992ZM64.9737 18.5011V19.1048C64.9737 19.4632 65.1243 19.6848 65.4443 19.6848C65.7642 19.6848 65.9148 19.4632 65.9148 19.1048V18.5011C65.9148 18.138 65.7595 17.921 65.4443 17.921C65.129 17.921 64.9737 18.138 64.9737 18.5011Z" fill="black"/>
<path d="M110.198 17.1713H109.064V20.0104H110.198V17.1713Z" fill="black"/>
<path d="M111.709 16.6007H110.575V20.0104H111.709V16.6007Z" fill="black"/>
<path d="M113.224 16.1949H112.09V20.0102H113.224V16.1949Z" fill="black"/>
<path d="M114.735 15.4923H113.601V20.0103H114.735V15.4923Z" fill="black"/>
<path d="M128.762 19.9349H121.972V15.7659H128.771L128.762 19.9349ZM122.339 19.5529H128.385V16.1432H122.339V19.5529Z" fill="black"/>
<path d="M126.498 16.5581H122.908V19.1425H126.498V16.5581Z" fill="black"/>
<path d="M129.388 17.3599H128.531V18.3408H129.388V17.3599Z" fill="black"/>
<path d="M119.468 19.0247C119.422 19.0257 119.377 19.0143 119.337 18.9917C117.953 18.1664 117.036 18.9304 116.984 18.9634C116.936 19.0107 116.872 19.0372 116.805 19.0372C116.738 19.0372 116.674 19.0107 116.626 18.9634C116.583 18.9122 116.562 18.8463 116.566 18.7795C116.57 18.7127 116.6 18.6502 116.65 18.605C116.697 18.5626 117.869 17.558 119.581 18.5767C119.61 18.5937 119.635 18.6163 119.655 18.643C119.675 18.6698 119.69 18.7002 119.698 18.7326C119.706 18.765 119.708 18.7988 119.704 18.8319C119.699 18.865 119.688 18.8969 119.671 18.9257C119.647 18.957 119.616 18.9822 119.581 18.9994C119.546 19.0166 119.507 19.0253 119.468 19.0247Z" fill="black"/>
<path d="M119.977 18.171C119.931 18.1724 119.887 18.1591 119.849 18.1333C117.845 16.9401 116.499 18.0955 116.485 18.105C116.437 18.1522 116.373 18.1787 116.306 18.1787C116.239 18.1787 116.175 18.1522 116.127 18.105C116.084 18.053 116.062 17.9863 116.067 17.9187C116.071 17.8511 116.101 17.7878 116.151 17.7418C116.151 17.7418 117.793 16.327 120.108 17.7418C120.155 17.7708 120.192 17.8144 120.212 17.8659C120.232 17.9174 120.235 17.9742 120.22 18.0274C120.205 18.0807 120.173 18.1277 120.129 18.1613C120.085 18.1948 120.032 18.2132 119.977 18.2134V18.171Z" fill="black"/>
<path d="M120.442 17.1806C120.397 17.1798 120.353 17.1667 120.315 17.1429C117.779 15.6337 116.08 17.0533 116.024 17.1146C116 17.1387 115.972 17.1578 115.941 17.1709C115.91 17.184 115.876 17.1907 115.843 17.1907C115.809 17.1907 115.776 17.184 115.744 17.1709C115.713 17.1578 115.685 17.1387 115.662 17.1146C115.619 17.0634 115.597 16.9974 115.601 16.9306C115.606 16.8638 115.636 16.8013 115.685 16.7562C115.709 16.7562 117.708 15.0207 120.574 16.7279C120.631 16.7631 120.672 16.8192 120.689 16.8843C120.706 16.9494 120.697 17.0184 120.664 17.0769C120.638 17.1108 120.604 17.1379 120.566 17.156C120.527 17.174 120.485 17.1825 120.442 17.1806Z" fill="black"/>
<path d="M118.701 19.4539C118.701 19.5809 118.664 19.7051 118.593 19.8107C118.523 19.9163 118.422 19.9985 118.305 20.0469C118.188 20.0953 118.059 20.1077 117.935 20.0826C117.81 20.0574 117.696 19.9959 117.607 19.9057C117.518 19.8155 117.457 19.7008 117.433 19.5761C117.409 19.4514 117.422 19.3223 117.471 19.2051C117.521 19.088 117.603 18.9882 117.709 18.9183C117.815 18.8484 117.939 18.8116 118.066 18.8125C118.15 18.8125 118.233 18.8291 118.31 18.8614C118.388 18.8937 118.458 18.941 118.517 19.0006C118.576 19.0603 118.623 19.131 118.654 19.2088C118.686 19.2866 118.702 19.3699 118.701 19.4539Z" fill="black"/>
<path d="M121.628 179.23L123.92 176.933C124.044 176.799 124.112 176.621 124.109 176.438C124.106 176.255 124.032 176.08 123.903 175.95C123.773 175.821 123.599 175.747 123.416 175.743C123.233 175.74 123.056 175.808 122.922 175.933L120.631 178.23L118.339 175.933C118.207 175.8 118.027 175.725 117.84 175.724C117.652 175.724 117.472 175.798 117.339 175.931C117.206 176.063 117.131 176.243 117.131 176.431C117.13 176.619 117.204 176.8 117.337 176.933L119.619 179.23L117.323 181.526C117.192 181.66 117.118 181.839 117.118 182.026C117.118 182.213 117.192 182.393 117.323 182.526C117.456 182.659 117.636 182.733 117.824 182.733C118.012 182.733 118.192 182.659 118.325 182.526L120.617 180.229L122.908 182.526C122.973 182.592 123.051 182.645 123.136 182.681C123.222 182.716 123.314 182.734 123.407 182.734C123.5 182.735 123.592 182.717 123.678 182.681C123.763 182.646 123.841 182.593 123.906 182.526C123.972 182.461 124.024 182.383 124.06 182.297C124.096 182.211 124.114 182.119 124.114 182.026C124.114 181.933 124.096 181.841 124.06 181.755C124.024 181.67 123.972 181.592 123.906 181.526L121.628 179.23Z" fill="black"/>
<path d="M65.4019 151.348V146.703L65.2372 146.769L64.9643 146.849L64.6914 146.924C64.6333 146.938 64.5766 146.957 64.522 146.981V146.25L64.7667 146.151L65.0819 146.005C65.1895 145.953 65.2933 145.893 65.3925 145.826C65.479 145.766 65.558 145.697 65.6278 145.618H66.3759V151.348H65.4019Z" fill="black"/>
<path d="M91.7622 151.348V150.66L93.1739 148.471C93.2774 148.311 93.3762 148.16 93.4656 148C93.5599 147.852 93.6357 147.694 93.6915 147.528C93.7531 147.361 93.7834 147.183 93.7809 147.005C93.7879 146.84 93.7488 146.677 93.6679 146.533C93.6289 146.477 93.5758 146.431 93.5139 146.401C93.452 146.372 93.3835 146.358 93.315 146.363C93.2506 146.359 93.1861 146.368 93.1254 146.39C93.0646 146.412 93.0091 146.446 92.9621 146.491C92.8742 146.582 92.8139 146.697 92.788 146.821C92.7556 146.976 92.7398 147.134 92.741 147.292V147.538H91.7999V147.283C91.7931 146.977 91.8458 146.673 91.9551 146.387C92.0448 146.14 92.2093 145.927 92.4257 145.779C92.6806 145.628 92.9722 145.551 93.268 145.557C93.4691 145.54 93.6714 145.567 93.8614 145.635C94.0513 145.704 94.2244 145.812 94.3691 145.953C94.6287 146.26 94.7602 146.655 94.7361 147.057C94.7388 147.274 94.7054 147.491 94.6373 147.698C94.5696 147.889 94.4813 148.073 94.3738 148.245C94.2671 148.421 94.1495 148.6 94.0209 148.783L92.8492 150.565H94.5855V151.348H91.7622Z" fill="black"/>
<path d="M119.299 151.433C118.998 151.446 118.699 151.378 118.433 151.235C118.218 151.1 118.053 150.898 117.963 150.66C117.859 150.384 117.81 150.091 117.817 149.797V149.599H118.758V149.764C118.76 149.922 118.777 150.08 118.81 150.235C118.83 150.346 118.884 150.449 118.965 150.528C119.058 150.598 119.173 150.633 119.29 150.627C119.348 150.631 119.407 150.624 119.463 150.605C119.518 150.587 119.57 150.557 119.614 150.518C119.695 150.433 119.748 150.324 119.765 150.207C119.79 150.051 119.803 149.893 119.802 149.735C119.812 149.498 119.766 149.262 119.666 149.047C119.61 148.958 119.53 148.887 119.437 148.839C119.343 148.792 119.239 148.771 119.134 148.778H118.97V147.962H119.148C119.248 147.971 119.348 147.957 119.441 147.921C119.534 147.885 119.617 147.828 119.685 147.755C119.798 147.557 119.849 147.331 119.831 147.104C119.839 146.909 119.802 146.716 119.722 146.538C119.679 146.468 119.617 146.411 119.543 146.375C119.468 146.339 119.385 146.325 119.304 146.335C119.22 146.326 119.137 146.343 119.064 146.384C118.99 146.424 118.931 146.486 118.894 146.561C118.821 146.747 118.784 146.946 118.786 147.146V147.358H117.845V147.085C117.837 146.799 117.895 146.515 118.014 146.255C118.125 146.031 118.302 145.848 118.523 145.731C118.771 145.604 119.048 145.542 119.327 145.552C119.61 145.542 119.891 145.602 120.146 145.727C120.363 145.841 120.539 146.021 120.649 146.241C120.771 146.497 120.831 146.778 120.824 147.061C120.824 147.366 120.732 147.664 120.56 147.915C120.438 148.121 120.243 148.272 120.014 148.339C120.164 148.387 120.3 148.471 120.409 148.585C120.532 148.719 120.623 148.881 120.673 149.056C120.744 149.275 120.777 149.505 120.772 149.735C120.776 150.043 120.726 150.35 120.626 150.641C120.539 150.891 120.374 151.106 120.155 151.254C119.893 151.395 119.596 151.458 119.299 151.433Z" fill="black"/>
<path d="M65.8772 161.507V160.092H64.1691V159.257L65.656 155.767H66.7947V159.314H67.3876V160.092H66.8041V161.507H65.8772ZM64.9878 159.323H65.8772V156.833L64.9878 159.323Z" fill="black"/>
<path d="M93.2681 161.591C92.9587 161.61 92.6509 161.536 92.3834 161.379C92.1724 161.238 92.0189 161.025 91.9505 160.78C91.8623 160.484 91.821 160.175 91.8282 159.865H92.7693C92.7662 160.038 92.7788 160.21 92.8069 160.379C92.8216 160.508 92.8759 160.628 92.9622 160.724C93.0061 160.768 93.0594 160.801 93.1181 160.822C93.1768 160.842 93.2393 160.849 93.301 160.842C93.3687 160.848 93.437 160.837 93.499 160.809C93.561 160.781 93.6144 160.737 93.6539 160.681C93.7291 160.545 93.7725 160.393 93.781 160.238C93.781 160.045 93.8092 159.823 93.8092 159.568C93.8126 159.374 93.8001 159.18 93.7716 158.988C93.757 158.848 93.705 158.714 93.621 158.602C93.5761 158.554 93.5211 158.517 93.46 158.493C93.399 158.469 93.3334 158.46 93.2681 158.465C93.2054 158.464 93.1431 158.475 93.0849 158.499C93.0267 158.522 92.9738 158.557 92.9293 158.602C92.8343 158.706 92.7665 158.832 92.7317 158.969H91.8894L91.9458 155.777H94.515V156.654H92.7693L92.7128 158.036C92.794 157.94 92.8997 157.868 93.0187 157.828C93.1695 157.772 93.3285 157.742 93.4892 157.738C93.7485 157.712 94.0086 157.779 94.2233 157.927C94.4216 158.085 94.5663 158.301 94.6374 158.545C94.7319 158.85 94.7779 159.168 94.7738 159.488C94.7763 159.768 94.7558 160.047 94.7127 160.323C94.6814 160.555 94.6063 160.779 94.4915 160.983C94.3799 161.17 94.2164 161.321 94.021 161.417C93.7879 161.536 93.5295 161.596 93.2681 161.591Z" fill="black"/>
<path d="M119.332 161.591C119.025 161.604 118.723 161.516 118.471 161.341C118.251 161.168 118.087 160.934 118 160.667C117.899 160.363 117.848 160.044 117.85 159.724V157.715C117.845 157.374 117.888 157.035 117.977 156.706C118.053 156.424 118.218 156.174 118.447 155.993C118.711 155.805 119.032 155.713 119.355 155.734C119.638 155.722 119.919 155.778 120.174 155.899C120.379 156 120.545 156.165 120.645 156.371C120.75 156.618 120.799 156.885 120.791 157.154C120.791 157.154 120.791 157.182 120.791 157.201C120.793 157.216 120.793 157.232 120.791 157.248H119.85C119.86 157.052 119.829 156.856 119.76 156.673C119.721 156.605 119.662 156.551 119.591 156.518C119.521 156.484 119.442 156.472 119.365 156.484C119.31 156.482 119.256 156.49 119.205 156.51C119.154 156.529 119.107 156.559 119.068 156.597C118.979 156.701 118.922 156.829 118.904 156.965C118.861 157.194 118.842 157.426 118.847 157.658V158.342C118.921 158.229 119.026 158.139 119.148 158.083C119.344 158.005 119.555 157.975 119.764 157.994C119.974 158.014 120.175 158.083 120.353 158.196C120.538 158.347 120.673 158.551 120.739 158.781C120.818 159.06 120.856 159.349 120.852 159.639C120.856 159.978 120.809 160.315 120.711 160.639C120.628 160.914 120.464 161.157 120.24 161.337C119.975 161.523 119.655 161.613 119.332 161.591ZM119.332 160.832C119.39 160.836 119.448 160.827 119.502 160.805C119.556 160.782 119.604 160.748 119.642 160.705C119.722 160.602 119.774 160.48 119.793 160.351C119.823 160.177 119.837 160 119.835 159.823C119.835 159.615 119.835 159.427 119.812 159.266C119.802 159.127 119.757 158.992 119.68 158.875C119.637 158.825 119.582 158.786 119.521 158.761C119.459 158.737 119.393 158.727 119.327 158.733C119.251 158.732 119.176 158.747 119.106 158.776C119.041 158.806 118.98 158.845 118.927 158.894C118.883 158.936 118.843 158.984 118.81 159.035V159.936C118.81 160.085 118.826 160.234 118.857 160.379C118.881 160.502 118.938 160.616 119.021 160.71C119.063 160.75 119.112 160.782 119.166 160.802C119.221 160.823 119.279 160.831 119.337 160.827L119.332 160.832Z" fill="black"/>
<path d="M64.8185 171.665L65.9761 166.685H64.428V165.935H66.9172V166.534L65.7643 171.665H64.8185Z" fill="black"/>
<path d="M93.2257 171.74C92.9191 171.756 92.6147 171.68 92.3505 171.523C92.1298 171.377 91.9642 171.162 91.8799 170.91C91.7807 170.617 91.7329 170.309 91.7388 170C91.7362 169.842 91.7504 169.684 91.7811 169.529C91.8094 169.396 91.8553 169.267 91.9176 169.147C91.9733 169.036 92.0464 168.936 92.134 168.849C92.2168 168.761 92.3139 168.688 92.4211 168.632C92.245 168.509 92.0987 168.348 91.9929 168.161C91.87 167.919 91.8086 167.65 91.814 167.378C91.8081 167.102 91.8594 166.827 91.9646 166.572C92.0593 166.35 92.2248 166.166 92.4352 166.048C92.6778 165.918 92.9506 165.854 93.2257 165.864C93.5009 165.853 93.774 165.917 94.0162 166.048C94.2255 166.167 94.3906 166.351 94.4868 166.572C94.5948 166.826 94.6447 167.102 94.6326 167.378C94.6399 167.651 94.5801 167.921 94.4585 168.166C94.3581 168.354 94.2146 168.515 94.0398 168.637C94.1484 168.693 94.247 168.766 94.3315 168.854C94.4177 168.941 94.4892 169.041 94.5432 169.151C94.6055 169.272 94.6514 169.4 94.6797 169.533C94.7121 169.688 94.7279 169.846 94.7268 170.005C94.7373 170.314 94.6894 170.623 94.5856 170.915C94.4998 171.165 94.3345 171.381 94.115 171.528C93.8461 171.686 93.5366 171.76 93.2257 171.74ZM93.2257 171C93.2907 171.005 93.3561 170.995 93.4165 170.971C93.477 170.946 93.5309 170.908 93.5739 170.858C93.658 170.756 93.7118 170.632 93.7292 170.5C93.7522 170.353 93.7632 170.205 93.7621 170.057C93.7686 169.899 93.7575 169.741 93.7292 169.585C93.7059 169.453 93.6511 169.328 93.5692 169.222C93.5264 169.174 93.4733 169.136 93.4137 169.111C93.3542 169.087 93.2899 169.076 93.2257 169.081C93.1629 169.076 93.1 169.087 93.042 169.112C92.984 169.136 92.9325 169.174 92.8916 169.222C92.8083 169.326 92.7517 169.449 92.7269 169.58C92.6977 169.736 92.6835 169.894 92.6846 170.052C92.6828 170.202 92.6955 170.352 92.7222 170.5C92.7412 170.632 92.7966 170.756 92.8822 170.858C92.9233 170.91 92.9756 170.952 93.0351 170.98C93.0946 171.009 93.1597 171.024 93.2257 171.024V171ZM93.2257 168.26C93.2781 168.261 93.3302 168.251 93.3781 168.23C93.4261 168.208 93.4688 168.177 93.5033 168.137C93.5802 168.046 93.6307 167.935 93.6492 167.817C93.6794 167.661 93.6935 167.503 93.6915 167.345C93.6994 167.162 93.6639 166.979 93.588 166.812C93.5541 166.746 93.5017 166.692 93.4373 166.656C93.3728 166.62 93.2993 166.604 93.2257 166.609C93.1522 166.604 93.0789 166.621 93.0146 166.657C92.9503 166.693 92.8978 166.747 92.8634 166.812C92.7784 166.973 92.7378 167.154 92.7457 167.336C92.7431 167.494 92.7589 167.652 92.7928 167.807C92.8118 167.928 92.864 168.04 92.9434 168.133C92.9787 168.173 93.0222 168.205 93.0709 168.227C93.1195 168.249 93.1723 168.26 93.2257 168.26Z" fill="black"/>
<path d="M93.2256 181.696C92.9353 181.709 92.6474 181.637 92.3974 181.489C92.1778 181.346 92.0057 181.141 91.9034 180.899C91.7875 180.627 91.7313 180.332 91.7387 180.036V177.494C91.7319 177.194 91.7863 176.895 91.8987 176.617C91.9897 176.376 92.1544 176.169 92.3692 176.027C92.6283 175.888 92.9176 175.816 93.2115 175.816C93.5054 175.816 93.7947 175.888 94.0538 176.027C94.2671 176.171 94.4313 176.377 94.5243 176.617C94.6345 176.896 94.6888 177.194 94.6843 177.494V180.036C94.6902 180.333 94.6324 180.627 94.5149 180.899C94.4126 181.141 94.2405 181.346 94.0209 181.489C93.7804 181.631 93.5049 181.703 93.2256 181.696ZM93.2256 180.857C93.2862 180.861 93.3469 180.851 93.4032 180.828C93.4594 180.805 93.5097 180.77 93.5503 180.725C93.6233 180.628 93.6718 180.514 93.6915 180.395C93.7156 180.272 93.7282 180.147 93.7291 180.022V177.508C93.7273 177.377 93.7163 177.246 93.6962 177.117C93.6781 176.997 93.6312 176.884 93.5597 176.787C93.5181 176.74 93.4663 176.704 93.4083 176.681C93.3503 176.658 93.2877 176.649 93.2256 176.655C93.1642 176.649 93.1023 176.658 93.0451 176.681C92.9878 176.704 92.9368 176.74 92.8962 176.787C92.8232 176.884 92.7747 176.997 92.7551 177.117C92.7365 177.246 92.727 177.377 92.7268 177.508V180.022C92.7254 180.147 92.738 180.272 92.7645 180.395C92.7857 180.515 92.8358 180.628 92.9104 180.725C92.9493 180.769 92.9979 180.805 93.0526 180.828C93.1073 180.85 93.1665 180.86 93.2256 180.857Z" fill="black"/>
<path d="M119.233 171.74C118.952 171.751 118.673 171.693 118.419 171.571C118.211 171.464 118.045 171.289 117.948 171.075C117.844 170.825 117.794 170.555 117.803 170.283V170.208H118.744C118.734 170.402 118.766 170.597 118.838 170.778C118.879 170.846 118.94 170.901 119.011 170.935C119.083 170.97 119.164 170.982 119.243 170.972C119.297 170.975 119.352 170.967 119.403 170.947C119.454 170.928 119.5 170.897 119.539 170.858C119.624 170.749 119.678 170.619 119.694 170.481C119.732 170.255 119.749 170.026 119.746 169.797V169.109C119.675 169.222 119.572 169.311 119.45 169.363C119.301 169.428 119.141 169.462 118.979 169.463C118.719 169.48 118.46 169.405 118.25 169.25C118.064 169.09 117.929 168.879 117.864 168.642C117.781 168.362 117.741 168.071 117.746 167.779C117.739 167.443 117.788 167.108 117.892 166.789C117.976 166.521 118.14 166.285 118.363 166.114C118.619 165.942 118.924 165.856 119.233 165.869C119.539 165.853 119.841 165.938 120.094 166.109C120.314 166.273 120.478 166.5 120.565 166.76C120.668 167.064 120.719 167.383 120.715 167.703V169.731C120.72 170.074 120.676 170.415 120.584 170.745C120.508 171.029 120.343 171.28 120.113 171.462C119.86 171.653 119.55 171.752 119.233 171.74ZM119.233 168.722C119.347 168.728 119.459 168.693 119.548 168.623C119.622 168.563 119.686 168.491 119.737 168.411V167.52C119.738 167.369 119.724 167.219 119.694 167.071C119.673 166.952 119.621 166.84 119.544 166.746C119.504 166.703 119.455 166.669 119.4 166.647C119.346 166.625 119.287 166.615 119.228 166.619C119.171 166.615 119.114 166.625 119.061 166.647C119.008 166.669 118.96 166.703 118.923 166.746C118.84 166.848 118.786 166.97 118.767 167.1C118.737 167.276 118.723 167.454 118.725 167.633C118.724 167.817 118.733 168.001 118.753 168.184C118.758 168.324 118.802 168.46 118.88 168.576C118.923 168.628 118.978 168.669 119.04 168.695C119.103 168.72 119.171 168.73 119.238 168.722H119.233Z" fill="black"/>
<path d="M86.7792 125.014V119.284H89.179V120.019H87.8238V121.665H88.8919V122.396H87.8238V124.283H89.1931V125.004L86.7792 125.014Z" fill="white"/>
<path d="M89.8 125.014V119.284H90.5294L91.9175 122.552V119.284H92.7975V125.014H92.1058L90.6941 121.59V125.014H89.8Z" fill="white"/>
<path d="M94.2092 125.014V120.052H93.301V119.284H96.1526V120.052H95.2538V125.014H94.2092Z" fill="white"/>
<path d="M96.6842 125.014V119.284H99.084V120.019H97.7288V121.665H98.7923V122.396H97.7288V124.283H99.0981V125.004L96.6842 125.014Z" fill="white"/>
<path d="M99.7052 125.014V119.284H101.075C101.406 119.274 101.737 119.321 102.053 119.42C102.304 119.502 102.519 119.669 102.66 119.892C102.811 120.169 102.883 120.482 102.867 120.798C102.869 121.007 102.847 121.216 102.801 121.42C102.766 121.591 102.694 121.752 102.59 121.892C102.478 122.029 102.332 122.133 102.166 122.194L102.966 125.023H101.922L101.23 122.396H100.759V125.023L99.7052 125.014ZM100.75 121.712H101.075C101.236 121.716 101.396 121.685 101.545 121.623C101.661 121.563 101.752 121.462 101.799 121.34C101.857 121.18 101.884 121.01 101.879 120.84C101.896 120.613 101.84 120.386 101.719 120.194C101.643 120.112 101.549 120.05 101.444 120.012C101.34 119.974 101.227 119.962 101.117 119.977H100.736L100.75 121.712Z" fill="white"/>
<path d="M72.6767 42.407L71.6791 37.441H72.479L73.1331 40.9544L73.7448 37.441H74.5636L73.566 42.407H72.6767Z" fill="black"/>
<path d="M75.0718 42.407V37.441H77.1516V38.0776H75.9799V39.4924H76.921V40.1244H75.9799V41.8033H77.1657V42.4258L75.0718 42.407Z" fill="black"/>
<path d="M77.688 42.4069V37.4409H78.8785C79.1656 37.4346 79.4519 37.476 79.7255 37.5635C79.9432 37.6326 80.1297 37.7762 80.2525 37.9691C80.3825 38.2087 80.4443 38.4795 80.4313 38.752C80.4335 38.9343 80.4145 39.1163 80.3748 39.2943C80.3437 39.4412 80.2811 39.5796 80.1913 39.6999C80.0946 39.8191 79.9679 39.9103 79.8243 39.964L80.516 42.4069H79.622L79.0196 40.1338H78.6056V42.4069H77.688ZM78.5962 39.5773H78.8785C79.022 39.5845 79.1653 39.5587 79.2973 39.5018C79.4001 39.4521 79.4794 39.3641 79.5184 39.2566C79.568 39.1175 79.5903 38.9702 79.5843 38.8227C79.5985 38.6259 79.5508 38.4297 79.4479 38.2615C79.3814 38.1918 79.2994 38.1389 79.2086 38.1069C79.1179 38.075 79.0209 38.0649 78.9255 38.0776H78.5962V39.5773Z" fill="black"/>
<path d="M81.1326 42.407V37.441H82.0266V42.407H81.1326Z" fill="black"/>
<path d="M82.7936 42.407V37.441H84.8311V38.0682H83.697V39.516H84.6381V40.148H83.697V42.407H82.7936Z" fill="black"/>
<path d="M85.3251 42.407V37.441H86.2097V42.407H85.3251Z" fill="black"/>
<path d="M88.3178 42.4776C88.0171 42.4933 87.7186 42.4177 87.4614 42.2607C87.2567 42.1199 87.1058 41.9138 87.0332 41.6759C86.9458 41.4 86.9044 41.1116 86.9109 40.8223V39.049C86.9036 38.7504 86.9449 38.4525 87.0332 38.1671C87.1023 37.93 87.2543 37.7258 87.4614 37.5918C87.7211 37.4421 88.0187 37.3716 88.3178 37.389C88.5967 37.3744 88.8745 37.4347 89.1224 37.5635C89.3134 37.6765 89.4584 37.8536 89.5318 38.0634C89.6188 38.3035 89.6603 38.5578 89.6542 38.8132V39.233H88.7884V38.8038C88.7961 38.6766 88.7961 38.549 88.7884 38.4218C88.7797 38.3203 88.7384 38.2243 88.6707 38.1483C88.626 38.1107 88.5743 38.0825 88.5185 38.0655C88.4627 38.0485 88.404 38.043 88.346 38.0492C88.2233 38.0396 88.1017 38.0785 88.0072 38.1577C87.9321 38.237 87.8828 38.3373 87.8661 38.4454C87.8461 38.5796 87.8367 38.7152 87.8378 38.851V41.0109C87.8349 41.1598 87.8491 41.3086 87.8802 41.4542C87.9012 41.5571 87.9558 41.6501 88.0355 41.7183C88.1252 41.784 88.2352 41.8157 88.346 41.8079C88.404 41.8137 88.4625 41.807 88.5177 41.7883C88.5729 41.7696 88.6234 41.7393 88.666 41.6995C88.7356 41.6209 88.777 41.5213 88.7836 41.4165C88.8034 41.2838 88.8129 41.1498 88.8119 41.0156V40.544H89.6777V40.9449C89.6816 41.2102 89.6435 41.4744 89.5648 41.7278C89.4902 41.9455 89.3464 42.1327 89.1554 42.2607C88.904 42.4151 88.6123 42.4907 88.3178 42.4776Z" fill="black"/>
<path d="M90.0354 42.407L91.0236 37.441H91.9929L92.981 42.407H92.1435L91.9505 41.261H91.0847L90.8871 42.407H90.0354ZM91.1788 40.6856H91.8564L91.5176 38.6011L91.1788 40.6856Z" fill="black"/>
<path d="M93.7386 42.407V38.1106H92.9481V37.441H95.4185V38.1106H94.6421V42.407H93.7386Z" fill="black"/>
<path d="M95.8984 42.407V37.441H96.7925V42.407H95.8984Z" fill="black"/>
<path d="M98.9146 42.4775C98.6223 42.4924 98.3318 42.4237 98.077 42.2795C97.8687 42.1467 97.7112 41.9472 97.63 41.7135C97.5389 41.4385 97.496 41.1497 97.5029 40.8599V38.9735C97.4969 38.68 97.5431 38.3877 97.6394 38.1105C97.7165 37.8837 97.8673 37.6894 98.0676 37.5587C98.3243 37.42 98.614 37.3548 98.9052 37.37C99.1994 37.3543 99.4923 37.4195 99.7522 37.5587C99.9575 37.6864 100.115 37.8788 100.199 38.1057C100.293 38.3851 100.336 38.679 100.326 38.9735V40.8599C100.331 41.1534 100.285 41.4455 100.19 41.723C100.106 41.9537 99.9486 42.1507 99.7428 42.2842C99.4898 42.4239 99.2031 42.4908 98.9146 42.4775ZM98.9146 41.8079C99.0345 41.8189 99.1541 41.7835 99.2487 41.7088C99.324 41.6373 99.3737 41.5428 99.3898 41.44C99.415 41.3174 99.4276 41.1926 99.4275 41.0674V38.7801C99.428 38.6534 99.4154 38.527 99.3898 38.4029C99.3717 38.3035 99.3222 38.2125 99.2487 38.1435C99.1546 38.0666 99.0359 38.0264 98.9146 38.0303C98.7987 38.0225 98.6837 38.0559 98.5899 38.1246C98.5146 38.193 98.4634 38.284 98.444 38.384C98.4161 38.5077 98.4035 38.6344 98.4064 38.7613V41.0486C98.4048 41.1736 98.4159 41.2984 98.4393 41.4211C98.4568 41.5245 98.5081 41.6191 98.5852 41.69C98.6765 41.7685 98.7944 41.809 98.9146 41.8031V41.8079Z" fill="black"/>
<path d="M101.004 42.407V37.441H101.634L102.839 40.2706V37.441H103.583V42.407H102.985L101.776 39.4453V42.4117L101.004 42.407Z" fill="black"/>
<path d="M107.154 42.4777C106.855 42.4928 106.558 42.4172 106.302 42.2608C106.098 42.1201 105.947 41.9139 105.874 41.676C105.785 41.4005 105.742 41.112 105.747 40.8224V39.0492C105.741 38.7502 105.784 38.4523 105.874 38.1673C105.943 37.9301 106.095 37.7259 106.302 37.5919C106.56 37.4426 106.857 37.3721 107.154 37.3891C107.433 37.3734 107.711 37.4337 107.959 37.5636C108.151 37.6758 108.298 37.853 108.373 38.0635C108.46 38.3036 108.501 38.5579 108.495 38.8134V39.2331H107.629V38.8039C107.629 38.6762 107.621 38.5487 107.606 38.4219C107.597 38.3204 107.556 38.2244 107.488 38.1484C107.443 38.1108 107.392 38.0827 107.336 38.0656C107.28 38.0486 107.221 38.0431 107.163 38.0494C107.041 38.0397 106.919 38.0786 106.825 38.1578C106.748 38.2358 106.698 38.3368 106.684 38.4455C106.664 38.5797 106.654 38.7154 106.655 38.8511V41.011C106.652 41.16 106.667 41.3087 106.698 41.4544C106.719 41.5573 106.773 41.6502 106.853 41.7185C106.943 41.7841 107.053 41.8159 107.163 41.8081C107.221 41.8138 107.28 41.8071 107.335 41.7884C107.39 41.7697 107.441 41.7394 107.483 41.6996C107.55 41.6193 107.591 41.5207 107.601 41.4166C107.621 41.2839 107.63 41.1499 107.629 41.0158V40.5442H108.495V40.945C108.5 41.2108 108.46 41.4754 108.377 41.7279C108.306 41.9462 108.164 42.1339 107.973 42.2608C107.727 42.4114 107.442 42.4868 107.154 42.4777Z" fill="black"/>
<path d="M110.471 42.4776C110.179 42.492 109.889 42.4234 109.634 42.2796C109.425 42.1468 109.268 41.9473 109.187 41.7136C109.093 41.4343 109.048 41.1406 109.055 40.8459V38.9736C109.048 38.6804 109.092 38.3882 109.187 38.1106C109.27 37.8827 109.427 37.6898 109.634 37.5635C109.897 37.4394 110.185 37.3751 110.476 37.3751C110.767 37.3751 111.055 37.4394 111.318 37.5635C111.525 37.6898 111.682 37.8827 111.765 38.1106C111.864 38.3872 111.91 38.6799 111.902 38.9736V40.86C111.909 41.1537 111.863 41.4462 111.765 41.7231C111.683 41.9549 111.526 42.1524 111.318 42.2843C111.06 42.4275 110.766 42.4945 110.471 42.4776ZM110.471 41.808C110.591 41.819 110.711 41.7836 110.805 41.7089C110.879 41.6355 110.93 41.5421 110.951 41.4401C110.975 41.3173 110.986 41.1925 110.984 41.0675V38.7802C110.986 38.6537 110.975 38.5273 110.951 38.403C110.929 38.3042 110.878 38.2141 110.805 38.1436C110.707 38.0817 110.593 38.0488 110.476 38.0488C110.36 38.0488 110.245 38.0817 110.147 38.1436C110.071 38.212 110.02 38.303 110.001 38.403C109.975 38.5271 109.963 38.6535 109.963 38.7802V41.0675C109.964 41.1924 109.975 41.317 109.996 41.4401C110.014 41.5435 110.065 41.6381 110.142 41.7089C110.236 41.7807 110.354 41.8144 110.471 41.8032V41.808Z" fill="black"/>
<path d="M112.561 42.4069V37.4409H113.728C114.05 37.4272 114.371 37.4835 114.669 37.606C114.881 37.714 115.048 37.8947 115.139 38.1153C115.242 38.3943 115.29 38.6906 115.28 38.9878V40.8035C115.289 41.1083 115.241 41.4122 115.139 41.6995C115.054 41.9295 114.886 42.1194 114.669 42.2324C114.383 42.3627 114.07 42.4225 113.756 42.4069H112.561ZM113.464 41.775H113.742C113.899 41.7902 114.056 41.752 114.189 41.6665C114.284 41.5857 114.343 41.4704 114.353 41.3458C114.374 41.1737 114.383 41.0004 114.382 40.8271V38.9406C114.384 38.7824 114.37 38.6243 114.339 38.469C114.33 38.4147 114.31 38.3629 114.28 38.3166C114.25 38.2704 114.211 38.2308 114.165 38.2002C114.029 38.1341 113.878 38.1048 113.728 38.1153H113.464V41.775Z" fill="black"/>
<path d="M115.977 42.407V37.441H118.057V38.0776H116.88V39.4924H117.821V40.1244H116.88V41.8033H118.071V42.4258L115.977 42.407Z" fill="black"/>
<path d="M183.049 3.33418V26.5467" stroke="black" stroke-width="0.471607" stroke-linecap="round" stroke-linejoin="round" stroke-dasharray="2.36 2.36"/>
<path d="M183.045 66.1712V85.7241C183.048 87.262 182.748 88.7855 182.164 90.2074C181.579 91.6294 180.72 92.9219 179.637 94.0112C178.554 95.1004 177.267 95.965 175.85 96.5556C174.433 97.1461 172.914 97.4511 171.38 97.4529H146.807" stroke="black" stroke-width="0.471607" stroke-linecap="round" stroke-linejoin="round" stroke-dasharray="2.36 2.36"/>
<path d="M147.669 94.4911L142.591 97.4292L147.669 100.372V94.4911Z" fill="black"/>
<path d="M209.087 36.9463L167.33 28.3328L161.178 58.2933L202.935 66.9068L209.087 36.9463Z" fill="black"/>
<path d="M206.93 34.162L165.173 25.5485L159.021 55.509L200.778 64.1225L206.93 34.162Z" fill="white" stroke="black" stroke-width="0.471607" stroke-miterlimit="10"/>
<path d="M165.173 25.5423L182.974 44.831L206.93 34.1586" stroke="black" stroke-width="0.471607" stroke-linecap="round" stroke-linejoin="round"/>
<path d="M176.476 194.208C176.476 194.208 168.316 183.285 158.134 175.74C147.951 168.194 139.217 165.081 136.818 165.803C134.418 166.524 132.314 168.845 132.314 168.845L103.86 197.481C103.86 197.481 94.4727 204.909 93.4375 205.559C92.4023 206.21 87.5556 209.238 84.5864 210.172C81.6172 211.105 76.7564 210.959 76.7329 211.865C76.7094 212.77 77.3635 213.468 78.8127 214.081C81.5068 215.144 84.354 215.765 87.245 215.921C89.4502 215.958 91.6436 216.253 93.781 216.798C94.7927 217.052 97.696 218.387 98.4065 217.269C99.1171 216.152 100.101 209.724 100.345 209.049C100.59 208.375 109.61 201.843 115.925 198.745C122.24 195.646 129.971 190.548 132.197 188.119C134.423 185.691 137.698 181.937 137.698 181.937C137.698 181.937 147.819 191.534 151.306 196.061C154.793 200.589 160.392 206.196 170.547 210.922C180.701 215.647 184.437 211.794 185.134 207.955C185.83 204.116 176.476 194.208 176.476 194.208Z" fill="white" stroke="black" stroke-width="0.471607" stroke-linecap="round" stroke-linejoin="round"/>
<path d="M158.134 175.74C147.946 168.194 139.217 165.081 136.818 165.803C134.418 166.524 132.314 168.845 132.314 168.845L104.194 197.141C104.806 198.853 106.194 201.06 109.37 202.508C111.491 201.137 113.682 199.877 115.934 198.735C122.249 195.632 129.98 190.534 132.206 188.105C134.432 185.676 137.707 181.922 137.707 181.922C137.707 181.922 147.828 191.52 151.315 196.047C154.802 200.574 164.251 213.247 175.078 216.1C195.006 221.358 194.328 211.176 195.006 207.337C195.684 203.498 176.485 194.194 176.485 194.194C176.485 194.194 168.316 183.285 158.134 175.74Z" fill="black" stroke="black" stroke-width="0.471607" stroke-linecap="round" stroke-linejoin="round"/>
<path d="M76.7328 211.865C76.7046 212.77 77.3633 213.468 78.8126 214.081C81.5067 215.144 84.3539 215.765 87.2449 215.921C89.4501 215.958 91.6435 216.253 93.7809 216.798C94.7926 217.052 97.6959 218.387 98.4064 217.269C99.0181 216.326 99.8181 211.426 100.204 209.648C97.103 209.747 93.5786 208.394 93.5786 208.394C93.5786 208.394 93.8279 207.606 93.4374 205.564C92.3975 206.215 87.5555 209.243 84.5863 210.176C81.6171 211.11 76.7563 210.959 76.7328 211.865Z" fill="white" stroke="black" stroke-width="0.471607" stroke-linecap="round" stroke-linejoin="round"/>
<path d="M211.475 152.296C208.779 149.881 202.718 144.099 198.483 136.865C194.248 129.631 195.406 127.32 192.23 121.627C189.053 115.935 184.437 113.138 178.179 114.393C173.102 115.412 170.495 118.468 169.709 119.581C169.526 119.831 169.342 120.052 169.144 120.307C168.232 121.377 165.342 125.348 163.183 134.648C160.58 145.835 160.679 151.329 164.622 153.932C168.566 156.536 171.361 155.38 172.514 156.635C173.666 157.889 174.052 159.431 173.092 159.431C172.825 159.441 172.558 159.394 172.309 159.294C172.06 159.194 171.835 159.043 171.648 158.851C171.648 158.851 173.859 162.228 175.977 161.261C178.094 160.294 180.499 156.828 178.96 152.197C177.421 147.566 173.285 142.845 172.608 141.977C171.93 141.109 170.589 131.078 170.589 131.078C170.589 131.078 170.688 127.702 174.438 128.862C178.188 130.022 183.289 132.139 184.927 135.516C186.564 138.893 192.625 146.509 197.914 148.82C203.203 151.131 205.325 153.258 207.25 158.95C209.174 164.643 209.174 166.468 209.174 166.468C209.174 166.468 213.117 164.638 213.88 160.493C214.642 156.347 214.167 154.706 211.475 152.296ZM164.999 152.485C163.173 150.461 164.326 146.797 164.326 146.797C163.747 151.985 169.714 154.899 169.714 154.899C169.714 154.899 166.829 154.517 164.999 152.485Z" fill="black" stroke="black" stroke-width="0.471607" stroke-linecap="round" stroke-linejoin="round"/>
<path d="M176.899 195.075C176.899 195.075 164.124 192.807 160.957 193.944C157.79 195.08 149.537 208.677 148.064 210.261C146.591 211.846 145.01 212.53 143.655 212.53C142.299 212.53 137.434 211.624 134.606 212.19C131.778 212.756 128.272 214.572 128.616 216.27C128.959 217.967 130.536 218.764 135.74 219.571C140.944 220.377 146.483 218.439 147.951 217.642C149.419 216.845 151.118 215.718 151.569 215.491C152.021 215.265 156.091 214.355 158.355 212.883C160.035 211.725 161.622 210.436 163.103 209.03C163.103 209.03 172.716 213.449 176.334 215.378C179.953 217.307 185.609 218.552 188.776 218.552C191.943 218.552 198.841 217.642 200.54 216.85C202.238 216.057 205.4 212.997 205.4 209.488C205.4 205.979 205.777 201.07 204.624 200.857C203.471 200.645 202.459 201.103 201.33 200.989C200.201 200.876 193.975 197.363 192.39 196.679C190.804 195.995 176.899 195.075 176.899 195.075Z" fill="black" stroke="black" stroke-width="0.471607" stroke-linecap="round" stroke-linejoin="round"/>
<path d="M157.112 198C158.313 196.579 159.597 195.231 160.957 193.963C162.368 192.826 172.857 194.043 172.857 194.043" stroke="white" stroke-width="0.471607" stroke-linecap="round" stroke-linejoin="round"/>
<path d="M155.108 200.306C155.108 200.306 155.578 199.735 156.294 198.933" stroke="white" stroke-width="0.471607" stroke-linecap="round" stroke-linejoin="round"/>
<path d="M147.72 210.639C146.351 211.973 144.897 212.563 143.655 212.563C142.295 212.563 137.434 211.657 134.606 212.223C131.778 212.789 128.272 214.605 128.616 216.303C128.959 218 130.536 218.797 135.74 219.604C140.944 220.41 146.483 218.472 147.951 217.675C149.419 216.878 151.028 215.789 151.532 215.543C150.574 215.06 149.735 214.369 149.076 213.52C148.417 212.672 147.954 211.688 147.72 210.639Z" fill="white" stroke="black" stroke-width="0.471607" stroke-linecap="round" stroke-linejoin="round"/>
<path d="M143.993 214.93C143.448 214.039 144.055 213.044 144.624 212.435C144.306 212.509 143.981 212.547 143.655 212.548C142.295 212.548 137.434 211.643 134.606 212.209C131.778 212.775 128.272 214.591 128.616 216.288C128.959 217.986 130.536 218.783 135.74 219.59C140.944 220.396 146.483 218.458 147.951 217.661C148.177 217.543 148.421 217.411 148.638 217.279C147.207 217.066 144.784 216.213 143.993 214.93Z" fill="white" stroke="black" stroke-width="0.471607" stroke-linecap="round" stroke-linejoin="round"/>
<path d="M178.857 148.245C178.857 148.245 170.001 148.339 169.041 151.716C168.081 155.093 168.942 171.679 168.848 177.183C168.754 182.687 168.754 186.247 169.427 187.601C170.1 188.954 174.043 191.458 174.335 191.553C174.626 191.647 174.236 194.637 174.236 194.637C174.236 194.637 181.068 195.505 184.917 195.604C188.766 195.703 192.23 197.146 195.787 199.943C199.344 202.739 201.66 204.569 201.66 204.569L203.871 202.159C203.871 202.159 204.737 210.356 205.702 214.119C206.666 217.883 209.937 218.071 210.878 218.071C211.819 218.071 215.014 217.977 215.014 217.977C215.014 217.977 211.936 212.285 210.586 208.427C209.235 204.569 208.374 201.291 208.374 201.291C208.374 201.291 209.047 200.23 209.047 197.919C209.047 195.609 208.577 194.255 208.666 191.939C208.755 189.624 212.901 179.498 211.165 168.218C209.428 156.937 210.012 153.749 205.777 151.532C201.542 149.316 192.305 147.962 189.708 147.759C187.11 147.557 178.857 148.245 178.857 148.245Z" fill="#3382EB" stroke="black" stroke-width="0.471607" stroke-linecap="round" stroke-linejoin="round"/>
<path d="M172.598 141.977C172.347 141.437 172.172 140.864 172.081 140.275C170.062 136.893 168.236 133.403 167.756 131.743C167.027 129.23 167.587 124.448 167.968 121.934C166.665 124.009 164.726 127.942 163.173 134.667C160.571 145.854 160.67 151.348 164.613 153.951C168.556 156.555 171.351 155.399 172.504 156.654C173.657 157.908 174.043 159.45 173.083 159.45C172.815 159.459 172.548 159.413 172.3 159.313C172.051 159.213 171.826 159.062 171.638 158.87C171.638 158.87 173.85 162.247 175.967 161.28C178.085 160.313 180.489 156.847 178.951 152.216C177.412 147.585 173.262 142.845 172.598 141.977ZM164.999 152.485C163.173 150.461 164.326 146.797 164.326 146.797C163.747 151.985 169.714 154.899 169.714 154.899C169.714 154.899 166.829 154.517 164.999 152.485Z" fill="black" stroke="black" stroke-width="0.471607" stroke-linecap="round" stroke-linejoin="round"/>
<path d="M191.086 192.821L193.834 193.217" stroke="black" stroke-width="0.471607" stroke-linecap="round" stroke-linejoin="round"/>
<path d="M175.473 177.989C175.473 177.989 173.539 189.629 174.358 190.1C174.913 190.416 183.51 191.713 189.096 192.529" stroke="black" stroke-width="0.471607" stroke-linecap="round" stroke-linejoin="round"/>
<path d="M175.182 190.685L174.236 194.628" stroke="black" stroke-width="0.471607" stroke-linecap="round" stroke-linejoin="round"/>
<path d="M195.947 198.037C195.947 198.037 201.754 200.037 204.624 200.867C207.494 201.697 207.918 201.395 207.918 201.395" stroke="black" stroke-width="0.471607" stroke-linecap="round" stroke-linejoin="round"/>
<path d="M186.211 156.941L190.55 159.413L190.668 155.767" stroke="black" stroke-width="0.471607" stroke-linecap="round" stroke-linejoin="round"/>
<path d="M180.287 156.475L179.464 157.121" stroke="black" stroke-width="0.471607" stroke-linecap="round" stroke-linejoin="round"/>
<path d="M174.829 164.35L174.772 162.115" stroke="black" stroke-width="0.471607" stroke-linecap="round" stroke-linejoin="round"/>
<path d="M172.791 126.164C172.791 126.164 167.77 130.555 167.77 131.743C167.77 132.932 169.413 138.148 170.053 140.256C170.834 142.502 172.078 144.559 173.704 146.293C175.163 147.849 177.995 149.679 178.635 149.679C179.149 149.623 179.645 149.463 180.094 149.207C180.094 149.207 180.461 156.71 181.736 159.365C183.012 162.021 183.656 161.926 183.929 161.285C184.202 160.644 187.581 149.575 187.581 149.575L189.223 141.704L185.755 132.743C185.755 132.743 180.918 128.442 177.628 127.343C174.339 126.245 172.791 126.164 172.791 126.164Z" fill="white" stroke="black" stroke-width="0.471607" stroke-linecap="round" stroke-linejoin="round"/>
<path d="M175.615 141.992C175.615 141.992 175.615 143.642 175.892 143.732C176.17 143.821 177.351 144.203 177.718 143.26" stroke="black" stroke-width="0.471607" stroke-linecap="round" stroke-linejoin="round"/>
<path d="M176.612 145.557C176.612 145.557 179.351 145.925 180.264 144" stroke="black" stroke-width="0.471607" stroke-linecap="round" stroke-linejoin="round"/>
<path d="M180.08 149.221C180.08 149.221 183.092 146.863 184.739 144.647C184.739 144.647 182.913 148.948 182.362 150.046C182.049 150.668 181.776 151.309 181.544 151.966L180.08 149.221Z" fill="black" stroke="black" stroke-width="0.471607" stroke-linecap="round" stroke-linejoin="round"/>
<path d="M178.438 137.785C178.438 137.785 180.904 138.516 181.906 136.96" stroke="black" stroke-width="0.471607" stroke-linecap="round" stroke-linejoin="round"/>
<path d="M177.341 135.587C177.341 135.587 180.08 134.031 182 134.672" stroke="black" stroke-width="0.471607" stroke-linecap="round" stroke-linejoin="round"/>
<path d="M170.857 138.884C171.282 139.146 171.78 139.26 172.276 139.21C172.772 139.16 173.237 138.947 173.601 138.605" stroke="black" stroke-width="0.471607" stroke-linecap="round" stroke-linejoin="round"/>
<path d="M173.417 136.596C173.417 136.596 172.048 135.677 170.038 136.686" stroke="black" stroke-width="0.471607" stroke-linecap="round" stroke-linejoin="round"/>
<path d="M199.062 159.913C199.062 159.913 198.003 163.577 198.389 166.086C198.775 168.595 198.201 176.683 198.201 177.079C198.201 177.475 196.084 178.428 196.178 179.102C196.299 179.754 196.456 180.397 196.648 181.031L193.566 179.777L189.43 185.276C192.117 187.715 195.089 189.82 198.281 191.543C203.862 194.628 207.692 193.666 207.692 193.666C207.692 193.666 209.904 180.069 210.195 173.99C210.487 167.911 211.828 159.913 209.725 154.225C208.073 149.778 200.784 149.207 199.142 156.828" fill="#3382EB"/>
<path d="M199.062 159.913C199.062 159.913 198.003 163.577 198.389 166.086C198.775 168.595 198.201 176.683 198.201 177.079C198.201 177.475 196.084 178.428 196.178 179.102C196.299 179.754 196.456 180.397 196.648 181.031L193.566 179.777L189.43 185.276C192.117 187.715 195.089 189.82 198.281 191.543C203.862 194.628 207.692 193.666 207.692 193.666C207.692 193.666 209.904 180.069 210.195 173.99C210.487 167.911 211.828 159.913 209.725 154.225C208.073 149.778 200.784 149.207 199.142 156.828" stroke="black" stroke-width="0.471607" stroke-linecap="round" stroke-linejoin="round"/>
<path d="M204.186 175.155L205.123 174.763" stroke="black" stroke-width="0.471607" stroke-linecap="round" stroke-linejoin="round"/>
<path d="M199.349 177.173L203.015 175.645" stroke="black" stroke-width="0.471607" stroke-linecap="round" stroke-linejoin="round"/>
<path d="M197.33 181.224C197.33 181.224 205.41 179.201 205.33 179.876C205.25 180.55 202.539 180.819 202.539 180.819" stroke="black" stroke-width="0.471607" stroke-linecap="round" stroke-linejoin="round"/>
<path d="M198.201 181.611C198.201 181.611 204.163 182.286 205.222 184.794" stroke="black" stroke-width="0.471607" stroke-linecap="round" stroke-linejoin="round"/>
<path d="M204.205 187.28C204.549 187.502 204.923 187.672 205.316 187.784" stroke="black" stroke-width="0.471607" stroke-linecap="round" stroke-linejoin="round"/>
<path d="M197.73 182.479C197.73 182.479 200.907 185.101 203.241 186.662" stroke="black" stroke-width="0.471607" stroke-linecap="round" stroke-linejoin="round"/>
<path d="M160.458 164.704C160.458 164.704 158.289 169.35 159.108 170.114C159.926 170.878 164.858 175.636 165.328 175.872C165.799 176.108 167.145 180.225 167.85 181.809C168.556 183.394 168.966 187.101 170.311 187.629C171.657 188.157 174.546 185.398 174.593 183.988C174.641 182.578 174.593 182.045 173.304 180.215C172.015 178.385 169.069 172.514 169.069 172.514L161.027 163.761L160.458 164.704Z" fill="white" stroke="black" stroke-width="0.471607" stroke-linecap="round" stroke-linejoin="round"/>
<path d="M156.708 158.941L165.799 173.754L172.777 174.697L165.973 161.233L156.708 158.941Z" fill="black" stroke="black" stroke-width="0.471607" stroke-linecap="round" stroke-linejoin="round"/>
<path d="M193.575 179.777C193.575 179.777 183.186 172.438 180.489 170.618C179.146 169.736 177.861 168.768 176.64 167.722C176.64 167.722 176.353 165.892 175.699 165.119C175.045 164.346 174.353 164.176 173.102 164.251C171.85 164.327 170.791 164.544 170.02 164.251C169.248 163.959 167.808 161.554 167.615 162.615C167.422 163.676 167.521 164.445 168.481 165.218C169.441 165.991 170.791 166.279 171.177 166.468C171.563 166.656 170.566 166.821 170.566 166.821C169.017 167.368 167.363 167.549 165.733 167.35C164.123 167.14 162.548 166.715 161.051 166.086C160.378 165.892 160.472 166.855 161.244 167.435C162.016 168.015 162.491 168.302 162.491 168.302C162.491 168.302 160.086 167.916 160.378 168.689C160.67 169.462 161.724 170.137 162.397 170.618C163.07 171.099 163.743 171.967 164.321 172.254C164.9 172.542 164.994 173.896 165.959 174.476C166.923 175.056 166.636 174.99 169.093 175.216C171.668 175.423 174.257 175.401 176.829 175.15L189.435 185.275L193.575 179.777Z" fill="white" stroke="black" stroke-width="0.471607" stroke-linecap="round" stroke-linejoin="round"/>
<path d="M162.496 168.302C162.496 168.302 164.905 169.458 165.286 169.458H170.486" stroke="black" stroke-width="0.471607" stroke-linecap="round" stroke-linejoin="round"/>
<path d="M161.969 170.406C162.529 170.474 163.079 170.611 163.606 170.816C163.945 171.043 166.147 171.481 166.825 171.594C167.838 171.665 168.854 171.684 169.869 171.651" stroke="black" stroke-width="0.471607" stroke-linecap="round" stroke-linejoin="round"/>
<path d="M164.321 172.255C164.321 172.255 167.008 173.575 167.516 173.669C168.608 173.698 169.7 173.66 170.787 173.556" stroke="black" stroke-width="0.471607" stroke-linecap="round" stroke-linejoin="round"/>
<path d="M195.886 141.977C192.41 138.241 189.226 134.243 186.362 130.017C186.362 130.017 185.303 145.156 187.609 151.617C189.915 158.078 198.389 155.39 201.368 153.739C204.346 152.089 205.41 150.848 207.24 151.136C203.082 148.579 199.267 145.502 195.886 141.977Z" fill="black" stroke="black" stroke-width="0.471607" stroke-linecap="round" stroke-linejoin="round"/>
<path d="M174.203 125.396C170.843 121.396 172.791 126.164 172.791 126.164C172.791 126.164 179.224 132.319 185.755 132.767C185.741 132.753 177.572 129.395 174.203 125.396Z" fill="black" stroke="black" stroke-width="0.471607" stroke-linecap="round" stroke-linejoin="round"/>
</g>
<defs>
<clipPath id="clip0_3_821">
<rect width="223.056" height="220" fill="white"/>
</clipPath>
</defs>
</svg>
