<svg width="30" height="30" viewBox="0 0 30 30" fill="none" xmlns="http://www.w3.org/2000/svg">
<rect width="30" height="30" rx="15" fill="#3382EB"/>
<path d="M22.5 18.6833V21.6301C22.5 22.0676 22.1617 22.4306 21.7254 22.4614C21.3609 22.4872 21.0636 22.5 20.8333 22.5C13.4695 22.5 7.5 16.5305 7.5 9.16667C7.5 8.93642 7.51288 8.63906 7.53863 8.27458C7.56948 7.83823 7.93245 7.5 8.36988 7.5H11.3168C11.5307 7.5 11.7098 7.66202 11.7313 7.87483C11.7506 8.06589 11.7685 8.21928 11.7851 8.33502C11.9536 9.51227 12.2979 10.6328 12.7906 11.6692C12.8697 11.8355 12.8181 12.0347 12.6682 12.1417L10.8696 13.4265C11.9646 15.9843 14.0157 18.0354 16.5735 19.1304L17.8559 17.3349C17.9643 17.1832 18.1658 17.1311 18.3342 17.211C19.3705 17.7032 20.4909 18.0472 21.668 18.2153C21.783 18.2318 21.9354 18.2496 22.1252 18.2687C22.338 18.2902 22.5 18.4694 22.5 18.6833Z" fill="white"/>
</svg>
