<svg width="30" height="30" viewBox="0 0 30 30" fill="none" xmlns="http://www.w3.org/2000/svg">
<g clip-path="url(#clip0_185_7)">
<path fill-rule="evenodd" clip-rule="evenodd" d="M25.9746 0H4.02539C2.95817 0.00122512 1.935 0.425721 1.18036 1.18036C0.425721 1.935 0.00122512 2.95817 0 4.02539L0 25.9746C0.00120964 27.0418 0.425701 28.065 1.18035 28.8197C1.93499 29.5743 2.95816 29.9988 4.02539 30H25.9746C27.0418 29.9988 28.065 29.5743 28.8197 28.8197C29.5743 28.065 29.9988 27.0418 30 25.9746V4.02539C29.9988 2.95817 29.5743 1.935 28.8196 1.18036C28.065 0.425721 27.0418 0.00122512 25.9746 0ZM21.0328 9.43125C21.2193 9.43125 21.3981 9.50533 21.53 9.63719C21.6619 9.76905 21.7359 9.9479 21.7359 10.1344C21.7359 10.3209 21.6619 10.4997 21.53 10.6316C21.3981 10.7634 21.2193 10.8375 21.0328 10.8375H20.6473V21.1793C20.6468 21.6693 20.4519 22.139 20.1054 22.4855C19.759 22.8319 19.2892 23.0268 18.7992 23.0273H11.201C10.711 23.0268 10.2413 22.8319 9.89487 22.4855C9.54843 22.139 9.35357 21.6693 9.35303 21.1794V10.8376H8.96695C8.78047 10.8376 8.60163 10.7635 8.46977 10.6316C8.33791 10.4998 8.26383 10.3209 8.26383 10.1344C8.26383 9.94795 8.33791 9.76911 8.46977 9.63725C8.60163 9.50539 8.78047 9.43131 8.96695 9.43131H11.5869C11.8261 8.71531 12.2843 8.09264 12.8968 7.65144C13.5094 7.21023 14.2451 6.97283 15 6.97283C15.7549 6.97283 16.4906 7.21023 17.1032 7.65144C17.7157 8.09264 18.1739 8.71531 18.4131 9.43131L21.0328 9.43125ZM15 8.37891C15.3765 8.37787 15.7469 8.47422 16.0753 8.65862C16.4036 8.84301 16.6786 9.10917 16.8737 9.43125H13.1263C13.3214 9.10916 13.5964 8.843 13.9247 8.6586C14.253 8.47421 14.6235 8.37786 15 8.37891ZM19.241 21.1794C19.2408 21.2965 19.1941 21.4087 19.1113 21.4915C19.0285 21.5743 18.9163 21.6209 18.7992 21.6211H11.201C11.0839 21.621 10.9716 21.5744 10.8888 21.4916C10.806 21.4088 10.7594 21.2966 10.7593 21.1795V10.8377H19.241V21.1795V21.1794ZM12.9705 19.6517V13.0986C12.9705 12.9122 13.0446 12.7333 13.1764 12.6014C13.3083 12.4696 13.4871 12.3955 13.6736 12.3955C13.8601 12.3955 14.0389 12.4696 14.1708 12.6014C14.3027 12.7333 14.3767 12.9122 14.3767 13.0986V19.6517C14.3767 19.8382 14.3027 20.017 14.1708 20.1489C14.0389 20.2807 13.8601 20.3548 13.6736 20.3548C13.4871 20.3548 13.3083 20.2807 13.1764 20.1489C13.0446 20.017 12.9705 19.8382 12.9705 19.6517ZM15.6233 19.6517V13.0986C15.6233 12.9122 15.6974 12.7333 15.8293 12.6014C15.9611 12.4696 16.14 12.3955 16.3264 12.3955C16.5129 12.3955 16.6918 12.4696 16.8236 12.6014C16.9555 12.7333 17.0296 12.9122 17.0296 13.0986V19.6517C17.0296 19.8382 16.9555 20.017 16.8236 20.1489C16.6918 20.2807 16.5129 20.3548 16.3264 20.3548C16.14 20.3548 15.9611 20.2807 15.8293 20.1489C15.6974 20.017 15.6233 19.8382 15.6233 19.6517Z" fill="url(#paint0_linear_185_7)"/>
</g>
<defs>
<linearGradient id="paint0_linear_185_7" x1="29.9999" y1="29.3743" x2="5.98951e-05" y2="0.6257" gradientUnits="userSpaceOnUse">
<stop stop-color="#FF2F2F"/>
<stop offset="1" stop-color="#FF8C8C"/>
</linearGradient>
<clipPath id="clip0_185_7">
<rect width="30" height="30" fill="white"/>
</clipPath>
</defs>
</svg>
