<svg width="30" height="30" viewBox="0 0 30 30" fill="none" xmlns="http://www.w3.org/2000/svg">
<rect width="30" height="30" rx="5" fill="#009B27" fill-opacity="0.1"/>
<path d="M21.4 15C21.4 11.4654 18.5346 8.6 15 8.6C11.4654 8.6 8.6 11.4654 8.6 15C8.6 18.5346 11.4654 21.4 15 21.4C18.5346 21.4 21.4 18.5346 21.4 15ZM23 15C23 19.4182 19.4182 23 15 23C10.5817 23 7 19.4182 7 15C7 10.5817 10.5817 7 15 7C19.4182 7 23 10.5817 23 15ZM16.2002 11.8C16.4622 12.1488 16.65 12.5567 16.74 13H18.2V14.2H16.74C16.462 15.5694 15.2514 16.6 13.8 16.6H13.6486L16.6242 19.5758L15.7758 20.4242L11.8 16.4486V15.4H13.8C14.5838 15.4 15.2505 14.8991 15.4976 14.2H11.8V13H15.4976C15.2505 12.3009 14.5838 11.8 13.8 11.8H11.8V10.6H18.2V11.8H16.2002Z" fill="#009B27"/>
</svg>
