<svg width="30" height="30" viewBox="0 0 30 30" fill="none" xmlns="http://www.w3.org/2000/svg">
<g clip-path="url(#clip0_8_1839)">
<rect width="30" height="30" rx="5" fill="#00DAB3" fill-opacity="0.2"/>
<g clip-path="url(#clip1_8_1839)">
<path d="M24.9023 10.5647L8.25112 6.10153C7.41365 5.87705 6.55277 6.37398 6.32829 7.21145L4.05075 15.7084C3.82627 16.5459 4.3232 17.4068 5.16068 17.6313L21.8119 22.0945C22.6494 22.319 23.5103 21.822 23.7347 20.9845L26.0123 12.4876C26.2368 11.6501 25.7398 10.7892 24.9023 10.5647Z" fill="#57BC87"/>
<path d="M23.2734 10.8398H23.281L9.40545 7.13262L9.41072 7.13789C8.56169 8.73047 6.93923 8.8916 6.62634 8.90625L5.1615 14.3889C5.1615 14.3889 6.63044 15.2092 6.69021 17.182L20.625 20.9039C21.6609 19.2234 23.3431 19.2457 23.3431 19.2457L24.808 13.7631C24.5414 13.5938 23.2154 12.6451 23.2734 10.8398ZM22.8961 18.7219C21.8917 18.8888 20.9909 19.4378 20.3824 20.2541L7.22224 16.7385C7.10206 15.7277 6.59514 14.8026 5.80779 14.1574L7.07341 9.4207C7.72087 9.30762 8.88162 8.94609 9.67556 7.78828L22.7197 11.2734C22.8304 12.6732 23.6572 13.5656 24.1611 13.9863L22.8961 18.7219Z" fill="#288C59"/>
<path d="M7.56912 16.4279C7.40028 15.5054 6.93688 14.6625 6.24841 14.0256L7.38865 9.7582C8.05896 9.60234 9.06443 9.21269 9.83201 8.23769L22.3611 11.584C22.5398 12.8145 23.2172 13.6518 23.7211 14.1211L22.5808 18.3867C21.666 18.5956 20.8435 19.0956 20.2371 19.8117L7.56912 16.4279Z" fill="#288C59"/>
<path d="M15 17.6402C17.0025 17.6402 18.6258 16.0169 18.6258 14.0145C18.6258 12.012 17.0025 10.3887 15 10.3887C12.9976 10.3887 11.3743 12.012 11.3743 14.0145C11.3743 16.0169 12.9976 17.6402 15 17.6402Z" fill="#57BC87"/>
<path d="M22.9664 11.1785H5.83123C4.96947 11.1785 4.27087 11.8771 4.27087 12.7389V21.4834C4.27087 22.3452 4.96947 23.0438 5.83123 23.0438H22.9664C23.8281 23.0438 24.5267 22.3452 24.5267 21.4834V12.7389C24.5267 11.8771 23.8281 11.1785 22.9664 11.1785Z" fill="#67CD9D"/>
<path d="M7.85508 21.3527C7.4547 20.5059 6.7904 19.8118 5.96191 19.3746V14.9654C6.56836 14.6426 7.43789 14.0074 7.92656 12.8695H20.8717C21.3603 14.0074 22.2299 14.6426 22.8363 14.9654V19.3746C22.008 19.8119 21.3437 20.506 20.9432 21.3527H7.85508Z" fill="#339969"/>
<path d="M21.5625 11.9191L21.569 11.9156H7.2311L7.23755 11.9191C6.82739 13.677 5.30396 14.2465 5.01099 14.3426V20.0068C5.01099 20.0068 6.63872 20.417 7.20532 22.3066H21.5965C22.1625 20.4193 23.7903 20.0068 23.7903 20.0068V14.3426C23.4926 14.2465 21.9727 13.674 21.5625 11.9191ZM23.2266 19.6178C22.3013 20.0377 21.5742 20.7992 21.1975 21.743H7.60376C7.22726 20.7991 6.50012 20.0375 5.57466 19.6178V14.724C6.16997 14.448 7.19595 13.8006 7.66353 12.4793H21.1401C21.6088 13.8006 22.6336 14.448 23.229 14.724L23.2266 19.6178Z" fill="#339969"/>
<path d="M8.59106 16.2123C8.41332 16.2128 8.2397 16.2659 8.09216 16.365C7.94462 16.4642 7.82978 16.6048 7.76216 16.7692C7.69454 16.9336 7.67718 17.1143 7.71227 17.2886C7.74736 17.4628 7.83332 17.6227 7.95929 17.7481C8.08526 17.8735 8.24559 17.9588 8.41999 17.9931C8.5944 18.0274 8.77506 18.0092 8.93913 17.9408C9.1032 17.8724 9.24332 17.757 9.34177 17.609C9.44022 17.461 9.49258 17.2871 9.49223 17.1094C9.492 16.9913 9.46851 16.8744 9.42309 16.7654C9.37767 16.6564 9.31121 16.5574 9.22752 16.4741C9.14384 16.3908 9.04455 16.3248 8.93534 16.2799C8.82614 16.235 8.70915 16.212 8.59106 16.2123ZM8.59106 17.533C8.50762 17.533 8.42606 17.5083 8.35668 17.4619C8.2873 17.4155 8.23323 17.3497 8.2013 17.2726C8.16937 17.1955 8.16102 17.1107 8.17729 17.0288C8.19357 16.947 8.23375 16.8718 8.29275 16.8128C8.35175 16.7538 8.42692 16.7136 8.50876 16.6974C8.59059 16.6811 8.67542 16.6894 8.75251 16.7214C8.8296 16.7533 8.89548 16.8074 8.94184 16.8767C8.9882 16.9461 9.01294 17.0277 9.01294 17.1111C9.01278 17.223 8.96829 17.3302 8.8892 17.4093C8.81012 17.4884 8.7029 17.5329 8.59106 17.533Z" fill="#67CD9D"/>
<path d="M20.2073 16.2123C20.0295 16.2123 19.8556 16.2651 19.7078 16.3639C19.5599 16.4627 19.4447 16.6032 19.3767 16.7676C19.3087 16.9319 19.291 17.1127 19.3259 17.2871C19.3607 17.4615 19.4465 17.6217 19.5724 17.7473C19.6982 17.873 19.8586 17.9584 20.033 17.9929C20.2075 18.0274 20.3883 18.0093 20.5525 17.941C20.7167 17.8727 20.8569 17.7573 20.9555 17.6092C21.0541 17.4612 21.1065 17.2872 21.1061 17.1094C21.1057 16.8713 21.0108 16.6431 20.8422 16.4749C20.6737 16.3068 20.4454 16.2123 20.2073 16.2123ZM20.2073 17.533C20.1239 17.533 20.0423 17.5083 19.9729 17.4619C19.9035 17.4156 19.8495 17.3497 19.8175 17.2726C19.7856 17.1955 19.7773 17.1107 19.7935 17.0288C19.8098 16.947 19.85 16.8718 19.909 16.8128C19.968 16.7538 20.0432 16.7136 20.125 16.6974C20.2068 16.6811 20.2917 16.6894 20.3687 16.7214C20.4458 16.7533 20.5117 16.8074 20.5581 16.8768C20.6044 16.9461 20.6292 17.0277 20.6292 17.1111C20.629 17.223 20.5845 17.3302 20.5054 17.4093C20.4264 17.4884 20.3191 17.5329 20.2073 17.533Z" fill="#67CD9D"/>
<path d="M14.3995 20.7299C16.3981 20.7299 18.0183 19.1097 18.0183 17.1111C18.0183 15.1126 16.3981 13.4924 14.3995 13.4924C12.4009 13.4924 10.7808 15.1126 10.7808 17.1111C10.7808 19.1097 12.4009 20.7299 14.3995 20.7299Z" fill="#67CD9D"/>
<path d="M16.0406 16.1074H14.9794C14.9425 15.8519 14.8198 15.6165 14.6314 15.44H16.0376C16.0785 15.44 16.1177 15.4238 16.1466 15.3949C16.1755 15.366 16.1917 15.3268 16.1917 15.2859C16.1917 15.2451 16.1755 15.2059 16.1466 15.177C16.1177 15.1481 16.0785 15.1318 16.0376 15.1318H12.938C12.8972 15.1318 12.858 15.1481 12.8291 15.177C12.8002 15.2059 12.7839 15.2451 12.7839 15.2859C12.7839 15.3268 12.8002 15.366 12.8291 15.3949C12.858 15.4238 12.8972 15.44 12.938 15.44H13.8509C14.0426 15.4405 14.2282 15.5072 14.3763 15.6288C14.5244 15.7504 14.6259 15.9195 14.6636 16.1074H12.941C12.9207 16.1074 12.9007 16.1114 12.882 16.1192C12.8633 16.1269 12.8463 16.1382 12.832 16.1526C12.8177 16.1669 12.8063 16.1839 12.7986 16.2026C12.7909 16.2212 12.7869 16.2413 12.7869 16.2615C12.7869 16.2818 12.7909 16.3018 12.7986 16.3205C12.8063 16.3392 12.8177 16.3562 12.832 16.3705C12.8463 16.3848 12.8633 16.3962 12.882 16.4039C12.9007 16.4116 12.9207 16.4156 12.941 16.4156H14.6695C14.6351 16.607 14.5347 16.7803 14.3856 16.9052C14.2365 17.03 14.0483 17.0986 13.8539 17.0988H12.941C12.9105 17.0988 12.8807 17.1079 12.8553 17.1248C12.83 17.1417 12.8102 17.1658 12.7986 17.194C12.7869 17.2221 12.7838 17.2531 12.7898 17.283C12.7957 17.3129 12.8104 17.3404 12.832 17.3619L14.5148 19.043C14.5438 19.0718 14.5829 19.088 14.6238 19.0881C14.6543 19.0879 14.684 19.0788 14.7093 19.0618C14.7346 19.0448 14.7543 19.0207 14.7659 18.9925C14.7776 18.9643 14.7807 18.9333 14.7747 18.9034C14.7688 18.8735 14.7542 18.846 14.7328 18.8244L13.313 17.4047H13.8539C14.1301 17.4043 14.3968 17.3036 14.6043 17.1212C14.8118 16.9388 14.946 16.6872 14.9818 16.4133H16.0406C16.0814 16.4133 16.1206 16.397 16.1495 16.3681C16.1784 16.3392 16.1947 16.3 16.1947 16.2592C16.1947 16.2183 16.1784 16.1791 16.1495 16.1502C16.1206 16.1213 16.0814 16.1051 16.0406 16.1051V16.1074Z" fill="white"/>
</g>
</g>
<defs>
<clipPath id="clip0_8_1839">
<rect width="30" height="30" rx="5" fill="white"/>
</clipPath>
<clipPath id="clip1_8_1839">
<rect width="30" height="30" fill="white"/>
</clipPath>
</defs>
</svg>
