<svg width="30" height="30" viewBox="0 0 30 30" fill="none" xmlns="http://www.w3.org/2000/svg">
<g clip-path="url(#clip0_8_1879)">
<rect width="30" height="30" rx="5" fill="#3382EB" fill-opacity="0.2"/>
<path fill-rule="evenodd" clip-rule="evenodd" d="M15.0053 12.8768C14.6771 12.8768 14.4123 12.6121 14.4123 12.2838V12.2626C14.4123 12.0085 14.5712 11.7967 14.7935 11.712V10.5154V10.5048V10.4942V10.4836V10.473L14.8041 10.4624V10.4518V10.4412L14.8147 10.4306V10.42L14.8253 10.4095V10.3989H14.8359V10.3883L14.8465 10.3777V10.3671H14.8571L14.8677 10.3565L14.8783 10.3459H14.8888V10.3353H14.8994H14.91V10.3247H14.9206C14.9206 10.3247 14.9312 10.3142 14.9418 10.3142L18.7858 9.13872C18.8175 9.12813 18.8599 9.12813 18.9023 9.13872L22.7462 10.3142C22.831 10.3459 22.8945 10.42 22.8945 10.5154C22.8945 10.6107 22.831 10.6848 22.7462 10.7166L21.1366 11.2037V12.9298C21.3378 12.9933 21.6767 13.1521 21.8038 13.5016C21.9414 13.8934 21.7614 14.3911 21.2531 14.9841C21.3273 15.4077 21.1049 15.9266 20.6601 16.4031C20.533 16.5408 20.3848 16.6678 20.2154 16.7949C20.2577 17.2291 20.406 17.4091 20.5119 17.515C20.533 17.5362 20.5648 17.5574 20.586 17.5785C20.7872 17.5997 20.9884 17.6421 21.179 17.7056C21.1896 17.7056 21.2002 17.7162 21.2108 17.7162C22.8415 18.2245 24.0382 19.76 24.0382 21.539V22.0155C24.0382 22.132 23.9429 22.2273 23.8264 22.2273H19.7282H18.1398H14.0311C13.9146 22.2273 13.8299 22.132 13.8299 22.0155V21.539C13.8299 21.3166 13.8405 21.0942 13.8828 20.8719H6.1737C6.05722 20.8719 5.96191 20.7766 5.96191 20.6707V20.1941C5.96191 18.4045 7.15853 16.8796 8.78931 16.3607C8.7999 16.3607 8.81048 16.3502 8.82107 16.3502C9.02227 16.2972 9.22347 16.2443 9.42467 16.2231C9.58352 16.096 9.74236 15.8948 9.78472 15.4395C9.62587 15.323 9.47762 15.1853 9.35055 15.0477C8.90579 14.5711 8.68341 14.0522 8.74695 13.6287C8.17512 12.9827 7.96333 12.4638 8.11158 12.0614C8.21747 11.7649 8.50339 11.6272 8.694 11.5743V9.85881L7.34914 9.44582V10.3565C7.57152 10.4412 7.73036 10.6636 7.73036 10.9178V10.9389C7.73036 11.2672 7.46562 11.5319 7.13735 11.5319C6.80907 11.5319 6.54434 11.2672 6.54434 10.9389V10.9178C6.54434 10.6636 6.70318 10.4412 6.93615 10.3565V9.1599V9.14931V9.13872V9.12813V9.11754V9.10695H6.94674V9.09636V9.08577V9.07518H6.95733V9.0646L6.96791 9.05401V9.04342H6.9785V9.03283L6.98909 9.02224L6.99968 9.01165L7.01027 9.00106H7.02086C7.02086 8.99047 7.03145 8.99047 7.03145 8.99047V8.97988H7.04204H7.05263V8.96929H7.06322H7.07381H7.0844V8.9587L10.9178 7.78327C10.9601 7.77268 11.0025 7.77268 11.0449 7.78327L14.8888 8.96929C14.9736 8.99047 15.0371 9.07518 15.0371 9.1599C15.0371 9.25521 14.9736 9.33992 14.8888 9.3611L13.2687 9.85881V11.5743C13.4804 11.6378 13.8193 11.7967 13.9464 12.1461C14.084 12.5485 13.904 13.0462 13.3957 13.6287C13.4699 14.0522 13.2475 14.5711 12.8027 15.0477C12.6651 15.1853 12.5168 15.323 12.358 15.4395C12.4003 15.8736 12.5486 16.0642 12.6545 16.1595L12.718 16.2231C13.9464 16.3925 15.0159 17.1126 15.6407 18.1927C15.9478 17.9915 16.2867 17.8327 16.6467 17.7162C16.6573 17.7056 16.6679 17.7056 16.6785 17.7056C16.8797 17.6421 17.0809 17.5997 17.2821 17.5679C17.4515 17.4515 17.5998 17.2503 17.6527 16.7949C17.4833 16.6678 17.335 16.5408 17.2079 16.4031C16.7632 15.9266 16.5408 15.4077 16.6149 14.9841C16.0325 14.3382 15.8207 13.8193 15.969 13.4169C16.0855 13.1204 16.3608 12.9827 16.5514 12.9192V11.2037L15.2065 10.8013V11.712C15.4289 11.7967 15.5983 12.0085 15.5983 12.2626V12.2838C15.5983 12.6121 15.3336 12.8768 15.0053 12.8768ZM8.91638 11.9449C8.86343 11.9555 8.57752 12.0085 8.50339 12.2097C8.45044 12.3579 8.46103 12.7074 9.12817 13.4275C9.18112 13.4804 9.19171 13.5651 9.17053 13.6287C9.08581 13.9252 9.26583 14.3593 9.64705 14.7617C10.0918 15.2383 10.6848 15.5348 11.0237 15.4501C11.0555 15.4395 11.0872 15.4395 11.119 15.4501C11.4579 15.5348 12.0509 15.2383 12.4956 14.7617C12.8768 14.3593 13.0675 13.9252 12.9722 13.6287C12.951 13.5651 12.9722 13.491 13.0145 13.4381C13.4487 12.9509 13.6393 12.5379 13.5546 12.2944C13.4699 12.0402 13.1204 11.9555 13.0463 11.9449H8.91638ZM8.95874 9.49876L8.96933 9.50935L10.9813 10.1235L12.9933 9.50935L13.0145 9.49876L14.1158 9.1599L10.9813 8.20685L7.84684 9.1599L8.95874 9.49876ZM9.10699 9.98588V11.5319H12.8557V9.98588L11.0449 10.5365C11.0237 10.5471 11.0025 10.5471 10.9813 10.5471C10.9601 10.5471 10.939 10.5471 10.9178 10.5365L9.10699 9.98588ZM7.13735 10.7377C7.04204 10.7377 6.96791 10.8119 6.96791 10.9178V10.9389C6.96791 11.0342 7.04204 11.1084 7.13735 11.1084C7.24324 11.1084 7.31737 11.0342 7.31737 10.9389V10.9178C7.31737 10.8119 7.24324 10.7377 7.13735 10.7377ZM10.1765 15.683C10.1342 15.8736 10.0812 16.0431 9.98592 16.1913C10.0177 16.2125 10.0495 16.2231 10.0706 16.2549L11.0766 17.2503L12.0826 16.2443C12.1038 16.2231 12.125 16.2019 12.1568 16.1913C12.072 16.0537 12.0085 15.8736 11.9767 15.683C11.6696 15.8313 11.352 15.916 11.0766 15.863C11.0131 15.8736 10.9601 15.8736 10.8966 15.8736C10.6636 15.8736 10.4201 15.7995 10.1765 15.683ZM13.9782 20.4589C14.2005 19.6541 14.6771 18.9552 15.3018 18.4469C14.8783 17.6738 14.2005 17.102 13.3957 16.8161L12.6333 18.754C12.6015 18.8175 12.5486 18.8599 12.485 18.881C12.4744 18.881 12.4533 18.881 12.4321 18.881C12.3897 18.881 12.3368 18.8705 12.305 18.8387L12.1779 18.7328L11.7332 19.1776L12.0297 20.4589H13.9782ZM9.82707 16.6043C9.59411 16.6149 9.36114 16.6467 9.14935 16.6996L9.79531 18.3304L10.7589 17.5256L9.82707 16.6043ZM8.74695 16.8161C7.37032 17.3244 6.38549 18.6481 6.38549 20.1941V20.4589H10.113L10.4095 19.1776L9.96474 18.7328L9.83766 18.8387C9.8059 18.8705 9.75295 18.881 9.71059 18.881C9.68941 18.881 9.67882 18.881 9.65764 18.881C9.59411 18.8599 9.54116 18.8175 9.51998 18.754L8.74695 16.8161ZM10.5366 20.4589H11.6061L11.3414 19.3258H10.8119L10.5366 20.4589ZM13.0039 16.6996C12.8768 16.6678 12.7498 16.6467 12.6227 16.6255H12.6121C12.5168 16.6149 12.4109 16.6043 12.3156 16.6043L11.3837 17.5256L12.2944 18.288L12.3474 18.3304L13.0039 16.6996ZM11.0766 17.8115L10.2824 18.4681L10.7272 18.9022H11.4155L11.8603 18.4681L11.0766 17.8115ZM19.8341 17.0279C19.527 17.1867 19.2199 17.2714 18.934 17.2185C18.8811 17.2291 18.8175 17.2291 18.7646 17.2291C18.521 17.2291 18.2775 17.155 18.0339 17.0279C18.0022 17.2291 17.9386 17.3985 17.8539 17.5468C17.8751 17.5574 17.8857 17.5679 17.9068 17.5891H17.9174V17.5997H17.928L18.934 18.6057L19.94 17.5997C19.9612 17.5785 19.993 17.5574 20.0142 17.5468C19.9294 17.3985 19.8659 17.2291 19.8341 17.0279ZM17.6951 17.9492C17.4515 17.9598 17.2291 17.9915 17.0067 18.0445L17.6527 19.6858L18.6269 18.881L17.6951 17.9492ZM16.6043 18.1715C15.2277 18.6798 14.2429 20.0035 14.2429 21.539V21.8143H17.9704L18.2775 20.533L17.8221 20.0882L17.7056 20.1836C17.6633 20.2153 17.6209 20.2365 17.568 20.2365C17.5468 20.2365 17.5362 20.2365 17.515 20.2259C17.4515 20.2153 17.3986 20.1624 17.3774 20.1094L16.6043 18.1715ZM18.4046 21.8143H19.4635L19.1988 20.6707H18.6693L18.4046 21.8143ZM19.8871 21.8143H23.6252V21.539C23.6252 20.0035 22.6298 18.6798 21.2531 18.1715L20.4907 20.1094C20.4589 20.1624 20.406 20.2153 20.3424 20.2259C20.3318 20.2365 20.3107 20.2365 20.3001 20.2365C20.2471 20.2365 20.2048 20.2153 20.1624 20.1836L20.0353 20.0882L19.5906 20.533L19.8871 21.8143ZM20.8613 18.0445C20.6389 17.9915 20.406 17.9598 20.173 17.9492L19.2411 18.881L20.1518 19.6435H20.1624L20.2048 19.6858L20.8613 18.0445ZM18.934 19.167L18.1504 19.8129L18.5846 20.2577H19.2729L19.7177 19.8129L18.934 19.167ZM20.9037 13.3004H16.7738C16.7208 13.311 16.4349 13.3639 16.3608 13.5651C16.3078 13.7028 16.3184 14.0522 16.9856 14.7829C17.0385 14.8359 17.0597 14.91 17.0385 14.9841C16.9432 15.2806 17.1338 15.7042 17.515 16.1172C17.9598 16.5831 18.5422 16.8796 18.8811 16.8055C18.9128 16.7949 18.9552 16.7949 18.987 16.8055C19.3258 16.8796 19.9083 16.5831 20.353 16.1172C20.7342 15.7042 20.9249 15.2806 20.8295 14.9841C20.8084 14.91 20.8295 14.8359 20.8719 14.7829C21.3167 14.2958 21.4967 13.8934 21.412 13.6393C21.3273 13.3957 20.9778 13.311 20.9037 13.3004ZM20.7131 11.3413L18.9023 11.892C18.8811 11.9026 18.8599 11.9026 18.8387 11.9026C18.8175 11.9026 18.807 11.9026 18.7858 11.892L16.9644 11.3307V12.8768H20.7131V11.3413ZM15.7148 10.5154L16.8161 10.8542H16.8267L18.8387 11.479L20.8613 10.8542H20.8719L21.9732 10.5154L18.8387 9.55171L15.7148 10.5154ZM15.0053 12.0932C14.8994 12.0932 14.8253 12.1673 14.8253 12.2626V12.2838C14.8253 12.3897 14.8994 12.4638 15.0053 12.4638C15.1006 12.4638 15.1748 12.3897 15.1748 12.2838V12.2626C15.1748 12.1673 15.1006 12.0932 15.0053 12.0932Z" fill="black"/>
<path fill-rule="evenodd" clip-rule="evenodd" d="M13.0145 13.4381C13.4486 12.9509 13.6392 12.5379 13.5545 12.2944C13.4698 12.0402 13.1204 11.9555 13.0462 11.9449H8.91634C8.86339 11.9555 8.57747 12.0085 8.50335 12.2097C8.4504 12.3579 8.46099 12.7074 9.12813 13.4275C9.18107 13.4804 9.19166 13.5651 9.17048 13.6287C9.08577 13.9252 9.26579 14.3593 9.64701 14.7617C10.0918 15.2383 10.6848 15.5348 11.0236 15.4501C11.0554 15.4395 11.0872 15.4395 11.1189 15.4501C11.4578 15.5348 12.0508 15.2383 12.4956 14.7617C12.8768 14.3593 13.0674 13.9252 12.9721 13.6287C12.9509 13.5651 12.9721 13.491 13.0145 13.4381Z" fill="#FDD7AD"/>
<path fill-rule="evenodd" clip-rule="evenodd" d="M9.10693 11.5319H12.8556V9.98588L11.0448 10.5365C11.0236 10.5471 11.0025 10.5471 10.9813 10.5471C10.9601 10.5471 10.9389 10.5471 10.9177 10.5365L9.10693 9.98588V11.5319Z" fill="#545859"/>
<path fill-rule="evenodd" clip-rule="evenodd" d="M10.9814 10.1235L12.9934 9.50935L13.0146 9.49876L14.1159 9.1599L10.9814 8.20685L7.84692 9.1599L8.95882 9.49876L8.96941 9.50935L10.9814 10.1235Z" fill="#2C3033"/>
<path fill-rule="evenodd" clip-rule="evenodd" d="M11.9767 15.683C11.6696 15.8313 11.3519 15.916 11.0766 15.863C11.013 15.8736 10.9601 15.8736 10.8965 15.8736C10.6636 15.8736 10.42 15.7995 10.1765 15.683C10.1341 15.8736 10.0811 16.0431 9.98584 16.1913C10.0176 16.2125 10.0494 16.2231 10.0706 16.2549L11.0766 17.2503L12.0826 16.2443C12.1037 16.2231 12.1249 16.2019 12.1567 16.1913C12.072 16.0537 12.0084 15.8736 11.9767 15.683Z" fill="#FDDFBC"/>
<path fill-rule="evenodd" clip-rule="evenodd" d="M12.3157 16.6043L11.3838 17.5256L12.2945 18.288L12.3474 18.3304L13.004 16.6996C12.8769 16.6678 12.7498 16.6467 12.6228 16.6255H12.6122C12.5169 16.6149 12.411 16.6043 12.3157 16.6043Z" fill="#CCCCCC"/>
<path fill-rule="evenodd" clip-rule="evenodd" d="M13.3957 16.8161L12.6333 18.754C12.6015 18.8175 12.5485 18.8599 12.485 18.881C12.4744 18.881 12.4532 18.881 12.4321 18.881C12.3897 18.881 12.3368 18.8705 12.305 18.8387L12.1779 18.7328L11.7332 19.1776L12.0297 20.4589H13.9781C14.2005 19.6541 14.677 18.9552 15.3018 18.4469C14.8782 17.6738 14.2005 17.102 13.3957 16.8161Z" fill="#65696A"/>
<path fill-rule="evenodd" clip-rule="evenodd" d="M11.8603 18.4681L11.0767 17.8115L10.2825 18.4681L10.7272 18.9022H11.4155L11.8603 18.4681Z" fill="#2C3033"/>
<path fill-rule="evenodd" clip-rule="evenodd" d="M9.79537 18.3304L10.759 17.5256L9.82714 16.6043C9.59417 16.6149 9.3612 16.6467 9.14941 16.6996L9.79537 18.3304Z" fill="#CCCCCC"/>
<path fill-rule="evenodd" clip-rule="evenodd" d="M9.51998 18.754L8.74695 16.8161C7.37032 17.3244 6.3855 18.6481 6.3855 20.1941V20.4589H10.113L10.4095 19.1776L9.96474 18.7328L9.83767 18.8387C9.8059 18.8705 9.75295 18.881 9.7106 18.881C9.68942 18.881 9.67883 18.881 9.65765 18.881C9.59411 18.8599 9.54116 18.8175 9.51998 18.754Z" fill="#65696A"/>
<path fill-rule="evenodd" clip-rule="evenodd" d="M10.8119 19.3258L10.5366 20.4589H11.6062L11.3414 19.3258H10.8119Z" fill="#2C3033"/>
<path fill-rule="evenodd" clip-rule="evenodd" d="M7.13721 11.1084C7.2431 11.1084 7.31723 11.0342 7.31723 10.9389V10.9178C7.31723 10.8119 7.2431 10.7377 7.13721 10.7377C7.0419 10.7377 6.96777 10.8119 6.96777 10.9178V10.9389C6.96777 11.0342 7.0419 11.1084 7.13721 11.1084Z" fill="#FFC738"/>
<path fill-rule="evenodd" clip-rule="evenodd" d="M16.3608 13.5651C16.3078 13.7028 16.3184 14.0522 16.9855 14.7829C17.0385 14.8359 17.0597 14.91 17.0385 14.9841C16.9432 15.2806 17.1338 15.7042 17.515 16.1172C17.9598 16.5831 18.5422 16.8796 18.8811 16.8055C18.9128 16.7949 18.9552 16.7949 18.987 16.8055C19.3258 16.8796 19.9082 16.5831 20.353 16.1172C20.7342 15.7042 20.9248 15.2806 20.8295 14.9841C20.8084 14.91 20.8295 14.8359 20.8719 14.7829C21.3166 14.2958 21.4967 13.8934 21.412 13.6393C21.3272 13.3957 20.9778 13.311 20.9037 13.3004H16.7738C16.7208 13.311 16.4349 13.3639 16.3608 13.5651Z" fill="#FDD7AD"/>
<path fill-rule="evenodd" clip-rule="evenodd" d="M16.9644 12.8768H20.713V11.3413L18.9022 11.892C18.8811 11.9026 18.8599 11.9026 18.8387 11.9026C18.8175 11.9026 18.8069 11.9026 18.7857 11.892L16.9644 11.3307V12.8768Z" fill="#545859"/>
<path fill-rule="evenodd" clip-rule="evenodd" d="M16.8267 10.8542L18.8387 11.479L20.8613 10.8542H20.8719L21.9732 10.5154L18.8387 9.55171L15.7148 10.5154L16.8161 10.8542H16.8267Z" fill="#2C3033"/>
<path fill-rule="evenodd" clip-rule="evenodd" d="M17.3774 20.1094L16.6044 18.1716C15.2277 18.6798 14.2429 20.0035 14.2429 21.539V21.8143H17.9704L18.2775 20.533L17.8222 20.0882L17.7057 20.1836C17.6633 20.2153 17.621 20.2365 17.568 20.2365C17.5468 20.2365 17.5362 20.2365 17.5151 20.2259C17.4515 20.2153 17.3986 20.1624 17.3774 20.1094Z" fill="#65696A"/>
<path fill-rule="evenodd" clip-rule="evenodd" d="M18.6693 20.6707L18.4045 21.8143H19.4635L19.1988 20.6707H18.6693Z" fill="#2C3033"/>
<path fill-rule="evenodd" clip-rule="evenodd" d="M19.5906 20.533L19.8871 21.8143H23.6252V21.539C23.6252 20.0035 22.6298 18.6798 21.2531 18.1716L20.4907 20.1094C20.4589 20.1624 20.406 20.2153 20.3424 20.2259C20.3318 20.2365 20.3107 20.2365 20.3001 20.2365C20.2471 20.2365 20.2048 20.2153 20.1624 20.1836L20.0353 20.0882L19.5906 20.533Z" fill="#65696A"/>
<path fill-rule="evenodd" clip-rule="evenodd" d="M18.5846 20.2577H19.2729L19.7176 19.8129L18.934 19.167L18.1504 19.8129L18.5846 20.2577Z" fill="#2C3033"/>
<path fill-rule="evenodd" clip-rule="evenodd" d="M17.9279 17.5997L18.9339 18.6057L19.9399 17.5997C19.9611 17.5785 19.9928 17.5574 20.014 17.5468C19.9293 17.3985 19.8658 17.2291 19.834 17.0279C19.5269 17.1867 19.2198 17.2714 18.9339 17.2185C18.8809 17.2291 18.8174 17.2291 18.7645 17.2291C18.5209 17.2291 18.2773 17.155 18.0338 17.0279C18.002 17.2291 17.9385 17.3985 17.8538 17.5468C17.8749 17.5574 17.8855 17.5679 17.9067 17.5891H17.9173V17.5997H17.9279Z" fill="#FDDFBC"/>
<path fill-rule="evenodd" clip-rule="evenodd" d="M18.6268 18.881L17.6949 17.9492C17.4514 17.9598 17.229 17.9915 17.0066 18.0445L17.6526 19.6858L18.6268 18.881Z" fill="#CCCCCC"/>
<path fill-rule="evenodd" clip-rule="evenodd" d="M20.1731 17.9492L19.2412 18.881L20.1519 19.6435H20.1625L20.2049 19.6858L20.8614 18.0445C20.639 17.9915 20.4061 17.9598 20.1731 17.9492Z" fill="#CCCCCC"/>
<path fill-rule="evenodd" clip-rule="evenodd" d="M15.0052 12.4638C15.1005 12.4638 15.1746 12.3897 15.1746 12.2838V12.2626C15.1746 12.1673 15.1005 12.0932 15.0052 12.0932C14.8993 12.0932 14.8252 12.1673 14.8252 12.2626V12.2838C14.8252 12.3897 14.8993 12.4638 15.0052 12.4638Z" fill="#FFC738"/>
</g>
<defs>
<clipPath id="clip0_8_1879">
<rect width="30" height="30" rx="5" fill="white"/>
</clipPath>
</defs>
</svg>
