<svg width="30" height="30" viewBox="0 0 30 30" fill="none" xmlns="http://www.w3.org/2000/svg">
<g clip-path="url(#clip0_8_1969)">
<rect width="30" height="30" rx="5" fill="#6236FF" fill-opacity="0.2"/>
<path d="M8.93561 11.8713C7.31432 11.8713 6 13.1856 6 14.8069C6 16.4282 7.31432 17.7425 8.93561 17.7425L15.2263 18.0781L16.2625 14.8724L15.2263 11.4025L8.93561 11.8713Z" fill="#FF8066"/>
<path d="M24.4526 16.6242H23.3343L23.0392 14.8069L23.3343 12.9897H24.4526V11.8713L15.2263 11.4025V18.0781L24.4526 17.7426V16.6242Z" fill="#FF4D4D"/>
<path d="M8.93569 12.9897C7.93204 12.9897 7.11841 13.8033 7.11841 14.8069C7.11841 15.8106 7.93204 16.6242 8.93569 16.6242H15.2263L15.9389 14.8069L15.2263 12.9897H8.93569Z" fill="white"/>
<path d="M15.2263 12.9897H23.3343V16.6242H15.2263V12.9897Z" fill="#E9EDF5"/>
<path d="M6 17.7426V18.8609H7.11832L7.4134 20.6782L7.11832 22.4955H6V23.6139H15.2263L16.2625 20.6782L15.2263 17.7426H6Z" fill="#FFE666"/>
<path d="M24.4526 20.6782C24.4526 19.0569 23.1383 17.7425 21.5169 17.7425H15.2263V23.6138H21.5169C23.1383 23.6139 24.4526 22.2995 24.4526 20.6782Z" fill="#FFC34D"/>
<path d="M7.11841 18.8609V22.4955H15.2264L15.939 20.6782L15.2264 18.8609H7.11841Z" fill="white"/>
<path d="M23.3343 20.6782C23.3343 19.6745 22.5207 18.8609 21.517 18.8609H15.2263V22.4955H21.5169C22.5207 22.4955 23.3343 21.6819 23.3343 20.6782Z" fill="#E9EDF5"/>
<path d="M6 6V7.11838H7.11832L7.4134 8.93566L7.11832 10.7529H6V11.8713H15.2263L16.2625 8.93566L15.2263 6H6Z" fill="#80FF80"/>
<path d="M24.4526 8.93566C24.4526 7.31432 23.1383 6 21.5169 6H15.2263V11.8713H21.5169C23.1383 11.8713 24.4526 10.557 24.4526 8.93566Z" fill="#2EE66B"/>
<path d="M7.11841 7.11838V10.7529H15.2264L15.939 8.93566L15.2264 7.11838H7.11841Z" fill="white"/>
<path d="M23.3343 8.93566C23.3343 7.93201 22.5207 7.11838 21.517 7.11838H15.2263V10.7529H21.5169C22.5207 10.7529 23.3343 9.93931 23.3343 8.93566Z" fill="#E9EDF5"/>
<path d="M20.4521 11.4025L19.2803 10.8434L18.1084 11.4025V7.84114H20.4521V11.4025Z" fill="#333940"/>
<path d="M12.3032 17.3345L11.1313 16.7753L9.95947 17.3345V13.773H12.3032V17.3345Z" fill="#555A65"/>
<path d="M20.4521 23.2058L19.2803 22.6466L18.1084 23.2058V19.6443H20.4521V23.2058Z" fill="#333940"/>
</g>
<defs>
<clipPath id="clip0_8_1969">
<rect width="30" height="30" rx="5" fill="white"/>
</clipPath>
</defs>
</svg>
