<svg width="30" height="30" viewBox="0 0 30 30" fill="none" xmlns="http://www.w3.org/2000/svg">
<rect width="30" height="30" rx="5" fill="#3382EB" fill-opacity="0.2"/>
<path d="M6.29272 6.29297H23.1873V8.11216H6.29272V6.29297Z" fill="#5FCDFF"/>
<path d="M6.29272 16.8822H23.1873V18.7014H6.29272V16.8822Z" fill="#5FCDFF"/>
<path d="M7.22046 8.11215H22.2595V16.8823H7.22046V8.11215Z" fill="#FFE2E2"/>
<path d="M6.29297 6.2932H7.3916V8.1118H6.29297V6.2932Z" fill="#73D7F9"/>
<path d="M6.29297 16.8826H7.3916V18.7012H6.29297V16.8826Z" fill="#73D7F9"/>
<path d="M7.22021 8.11179H8.31885V16.8825H7.22021V8.11179Z" fill="#FFEFEE"/>
<path d="M22.0884 6.29311H23.187V8.11171H22.0884V6.29311Z" fill="#30B6FF"/>
<path d="M22.0884 16.8826H23.187V18.7012H22.0884V16.8826Z" fill="#30B6FF"/>
<path d="M21.1611 8.11179H22.2598V16.8825H21.1611V8.11179Z" fill="#FFCFCF"/>
<path d="M14.9567 20.3298L17.3401 17.3358C17.6395 16.9597 17.5773 16.412 17.2011 16.1126C16.825 15.8132 16.2774 15.8754 15.978 16.2516L14.5336 18.066C14.4114 18.2194 14.1801 18.2148 14.0588 18.0606C14.058 18.0596 14.0572 18.0586 14.0564 18.0576C12.7081 16.3441 10.3531 16.2678 8.93899 17.9635C8.31863 18.6984 7.93726 19.7047 7.93726 20.8148V23.1996C7.93726 23.4801 8.13311 23.7068 8.37437 23.7068H14.5432C14.785 23.7068 14.9804 23.4801 14.9804 23.1996V20.8148C14.9804 20.65 14.971 20.4878 14.9546 20.3281L14.9567 20.3298Z" fill="#3193F3"/>
<path d="M12.1116 16.8033C11.4303 16.9517 10.7788 17.3362 10.2563 17.9632C9.63562 18.6989 9.25454 19.7051 9.25454 20.8149V23.1996C9.25454 23.4806 9.45032 23.7071 9.6918 23.7071H8.37476C8.13328 23.7071 7.9375 23.4806 7.9375 23.1996V20.8149C7.9375 19.7051 8.31858 18.6989 8.93931 17.9632C9.79536 16.9359 10.9974 16.5592 12.1116 16.8033Z" fill="#35B1FC"/>
<path d="M12.8799 17.1387C12.7482 17.4531 12.548 17.9307 12.1239 18.9431C11.828 19.6499 11.0887 19.6499 10.7929 18.9431C10.3926 17.986 10.1783 17.4742 10.0378 17.1387C10.4233 17.4575 10.9185 17.6498 11.4584 17.6498C11.9984 17.6497 12.4936 17.4574 12.8799 17.1387Z" fill="#FFBB98"/>
<path d="M12.0896 19.0167C11.7752 19.6489 11.0781 19.6243 10.7927 18.943C10.3924 17.9859 10.1781 17.4741 10.0376 17.1387C10.4231 17.4574 10.9183 17.6497 11.4582 17.6497H11.4731C11.6004 17.9508 11.7444 18.295 11.9095 18.691C11.9614 18.8139 12.0219 18.9228 12.0896 19.0167Z" fill="#FFCAA6"/>
<path d="M11.4584 13.187C9.81374 13.187 8.77246 14.8919 9.42197 16.3279C9.42117 16.3287 9.42197 16.3295 9.42278 16.3304C10.3957 18.5046 13.6901 17.8286 13.6901 15.4179C13.6902 14.1981 12.7023 13.187 11.4584 13.187Z" fill="#FFBB98"/>
<path d="M13.6901 15.4178C13.6901 17.1027 12.0807 17.9403 10.7795 17.5496C11.6497 17.2968 12.3731 16.5478 12.3731 15.4178C12.3731 14.423 11.7155 13.5661 10.798 13.2842C11.0034 13.221 11.2247 13.1868 11.4583 13.1868C12.7024 13.1868 13.6901 14.1982 13.6901 15.4178Z" fill="#FFAA80"/>
<path d="M12.0968 17.5496C11.1116 17.8358 9.94036 17.4855 9.4232 16.33C9.42232 16.3291 9.42232 16.3291 9.42232 16.3283C8.77259 14.8918 9.81394 13.1868 11.4585 13.1868C11.6876 13.1868 11.908 13.221 12.1152 13.2842C10.8693 13.6652 10.1818 15.0955 10.7394 16.3282C10.7394 16.3291 10.7394 16.3291 10.7402 16.3299C11.0335 16.9841 11.5366 17.381 12.0968 17.5496Z" fill="#FFCAA6"/>
<path d="M8.50342 14.8318V15.114H9.06101C9.79775 15.114 10.0263 14.4741 10.3148 13.9248C10.5891 14.4455 10.8259 15.114 11.5694 15.114H14.4143V14.8318C14.4143 12.1908 11.214 10.8977 9.36907 12.7425C8.83389 13.2768 8.50342 14.0152 8.50342 14.8318Z" fill="#87828E"/>
<path d="M14.4146 14.8321V15.114H13.0975V14.8321C13.0975 13.3097 12.0343 12.235 10.7795 11.9514C12.5005 11.5537 14.4146 12.7899 14.4146 14.8321Z" fill="#796E84"/>
<path d="M12.0966 11.9514C11.5917 12.0673 11.1044 12.3246 10.6856 12.7425C10.1649 13.2632 9.83748 13.9762 9.82078 14.7672C9.63994 14.9736 9.40725 15.114 9.06133 15.114H8.50293V14.8322C8.50293 14.0148 8.83391 13.2773 9.36865 12.7425C10.15 11.9611 11.1747 11.7424 12.0966 11.9514Z" fill="#A4A4A5"/>
<path d="M14.9564 20.3302L14.9546 20.3284C14.9713 20.4883 14.9801 20.6498 14.9801 20.8148V23.1995C14.9801 23.4805 14.7852 23.707 14.5429 23.707H13.2258C13.4682 23.707 13.6631 23.4805 13.6631 23.1995V20.8148C13.6631 20.6498 13.6543 20.4882 13.6376 20.3284L13.6394 20.3302L16.0232 17.3353C16.2883 17.0026 16.2699 16.5355 16.0012 16.2247C16.1724 16.0262 16.4156 15.9226 16.6597 15.9226C16.8502 15.9226 17.0408 15.985 17.2014 16.1123C17.5772 16.4117 17.6396 16.9596 17.3401 17.3354L14.9564 20.3302Z" fill="#307FED"/>
<path d="M23.187 8.40527C23.3489 8.40527 23.48 8.27417 23.48 8.1123V6.29297C23.48 6.1311 23.3489 6 23.187 6H6.29297C6.1311 6 6 6.1311 6 6.29297V8.1123C6 8.27417 6.1311 8.40527 6.29297 8.40527H6.92725V16.5894H6.29297C6.1311 16.5894 6 16.7205 6 16.8823V18.7017C6 18.8635 6.1311 18.9946 6.29297 18.9946H7.98706C7.76294 19.5586 7.64429 20.1775 7.64429 20.8154V23.2002C7.64429 23.6411 7.97241 24 8.37451 24H14.543C14.9458 24 15.2732 23.6411 15.2732 23.2002V20.8154C15.2732 20.6873 15.2681 20.5576 15.2571 20.4229L16.3945 18.9946H23.187C23.3489 18.9946 23.48 18.8635 23.48 18.7017V16.8823C23.48 16.7205 23.3489 16.5894 23.187 16.5894H22.5527V8.40527H23.187ZM6.58594 6.58594H22.894V7.81934C22.1977 7.81934 8.13098 7.81934 6.58594 7.81934V6.58594ZM6.58594 18.4087V17.1753H9.33398C8.90969 17.5022 8.53982 17.9402 8.27124 18.4087H6.58594ZM9.52222 15.3289C9.90161 15.189 10.1353 14.8792 10.3147 14.5605C10.5542 14.9817 10.9036 15.4072 11.5693 15.4072H13.3967V15.4182C13.3967 16.2674 12.9234 16.8944 12.2681 17.1753C11.7646 17.3974 11.1678 17.422 10.6399 17.1753C9.86353 16.8157 9.48603 16.0348 9.52222 15.3289ZM11.5693 14.8213C11.1255 14.8213 10.9343 14.5034 10.6721 13.9812C10.6392 13.9153 10.6069 13.8508 10.574 13.7886C10.4648 13.5798 10.1645 13.5799 10.0554 13.7886C10.0217 13.8523 9.9895 13.9167 9.95654 13.9812C9.69404 14.503 9.51079 14.8213 9.06079 14.8213H8.79639C8.804 12.9834 10.6631 11.6273 12.4812 12.3794C13.4897 12.7976 14.1174 13.7322 14.1211 14.8213C13.1951 14.8213 14.5247 14.8213 11.5693 14.8213ZM14.2896 17.8799C14.2866 17.8762 14.2837 17.8726 14.2808 17.8689C14.28 17.8682 14.2786 17.8667 14.2778 17.8652C14.0684 17.6016 13.8347 17.3708 13.5798 17.1753H14.866L14.2998 17.8857C14.2947 17.8857 14.291 17.8813 14.2896 17.8799ZM11.762 18.9946C11.677 19.1133 11.5693 19.1799 11.458 19.1799C11.3467 19.1799 11.2397 19.1133 11.1541 18.9946C11.0855 18.9012 11.1008 18.9203 10.637 17.8118C11.1388 17.9758 11.7368 17.9931 12.2834 17.8037C11.8178 18.9155 11.8325 18.8986 11.762 18.9946ZM14.7517 20.1167C14.688 20.1782 14.6543 20.2668 14.6631 20.3577C14.6792 20.5181 14.6873 20.6682 14.6873 20.8154V23.2002C14.6873 23.3262 14.6111 23.4141 14.543 23.4141H8.37451C8.3064 23.4141 8.23022 23.3262 8.23022 23.2002V20.8154C8.23022 19.3599 8.9269 18.1345 9.87524 17.5085C10.2581 18.4239 10.5227 19.0562 10.5227 19.0562C10.7087 19.5007 11.0581 19.7659 11.458 19.7659C11.8579 19.7659 12.208 19.5007 12.394 19.0562C12.5177 18.7594 12.9348 17.7658 13.0415 17.5115C13.5026 17.815 13.7533 18.1551 13.8391 18.2549C14.0826 18.5478 14.5301 18.5414 14.7627 18.249C15.5648 17.2414 16.207 16.4341 16.207 16.4341C16.4069 16.1838 16.7696 16.1439 17.0193 16.3425C17.2255 16.4806 17.338 16.8689 17.1108 17.1533C16.974 17.3246 15.4919 19.1873 14.7517 20.1167ZM22.894 18.4087H16.8611L17.5701 17.5181C17.6528 17.4133 17.7166 17.2976 17.7583 17.1753H22.894V18.4087ZM21.9668 16.5894H17.8037C17.759 16.3282 17.6027 16.0883 17.5847 16.0883L21.0174 11.4786C21.1141 11.3489 21.0872 11.1653 20.9574 11.0687C20.8277 10.9721 20.6441 10.9989 20.5475 11.1286L17.1229 15.7274C16.8771 15.5818 16.1819 15.5287 15.7485 16.0685L15.3333 16.5893H13.7102C13.8889 16.2392 13.9827 15.8415 13.9827 15.4181V15.4072H14.4141C14.5759 15.4072 14.707 15.276 14.707 15.1142V14.8315C14.707 13.497 13.9402 12.35 12.7053 11.8381C10.4875 10.9196 8.21045 12.5813 8.21045 14.8315V15.1143C8.21045 15.2761 8.34155 15.4072 8.50342 15.4072H8.93335C8.93079 15.8238 9.03252 16.2223 9.22192 16.5894H7.51318V8.40527H21.9668V16.5894Z" fill="#5F266D"/>
<path d="M17.8528 9.82031H20.4895C20.6514 9.82031 20.7825 9.68921 20.7825 9.52734C20.7825 9.36548 20.6514 9.23438 20.4895 9.23438H17.8528C17.6909 9.23438 17.5598 9.36548 17.5598 9.52734C17.5598 9.68921 17.6909 9.82031 17.8528 9.82031Z" fill="#5F266D"/>
<path d="M16.1316 9.82031H16.7542C16.916 9.82031 17.0471 9.68921 17.0471 9.52734C17.0471 9.36548 16.916 9.23438 16.7542 9.23438H16.1316C15.9697 9.23438 15.8386 9.36548 15.8386 9.52734C15.8386 9.68921 15.9697 9.82031 16.1316 9.82031Z" fill="#5F266D"/>
</svg>
