<svg width="30" height="30" viewBox="0 0 30 30" fill="none" xmlns="http://www.w3.org/2000/svg">
<rect width="30" height="30" rx="5" fill="#FF0000" fill-opacity="0.1"/>
<path d="M21.4071 17.6834L22.3222 18.2325C22.5024 18.3407 22.5609 18.5745 22.4528 18.7547C22.4206 18.8083 22.3758 18.8532 22.3222 18.8853L15.6452 22.8915C15.4041 23.0362 15.1029 23.0362 14.8618 22.8915L8.18486 18.8853C8.0046 18.7771 7.94614 18.5433 8.0543 18.3631C8.08644 18.3095 8.13128 18.2646 8.18486 18.2325L9.09997 17.6834L15.2535 21.3756L21.4071 17.6834ZM21.4071 14.1055L22.3222 14.6546C22.5024 14.7627 22.5609 14.9965 22.4528 15.1768C22.4206 15.2304 22.3758 15.2752 22.3222 15.3074L15.2535 19.5485L8.18486 15.3074C8.0046 15.1992 7.94614 14.9654 8.0543 14.7851C8.08644 14.7315 8.13128 14.6867 8.18486 14.6546L9.09997 14.1055L15.2535 17.7976L21.4071 14.1055ZM15.6452 7.10848L22.3222 11.1147C22.5024 11.2228 22.5609 11.4566 22.4528 11.6369C22.4206 11.6905 22.3758 11.7353 22.3222 11.7675L15.2535 16.0086L8.18486 11.7675C8.0046 11.6593 7.94614 11.4255 8.0543 11.2452C8.08644 11.1917 8.13128 11.1468 8.18486 11.1147L14.8618 7.10848C15.1029 6.96384 15.4041 6.96384 15.6452 7.10848ZM15.2535 8.64905L10.6001 11.4411L15.2535 14.2331L19.9069 11.4411L15.2535 8.64905Z" fill="#FF0000"/>
</svg>
