<svg width="30" height="30" viewBox="0 0 30 30" fill="none" xmlns="http://www.w3.org/2000/svg">
<rect width="30" height="30" rx="5" fill="#009525" fill-opacity="0.1"/>
<path d="M20.6 23H9.4C8.07452 23 7 21.9255 7 20.6V7.8C7 7.35818 7.35818 7 7.8 7H19C19.4418 7 19.8 7.35818 19.8 7.8V17.4H23V20.6C23 21.9255 21.9255 23 20.6 23ZM19.8 19V20.6C19.8 21.0418 20.1582 21.4 20.6 21.4C21.0418 21.4 21.4 21.0418 21.4 20.6V19H19.8ZM18.2 21.4V8.6H8.6V20.6C8.6 21.0418 8.95818 21.4 9.4 21.4H18.2ZM10.2 11H16.6V12.6H10.2V11ZM10.2 14.2H16.6V15.8H10.2V14.2ZM10.2 17.4H14.2V19H10.2V17.4Z" fill="#34C759"/>
</svg>
