<svg width="30" height="30" viewBox="0 0 30 30" fill="none" xmlns="http://www.w3.org/2000/svg">
<rect width="30" height="30" rx="5" fill="#DFE5FF" fill-opacity="0.5"/>
<path d="M8.2 14.4666L5 12.6L14.6 7L24.2 12.6V19.4H22.6V13.5334L21 14.4666V19.809L20.8219 20.0291C19.3566 21.8399 17.1134 23 14.6 23C12.0865 23 9.84343 21.8399 8.3781 20.0291L8.2 19.809V14.4666ZM9.8 15.4V19.2334C10.9738 20.5632 12.6889 21.4 14.6 21.4C16.5111 21.4 18.2262 20.5632 19.4 19.2334V15.4L14.6 18.2L9.8 15.4ZM8.17542 12.6L14.6 16.3477L21.0246 12.6L14.6 8.85233L8.17542 12.6Z" fill="#3382EB"/>
</svg>
